<?xml version="1.0" encoding="utf-8" standalone="no"?>
<!DOCTYPE svg PUBLIC "-//W3C//DTD SVG 1.1//EN"
  "http://www.w3.org/Graphics/SVG/1.1/DTD/svg11.dtd">
<svg xmlns:xlink="http://www.w3.org/1999/xlink" width="491.04875pt" height="396.385625pt" viewBox="0 0 491.04875 396.385625" xmlns="http://www.w3.org/2000/svg" version="1.1">
 <metadata>
  <rdf:RDF xmlns:dc="http://purl.org/dc/elements/1.1/" xmlns:cc="http://creativecommons.org/ns#" xmlns:rdf="http://www.w3.org/1999/02/22-rdf-syntax-ns#">
   <cc:Work>
    <dc:type rdf:resource="http://purl.org/dc/dcmitype/StillImage"/>
    <dc:date>2025-05-22T08:02:27.921837</dc:date>
    <dc:format>image/svg+xml</dc:format>
    <dc:creator>
     <cc:Agent>
      <dc:title>Matplotlib v3.10.0, https://matplotlib.org/</dc:title>
     </cc:Agent>
    </dc:creator>
   </cc:Work>
  </rdf:RDF>
 </metadata>
 <defs>
  <style type="text/css">*{stroke-linejoin: round; stroke-linecap: butt}</style>
 </defs>
 <g id="figure_1">
  <g id="patch_1">
   <path d="M 0 396.385625 
L 491.04875 396.385625 
L 491.04875 0 
L 0 0 
z
" style="fill: #ffffff"/>
  </g>
  <g id="axes_1">
   <g id="patch_2">
    <path d="M 37.44875 354.958125 
L 483.84875 354.958125 
L 483.84875 22.318125 
L 37.44875 22.318125 
z
" style="fill: #ffffff"/>
   </g>
   <g id="matplotlib.axis_1">
    <g id="xtick_1">
     <g id="line2d_1">
      <defs>
       <path id="m665c68fa04" d="M 0 0 
L 0 3.5 
" style="stroke: #000000; stroke-width: 0.8"/>
      </defs>
      <g>
       <use xlink:href="#m665c68fa04" x="57.739659" y="354.958125" style="stroke: #000000; stroke-width: 0.8"/>
      </g>
     </g>
     <g id="text_1">
      <!-- 0 -->
      <g transform="translate(53.922159 371.07625) scale(0.12 -0.12)">
       <defs>
        <path id="DejaVuSans-30" d="M 2034 4250 
Q 1547 4250 1301 3770 
Q 1056 3291 1056 2328 
Q 1056 1369 1301 889 
Q 1547 409 2034 409 
Q 2525 409 2770 889 
Q 3016 1369 3016 2328 
Q 3016 3291 2770 3770 
Q 2525 4250 2034 4250 
z
M 2034 4750 
Q 2819 4750 3233 4129 
Q 3647 3509 3647 2328 
Q 3647 1150 3233 529 
Q 2819 -91 2034 -91 
Q 1250 -91 836 529 
Q 422 1150 422 2328 
Q 422 3509 836 4129 
Q 1250 4750 2034 4750 
z
" transform="scale(0.015625)"/>
       </defs>
       <use xlink:href="#DejaVuSans-30"/>
      </g>
     </g>
    </g>
    <g id="xtick_2">
     <g id="line2d_2">
      <g>
       <use xlink:href="#m665c68fa04" x="114.103295" y="354.958125" style="stroke: #000000; stroke-width: 0.8"/>
      </g>
     </g>
     <g id="text_2">
      <!-- 5 -->
      <g transform="translate(110.285795 371.07625) scale(0.12 -0.12)">
       <defs>
        <path id="DejaVuSans-35" d="M 691 4666 
L 3169 4666 
L 3169 4134 
L 1269 4134 
L 1269 2991 
Q 1406 3038 1543 3061 
Q 1681 3084 1819 3084 
Q 2600 3084 3056 2656 
Q 3513 2228 3513 1497 
Q 3513 744 3044 326 
Q 2575 -91 1722 -91 
Q 1428 -91 1123 -41 
Q 819 9 494 109 
L 494 744 
Q 775 591 1075 516 
Q 1375 441 1709 441 
Q 2250 441 2565 725 
Q 2881 1009 2881 1497 
Q 2881 1984 2565 2268 
Q 2250 2553 1709 2553 
Q 1456 2553 1204 2497 
Q 953 2441 691 2322 
L 691 4666 
z
" transform="scale(0.015625)"/>
       </defs>
       <use xlink:href="#DejaVuSans-35"/>
      </g>
     </g>
    </g>
    <g id="xtick_3">
     <g id="line2d_3">
      <g>
       <use xlink:href="#m665c68fa04" x="170.466932" y="354.958125" style="stroke: #000000; stroke-width: 0.8"/>
      </g>
     </g>
     <g id="text_3">
      <!-- 10 -->
      <g transform="translate(162.831932 371.07625) scale(0.12 -0.12)">
       <defs>
        <path id="DejaVuSans-31" d="M 794 531 
L 1825 531 
L 1825 4091 
L 703 3866 
L 703 4441 
L 1819 4666 
L 2450 4666 
L 2450 531 
L 3481 531 
L 3481 0 
L 794 0 
L 794 531 
z
" transform="scale(0.015625)"/>
       </defs>
       <use xlink:href="#DejaVuSans-31"/>
       <use xlink:href="#DejaVuSans-30" transform="translate(63.623047 0)"/>
      </g>
     </g>
    </g>
    <g id="xtick_4">
     <g id="line2d_4">
      <g>
       <use xlink:href="#m665c68fa04" x="226.830568" y="354.958125" style="stroke: #000000; stroke-width: 0.8"/>
      </g>
     </g>
     <g id="text_4">
      <!-- 15 -->
      <g transform="translate(219.195568 371.07625) scale(0.12 -0.12)">
       <use xlink:href="#DejaVuSans-31"/>
       <use xlink:href="#DejaVuSans-35" transform="translate(63.623047 0)"/>
      </g>
     </g>
    </g>
    <g id="xtick_5">
     <g id="line2d_5">
      <g>
       <use xlink:href="#m665c68fa04" x="283.194205" y="354.958125" style="stroke: #000000; stroke-width: 0.8"/>
      </g>
     </g>
     <g id="text_5">
      <!-- 20 -->
      <g transform="translate(275.559205 371.07625) scale(0.12 -0.12)">
       <defs>
        <path id="DejaVuSans-32" d="M 1228 531 
L 3431 531 
L 3431 0 
L 469 0 
L 469 531 
Q 828 903 1448 1529 
Q 2069 2156 2228 2338 
Q 2531 2678 2651 2914 
Q 2772 3150 2772 3378 
Q 2772 3750 2511 3984 
Q 2250 4219 1831 4219 
Q 1534 4219 1204 4116 
Q 875 4013 500 3803 
L 500 4441 
Q 881 4594 1212 4672 
Q 1544 4750 1819 4750 
Q 2544 4750 2975 4387 
Q 3406 4025 3406 3419 
Q 3406 3131 3298 2873 
Q 3191 2616 2906 2266 
Q 2828 2175 2409 1742 
Q 1991 1309 1228 531 
z
" transform="scale(0.015625)"/>
       </defs>
       <use xlink:href="#DejaVuSans-32"/>
       <use xlink:href="#DejaVuSans-30" transform="translate(63.623047 0)"/>
      </g>
     </g>
    </g>
    <g id="xtick_6">
     <g id="line2d_6">
      <g>
       <use xlink:href="#m665c68fa04" x="339.557841" y="354.958125" style="stroke: #000000; stroke-width: 0.8"/>
      </g>
     </g>
     <g id="text_6">
      <!-- 25 -->
      <g transform="translate(331.922841 371.07625) scale(0.12 -0.12)">
       <use xlink:href="#DejaVuSans-32"/>
       <use xlink:href="#DejaVuSans-35" transform="translate(63.623047 0)"/>
      </g>
     </g>
    </g>
    <g id="xtick_7">
     <g id="line2d_7">
      <g>
       <use xlink:href="#m665c68fa04" x="395.921477" y="354.958125" style="stroke: #000000; stroke-width: 0.8"/>
      </g>
     </g>
     <g id="text_7">
      <!-- 30 -->
      <g transform="translate(388.286477 371.07625) scale(0.12 -0.12)">
       <defs>
        <path id="DejaVuSans-33" d="M 2597 2516 
Q 3050 2419 3304 2112 
Q 3559 1806 3559 1356 
Q 3559 666 3084 287 
Q 2609 -91 1734 -91 
Q 1441 -91 1130 -33 
Q 819 25 488 141 
L 488 750 
Q 750 597 1062 519 
Q 1375 441 1716 441 
Q 2309 441 2620 675 
Q 2931 909 2931 1356 
Q 2931 1769 2642 2001 
Q 2353 2234 1838 2234 
L 1294 2234 
L 1294 2753 
L 1863 2753 
Q 2328 2753 2575 2939 
Q 2822 3125 2822 3475 
Q 2822 3834 2567 4026 
Q 2313 4219 1838 4219 
Q 1578 4219 1281 4162 
Q 984 4106 628 3988 
L 628 4550 
Q 988 4650 1302 4700 
Q 1616 4750 1894 4750 
Q 2613 4750 3031 4423 
Q 3450 4097 3450 3541 
Q 3450 3153 3228 2886 
Q 3006 2619 2597 2516 
z
" transform="scale(0.015625)"/>
       </defs>
       <use xlink:href="#DejaVuSans-33"/>
       <use xlink:href="#DejaVuSans-30" transform="translate(63.623047 0)"/>
      </g>
     </g>
    </g>
    <g id="xtick_8">
     <g id="line2d_8">
      <g>
       <use xlink:href="#m665c68fa04" x="452.285114" y="354.958125" style="stroke: #000000; stroke-width: 0.8"/>
      </g>
     </g>
     <g id="text_8">
      <!-- 35 -->
      <g transform="translate(444.650114 371.07625) scale(0.12 -0.12)">
       <use xlink:href="#DejaVuSans-33"/>
       <use xlink:href="#DejaVuSans-35" transform="translate(63.623047 0)"/>
      </g>
     </g>
    </g>
    <g id="text_9">
     <!-- index [-] -->
     <g transform="translate(235.47875 386.69) scale(0.12 -0.12)">
      <defs>
       <path id="DejaVuSans-69" d="M 603 3500 
L 1178 3500 
L 1178 0 
L 603 0 
L 603 3500 
z
M 603 4863 
L 1178 4863 
L 1178 4134 
L 603 4134 
L 603 4863 
z
" transform="scale(0.015625)"/>
       <path id="DejaVuSans-6e" d="M 3513 2113 
L 3513 0 
L 2938 0 
L 2938 2094 
Q 2938 2591 2744 2837 
Q 2550 3084 2163 3084 
Q 1697 3084 1428 2787 
Q 1159 2491 1159 1978 
L 1159 0 
L 581 0 
L 581 3500 
L 1159 3500 
L 1159 2956 
Q 1366 3272 1645 3428 
Q 1925 3584 2291 3584 
Q 2894 3584 3203 3211 
Q 3513 2838 3513 2113 
z
" transform="scale(0.015625)"/>
       <path id="DejaVuSans-64" d="M 2906 2969 
L 2906 4863 
L 3481 4863 
L 3481 0 
L 2906 0 
L 2906 525 
Q 2725 213 2448 61 
Q 2172 -91 1784 -91 
Q 1150 -91 751 415 
Q 353 922 353 1747 
Q 353 2572 751 3078 
Q 1150 3584 1784 3584 
Q 2172 3584 2448 3432 
Q 2725 3281 2906 2969 
z
M 947 1747 
Q 947 1113 1208 752 
Q 1469 391 1925 391 
Q 2381 391 2643 752 
Q 2906 1113 2906 1747 
Q 2906 2381 2643 2742 
Q 2381 3103 1925 3103 
Q 1469 3103 1208 2742 
Q 947 2381 947 1747 
z
" transform="scale(0.015625)"/>
       <path id="DejaVuSans-65" d="M 3597 1894 
L 3597 1613 
L 953 1613 
Q 991 1019 1311 708 
Q 1631 397 2203 397 
Q 2534 397 2845 478 
Q 3156 559 3463 722 
L 3463 178 
Q 3153 47 2828 -22 
Q 2503 -91 2169 -91 
Q 1331 -91 842 396 
Q 353 884 353 1716 
Q 353 2575 817 3079 
Q 1281 3584 2069 3584 
Q 2775 3584 3186 3129 
Q 3597 2675 3597 1894 
z
M 3022 2063 
Q 3016 2534 2758 2815 
Q 2500 3097 2075 3097 
Q 1594 3097 1305 2825 
Q 1016 2553 972 2059 
L 3022 2063 
z
" transform="scale(0.015625)"/>
       <path id="DejaVuSans-78" d="M 3513 3500 
L 2247 1797 
L 3578 0 
L 2900 0 
L 1881 1375 
L 863 0 
L 184 0 
L 1544 1831 
L 300 3500 
L 978 3500 
L 1906 2253 
L 2834 3500 
L 3513 3500 
z
" transform="scale(0.015625)"/>
       <path id="DejaVuSans-20" transform="scale(0.015625)"/>
       <path id="DejaVuSans-5b" d="M 550 4863 
L 1875 4863 
L 1875 4416 
L 1125 4416 
L 1125 -397 
L 1875 -397 
L 1875 -844 
L 550 -844 
L 550 4863 
z
" transform="scale(0.015625)"/>
       <path id="DejaVuSans-2d" d="M 313 2009 
L 1997 2009 
L 1997 1497 
L 313 1497 
L 313 2009 
z
" transform="scale(0.015625)"/>
       <path id="DejaVuSans-5d" d="M 1947 4863 
L 1947 -844 
L 622 -844 
L 622 -397 
L 1369 -397 
L 1369 4416 
L 622 4416 
L 622 4863 
L 1947 4863 
z
" transform="scale(0.015625)"/>
      </defs>
      <use xlink:href="#DejaVuSans-69"/>
      <use xlink:href="#DejaVuSans-6e" transform="translate(27.783203 0)"/>
      <use xlink:href="#DejaVuSans-64" transform="translate(91.162109 0)"/>
      <use xlink:href="#DejaVuSans-65" transform="translate(154.638672 0)"/>
      <use xlink:href="#DejaVuSans-78" transform="translate(214.412109 0)"/>
      <use xlink:href="#DejaVuSans-20" transform="translate(273.591797 0)"/>
      <use xlink:href="#DejaVuSans-5b" transform="translate(305.378906 0)"/>
      <use xlink:href="#DejaVuSans-2d" transform="translate(344.392578 0)"/>
      <use xlink:href="#DejaVuSans-5d" transform="translate(380.476562 0)"/>
     </g>
    </g>
   </g>
   <g id="matplotlib.axis_2">
    <g id="ytick_1">
     <g id="line2d_9">
      <defs>
       <path id="mc863af512a" d="M 0 0 
L -3.5 0 
" style="stroke: #000000; stroke-width: 0.8"/>
      </defs>
      <g>
       <use xlink:href="#mc863af512a" x="37.44875" y="339.838125" style="stroke: #000000; stroke-width: 0.8"/>
      </g>
     </g>
     <g id="text_10">
      <!-- 0 -->
      <g transform="translate(22.81375 344.397187) scale(0.12 -0.12)">
       <use xlink:href="#DejaVuSans-30"/>
      </g>
     </g>
    </g>
    <g id="ytick_2">
     <g id="line2d_10">
      <g>
       <use xlink:href="#mc863af512a" x="37.44875" y="289.551288" style="stroke: #000000; stroke-width: 0.8"/>
      </g>
     </g>
     <g id="text_11">
      <!-- 1 -->
      <g transform="translate(22.81375 294.11035) scale(0.12 -0.12)">
       <use xlink:href="#DejaVuSans-31"/>
      </g>
     </g>
    </g>
    <g id="ytick_3">
     <g id="line2d_11">
      <g>
       <use xlink:href="#mc863af512a" x="37.44875" y="239.26445" style="stroke: #000000; stroke-width: 0.8"/>
      </g>
     </g>
     <g id="text_12">
      <!-- 2 -->
      <g transform="translate(22.81375 243.823513) scale(0.12 -0.12)">
       <use xlink:href="#DejaVuSans-32"/>
      </g>
     </g>
    </g>
    <g id="ytick_4">
     <g id="line2d_12">
      <g>
       <use xlink:href="#mc863af512a" x="37.44875" y="188.977613" style="stroke: #000000; stroke-width: 0.8"/>
      </g>
     </g>
     <g id="text_13">
      <!-- 3 -->
      <g transform="translate(22.81375 193.536675) scale(0.12 -0.12)">
       <use xlink:href="#DejaVuSans-33"/>
      </g>
     </g>
    </g>
    <g id="ytick_5">
     <g id="line2d_13">
      <g>
       <use xlink:href="#mc863af512a" x="37.44875" y="138.690775" style="stroke: #000000; stroke-width: 0.8"/>
      </g>
     </g>
     <g id="text_14">
      <!-- 4 -->
      <g transform="translate(22.81375 143.249838) scale(0.12 -0.12)">
       <defs>
        <path id="DejaVuSans-34" d="M 2419 4116 
L 825 1625 
L 2419 1625 
L 2419 4116 
z
M 2253 4666 
L 3047 4666 
L 3047 1625 
L 3713 1625 
L 3713 1100 
L 3047 1100 
L 3047 0 
L 2419 0 
L 2419 1100 
L 313 1100 
L 313 1709 
L 2253 4666 
z
" transform="scale(0.015625)"/>
       </defs>
       <use xlink:href="#DejaVuSans-34"/>
      </g>
     </g>
    </g>
    <g id="ytick_6">
     <g id="line2d_14">
      <g>
       <use xlink:href="#mc863af512a" x="37.44875" y="88.403938" style="stroke: #000000; stroke-width: 0.8"/>
      </g>
     </g>
     <g id="text_15">
      <!-- 5 -->
      <g transform="translate(22.81375 92.963) scale(0.12 -0.12)">
       <use xlink:href="#DejaVuSans-35"/>
      </g>
     </g>
    </g>
    <g id="ytick_7">
     <g id="line2d_15">
      <g>
       <use xlink:href="#mc863af512a" x="37.44875" y="38.1171" style="stroke: #000000; stroke-width: 0.8"/>
      </g>
     </g>
     <g id="text_16">
      <!-- 6 -->
      <g transform="translate(22.81375 42.676163) scale(0.12 -0.12)">
       <defs>
        <path id="DejaVuSans-36" d="M 2113 2584 
Q 1688 2584 1439 2293 
Q 1191 2003 1191 1497 
Q 1191 994 1439 701 
Q 1688 409 2113 409 
Q 2538 409 2786 701 
Q 3034 994 3034 1497 
Q 3034 2003 2786 2293 
Q 2538 2584 2113 2584 
z
M 3366 4563 
L 3366 3988 
Q 3128 4100 2886 4159 
Q 2644 4219 2406 4219 
Q 1781 4219 1451 3797 
Q 1122 3375 1075 2522 
Q 1259 2794 1537 2939 
Q 1816 3084 2150 3084 
Q 2853 3084 3261 2657 
Q 3669 2231 3669 1497 
Q 3669 778 3244 343 
Q 2819 -91 2113 -91 
Q 1303 -91 875 529 
Q 447 1150 447 2328 
Q 447 3434 972 4092 
Q 1497 4750 2381 4750 
Q 2619 4750 2861 4703 
Q 3103 4656 3366 4563 
z
" transform="scale(0.015625)"/>
       </defs>
       <use xlink:href="#DejaVuSans-36"/>
      </g>
     </g>
    </g>
    <g id="text_17">
     <!-- intensity [a.u.] -->
     <g transform="translate(16.318125 232.531875) rotate(-90) scale(0.12 -0.12)">
      <defs>
       <path id="DejaVuSans-74" d="M 1172 4494 
L 1172 3500 
L 2356 3500 
L 2356 3053 
L 1172 3053 
L 1172 1153 
Q 1172 725 1289 603 
Q 1406 481 1766 481 
L 2356 481 
L 2356 0 
L 1766 0 
Q 1100 0 847 248 
Q 594 497 594 1153 
L 594 3053 
L 172 3053 
L 172 3500 
L 594 3500 
L 594 4494 
L 1172 4494 
z
" transform="scale(0.015625)"/>
       <path id="DejaVuSans-73" d="M 2834 3397 
L 2834 2853 
Q 2591 2978 2328 3040 
Q 2066 3103 1784 3103 
Q 1356 3103 1142 2972 
Q 928 2841 928 2578 
Q 928 2378 1081 2264 
Q 1234 2150 1697 2047 
L 1894 2003 
Q 2506 1872 2764 1633 
Q 3022 1394 3022 966 
Q 3022 478 2636 193 
Q 2250 -91 1575 -91 
Q 1294 -91 989 -36 
Q 684 19 347 128 
L 347 722 
Q 666 556 975 473 
Q 1284 391 1588 391 
Q 1994 391 2212 530 
Q 2431 669 2431 922 
Q 2431 1156 2273 1281 
Q 2116 1406 1581 1522 
L 1381 1569 
Q 847 1681 609 1914 
Q 372 2147 372 2553 
Q 372 3047 722 3315 
Q 1072 3584 1716 3584 
Q 2034 3584 2315 3537 
Q 2597 3491 2834 3397 
z
" transform="scale(0.015625)"/>
       <path id="DejaVuSans-79" d="M 2059 -325 
Q 1816 -950 1584 -1140 
Q 1353 -1331 966 -1331 
L 506 -1331 
L 506 -850 
L 844 -850 
Q 1081 -850 1212 -737 
Q 1344 -625 1503 -206 
L 1606 56 
L 191 3500 
L 800 3500 
L 1894 763 
L 2988 3500 
L 3597 3500 
L 2059 -325 
z
" transform="scale(0.015625)"/>
       <path id="DejaVuSans-61" d="M 2194 1759 
Q 1497 1759 1228 1600 
Q 959 1441 959 1056 
Q 959 750 1161 570 
Q 1363 391 1709 391 
Q 2188 391 2477 730 
Q 2766 1069 2766 1631 
L 2766 1759 
L 2194 1759 
z
M 3341 1997 
L 3341 0 
L 2766 0 
L 2766 531 
Q 2569 213 2275 61 
Q 1981 -91 1556 -91 
Q 1019 -91 701 211 
Q 384 513 384 1019 
Q 384 1609 779 1909 
Q 1175 2209 1959 2209 
L 2766 2209 
L 2766 2266 
Q 2766 2663 2505 2880 
Q 2244 3097 1772 3097 
Q 1472 3097 1187 3025 
Q 903 2953 641 2809 
L 641 3341 
Q 956 3463 1253 3523 
Q 1550 3584 1831 3584 
Q 2591 3584 2966 3190 
Q 3341 2797 3341 1997 
z
" transform="scale(0.015625)"/>
       <path id="DejaVuSans-2e" d="M 684 794 
L 1344 794 
L 1344 0 
L 684 0 
L 684 794 
z
" transform="scale(0.015625)"/>
       <path id="DejaVuSans-75" d="M 544 1381 
L 544 3500 
L 1119 3500 
L 1119 1403 
Q 1119 906 1312 657 
Q 1506 409 1894 409 
Q 2359 409 2629 706 
Q 2900 1003 2900 1516 
L 2900 3500 
L 3475 3500 
L 3475 0 
L 2900 0 
L 2900 538 
Q 2691 219 2414 64 
Q 2138 -91 1772 -91 
Q 1169 -91 856 284 
Q 544 659 544 1381 
z
M 1991 3584 
L 1991 3584 
z
" transform="scale(0.015625)"/>
      </defs>
      <use xlink:href="#DejaVuSans-69"/>
      <use xlink:href="#DejaVuSans-6e" transform="translate(27.783203 0)"/>
      <use xlink:href="#DejaVuSans-74" transform="translate(91.162109 0)"/>
      <use xlink:href="#DejaVuSans-65" transform="translate(130.371094 0)"/>
      <use xlink:href="#DejaVuSans-6e" transform="translate(191.894531 0)"/>
      <use xlink:href="#DejaVuSans-73" transform="translate(255.273438 0)"/>
      <use xlink:href="#DejaVuSans-69" transform="translate(307.373047 0)"/>
      <use xlink:href="#DejaVuSans-74" transform="translate(335.15625 0)"/>
      <use xlink:href="#DejaVuSans-79" transform="translate(374.365234 0)"/>
      <use xlink:href="#DejaVuSans-20" transform="translate(433.544922 0)"/>
      <use xlink:href="#DejaVuSans-5b" transform="translate(465.332031 0)"/>
      <use xlink:href="#DejaVuSans-61" transform="translate(504.345703 0)"/>
      <use xlink:href="#DejaVuSans-2e" transform="translate(565.625 0)"/>
      <use xlink:href="#DejaVuSans-75" transform="translate(597.412109 0)"/>
      <use xlink:href="#DejaVuSans-2e" transform="translate(660.791016 0)"/>
      <use xlink:href="#DejaVuSans-5d" transform="translate(692.578125 0)"/>
     </g>
    </g>
   </g>
   <g id="line2d_16">
    <path d="M 57.739659 339.838125 
L 136.681808 339.738393 
L 140.252056 339.491844 
L 142.632221 339.102982 
L 144.615692 338.523436 
L 146.202469 337.809193 
L 147.789246 336.792205 
L 148.979329 335.781198 
L 150.169411 334.517693 
L 151.359494 332.967847 
L 152.549576 331.102673 
L 153.739659 328.901449 
L 155.326436 325.430669 
L 156.913213 321.371997 
L 158.896684 315.607289 
L 164.847097 297.513721 
L 166.03718 294.662738 
L 167.227262 292.358388 
L 168.020651 291.176277 
L 168.814039 290.305651 
L 169.607428 289.764077 
L 170.400816 289.562601 
L 171.194205 289.705373 
L 171.987593 290.189504 
L 172.780981 291.005165 
L 173.57437 292.135915 
L 174.764452 294.372132 
L 175.954535 297.167998 
L 177.541312 301.564658 
L 179.921477 308.95479 
L 183.095031 318.761427 
L 185.078502 324.138553 
L 186.665279 327.811859 
L 188.252056 330.875662 
L 189.442138 332.778175 
L 190.632221 334.3624 
L 191.822304 335.656547 
L 193.012386 336.694072 
L 194.599163 337.738053 
L 196.18594 338.473339 
L 197.772717 338.975212 
L 199.756188 339.370072 
L 202.533048 339.653228 
L 206.49999 339.795772 
L 216.020651 339.837511 
L 249.342965 339.740802 
L 252.913213 339.49893 
L 255.293378 339.116641 
L 257.276849 338.547411 
L 258.863626 337.845205 
L 260.450403 336.844248 
L 261.640486 335.846338 
L 262.830568 334.597379 
L 264.020651 333.063642 
L 265.210733 331.215811 
L 266.400816 329.032679 
L 267.987593 325.58605 
L 269.57437 321.549762 
L 271.557841 315.807049 
L 277.508254 297.680518 
L 278.698337 294.802207 
L 279.888419 292.465321 
L 280.681808 291.259093 
L 281.475196 290.362871 
L 282.268585 289.79467 
L 283.061973 289.566013 
L 283.855362 289.681542 
L 284.64875 290.138862 
L 285.442138 290.928626 
L 286.235527 292.034849 
L 287.42561 294.237741 
L 288.615692 297.005465 
L 290.202469 301.371475 
L 292.582634 308.744083 
L 295.756188 318.571576 
L 297.739659 323.974454 
L 299.326436 327.671497 
L 300.913213 330.759545 
L 302.103295 332.679563 
L 303.293378 334.28013 
L 304.483461 335.5891 
L 305.673543 336.639727 
L 307.26032 337.700265 
L 308.847097 338.44806 
L 310.433874 338.95894 
L 312.417345 339.360745 
L 315.194205 339.649023 
L 319.161147 339.794611 
L 328.681808 339.837493 
L 362.004122 339.743359 
L 365.57437 339.506502 
L 367.954535 339.130999 
L 369.938006 338.570711 
L 371.524783 337.878447 
L 373.11156 336.890338 
L 374.301643 335.905849 
L 375.491725 334.672985 
L 376.681808 333.157519 
L 377.87189 331.329685 
L 379.061973 329.167425 
L 380.64875 325.744857 
L 382.235527 321.730449 
L 384.218998 316.008443 
L 390.566105 296.83862 
L 391.756188 294.097706 
L 392.946271 291.927044 
L 393.739659 290.844795 
L 394.533048 290.080544 
L 395.326436 289.649834 
L 396.119824 289.562601 
L 396.913213 289.82278 
L 397.706601 290.421797 
L 398.49999 291.347389 
L 399.293378 292.58086 
L 400.483461 294.953343 
L 401.673543 297.859444 
L 403.26032 302.354317 
L 406.433874 312.313823 
L 408.814039 319.523687 
L 410.79751 324.79473 
L 412.384287 328.36926 
L 413.971064 331.329685 
L 415.161147 333.157519 
L 416.351229 334.672985 
L 417.541312 335.905849 
L 418.731395 336.890338 
L 420.318171 337.878447 
L 421.904948 338.570711 
L 423.491725 339.040719 
L 425.475196 339.408326 
L 428.252056 339.669885 
L 432.615692 339.805544 
L 444.119824 339.837966 
L 463.557841 339.838125 
L 463.557841 339.838125 
" clip-path="url(#pc7be5b4579)" style="fill: none; stroke: #1f77b4; stroke-width: 2; stroke-linecap: square"/>
   </g>
   <g id="line2d_17">
    <path d="M 57.739659 88.958452 
L 58.136353 88.223685 
L 58.533048 88.234457 
L 58.929742 89.027195 
L 59.326436 88.353204 
L 59.72313 88.493048 
L 60.119824 88.160658 
L 60.516519 88.680578 
L 60.913213 88.917056 
L 61.309907 88.085346 
L 61.706601 88.301712 
L 62.103295 88.252269 
L 62.49999 88.952877 
L 62.896684 88.902346 
L 63.293378 88.603332 
L 63.690072 88.542425 
L 64.880155 87.659575 
L 65.276849 88.212052 
L 65.673543 88.244372 
L 66.070238 88.460728 
L 66.466932 88.918181 
L 67.26032 87.93897 
L 68.053709 88.64834 
L 68.450403 88.096559 
L 68.847097 88.103184 
L 69.243791 88.531327 
L 69.640486 88.148596 
L 70.03718 87.996526 
L 70.433874 88.66344 
L 70.830568 88.777645 
L 72.020651 87.64544 
L 72.417345 88.22387 
L 72.814039 87.917797 
L 73.210733 87.850151 
L 73.607428 88.221618 
L 74.004122 87.76967 
L 74.400816 89.322082 
L 74.79751 89.638443 
L 75.194205 88.397469 
L 75.590899 87.93756 
L 76.384287 88.476282 
L 77.177676 87.976516 
L 77.57437 88.963327 
L 77.971064 88.258539 
L 78.367758 88.150984 
L 78.764452 88.99648 
L 79.161147 88.436211 
L 79.557841 88.303605 
L 79.954535 88.660437 
L 80.351229 88.740652 
L 80.747924 88.383245 
L 81.541312 88.451058 
L 81.938006 88.779541 
L 82.3347 88.779623 
L 82.731395 88.651703 
L 83.128089 88.669131 
L 83.524783 88.434244 
L 83.921477 88.481953 
L 84.318171 88.763931 
L 84.714866 88.658774 
L 85.508254 87.811745 
L 85.904948 87.664378 
L 86.301643 88.424331 
L 86.698337 88.670872 
L 87.491725 87.735163 
L 87.888419 88.068301 
L 88.285114 88.765501 
L 88.681808 88.829675 
L 89.078502 88.254559 
L 89.475196 88.599068 
L 89.87189 89.319378 
L 90.268585 88.216041 
L 90.665279 89.388991 
L 91.061973 88.359261 
L 91.458667 87.671068 
L 92.252056 88.476046 
L 93.045444 88.65688 
L 93.442138 88.343208 
L 93.838833 88.90103 
L 94.235527 88.293849 
L 94.632221 88.028412 
L 95.028915 88.43934 
L 95.42561 88.443905 
L 95.822304 88.780654 
L 96.218998 88.814974 
L 96.615692 88.585865 
L 97.012386 88.014921 
L 97.409081 88.363444 
L 97.805775 88.367151 
L 98.202469 88.714404 
L 98.599163 89.444778 
L 99.392552 87.81594 
L 100.18594 88.838579 
L 100.979329 87.822765 
L 101.376023 88.399816 
L 101.772717 88.456904 
L 102.169411 87.868583 
L 102.566105 88.42446 
L 103.359494 88.476501 
L 103.756188 88.099508 
L 104.152882 88.484502 
L 104.549576 89.283143 
L 104.946271 88.817531 
L 105.342965 89.204043 
L 105.739659 87.950888 
L 106.136353 87.889279 
L 106.533048 88.657902 
L 106.929742 88.562569 
L 107.326436 88.960441 
L 107.72313 88.384916 
L 108.119824 89.167176 
L 108.516519 88.73163 
L 108.913213 88.751316 
L 109.309907 88.990132 
L 110.103295 88.035705 
L 110.49999 88.845471 
L 110.896684 88.815684 
L 111.293378 89.244588 
L 111.690072 89.284656 
L 112.086767 88.70076 
L 112.483461 88.368025 
L 112.880155 88.887351 
L 113.276849 88.430801 
L 114.466932 88.502284 
L 114.863626 88.271531 
L 115.657014 87.212093 
L 116.053709 87.565796 
L 116.450403 88.223506 
L 116.847097 88.302657 
L 118.03718 88.257788 
L 119.623957 88.654941 
L 120.417345 88.377163 
L 120.814039 88.245761 
L 121.210733 88.420159 
L 121.607428 89.027937 
L 122.004122 88.269348 
L 122.400816 88.160544 
L 122.79751 88.869308 
L 123.194205 87.575596 
L 123.590899 88.176834 
L 123.987593 88.406267 
L 124.384287 87.552137 
L 124.780981 88.761399 
L 125.177676 88.884168 
L 125.57437 87.946516 
L 125.971064 88.038789 
L 126.367758 88.247733 
L 126.764452 88.049419 
L 127.161147 87.709628 
L 127.557841 89.251095 
L 127.954535 88.832696 
L 128.351229 88.849653 
L 128.747924 88.465876 
L 129.144618 87.535268 
L 129.541312 87.677351 
L 129.938006 88.421521 
L 130.731395 88.747024 
L 131.128089 88.330933 
L 131.921477 88.57589 
L 132.318171 88.281632 
L 132.714866 88.641499 
L 133.11156 89.26257 
L 133.904948 88.59397 
L 134.301643 88.098519 
L 134.698337 87.226074 
L 135.095031 87.988341 
L 135.491725 89.169701 
L 136.285114 88.268299 
L 136.681808 88.132707 
L 137.475196 88.637067 
L 137.87189 88.373953 
L 138.268585 88.404274 
L 138.665279 88.634896 
L 139.061973 88.250762 
L 139.458667 88.217285 
L 139.855362 87.62803 
L 140.64875 87.929931 
L 141.045444 87.797258 
L 141.442138 86.834879 
L 141.838833 87.292743 
L 142.235527 88.574995 
L 142.632221 86.663644 
L 143.028915 86.938839 
L 143.42561 87.467796 
L 143.822304 87.054811 
L 144.218998 87.608036 
L 144.615692 86.833134 
L 145.012386 87.191673 
L 145.409081 87.208449 
L 145.805775 87.361246 
L 146.995857 85.183903 
L 147.392552 85.376852 
L 147.789246 84.961547 
L 148.18594 84.294441 
L 149.772717 83.528346 
L 150.169411 82.692947 
L 150.566105 82.756286 
L 150.9628 82.329647 
L 151.359494 81.086504 
L 151.756188 80.666406 
L 152.946271 78.613728 
L 153.342965 77.830107 
L 153.739659 76.745848 
L 154.136353 76.532644 
L 154.533048 75.677655 
L 154.929742 75.23016 
L 156.119824 71.580877 
L 156.516519 71.200228 
L 156.913213 71.135368 
L 157.706601 67.873885 
L 158.103295 66.275512 
L 158.49999 65.316292 
L 159.293378 62.230953 
L 159.690072 61.601095 
L 160.086767 60.104964 
L 160.483461 59.823778 
L 161.673543 55.022931 
L 162.070238 53.588875 
L 162.466932 53.121037 
L 164.053709 47.604209 
L 164.450403 47.168293 
L 164.847097 46.466297 
L 165.243791 44.707803 
L 165.640486 43.458641 
L 166.03718 42.981686 
L 166.433874 43.056321 
L 166.830568 42.203664 
L 167.227262 40.839244 
L 167.623957 40.322486 
L 168.020651 40.047409 
L 168.417345 39.237357 
L 168.814039 38.77714 
L 169.210733 38.92807 
L 170.004122 38.383876 
L 170.400816 38.307138 
L 170.79751 38.048161 
L 171.194205 37.594161 
L 171.590899 38.640735 
L 171.987593 39.063041 
L 172.384287 39.102673 
L 172.780981 40.039411 
L 173.177676 39.683218 
L 173.57437 40.937324 
L 173.971064 41.300917 
L 175.161147 43.417029 
L 175.557841 43.953944 
L 175.954535 45.917765 
L 176.747924 47.850413 
L 177.541312 50.128739 
L 177.938006 51.111638 
L 178.3347 53.018141 
L 178.731395 53.154821 
L 179.524783 56.138866 
L 179.921477 57.254168 
L 180.318171 59.128591 
L 181.11156 61.186681 
L 181.508254 62.832542 
L 181.904948 63.540202 
L 182.301643 63.85986 
L 184.285114 70.730098 
L 185.078502 72.334944 
L 185.87189 75.214 
L 186.268585 75.905786 
L 186.665279 76.338795 
L 187.061973 76.32952 
L 187.458667 77.128261 
L 188.252056 80.018847 
L 188.64875 80.28228 
L 189.045444 81.571466 
L 189.442138 81.744682 
L 190.235527 83.135621 
L 191.028915 82.899867 
L 191.42561 84.161321 
L 191.822304 84.460702 
L 192.218998 84.450433 
L 193.012386 85.348334 
L 193.409081 85.471519 
L 193.805775 85.741208 
L 194.202469 86.496722 
L 194.599163 85.868609 
L 194.995857 86.605992 
L 195.392552 86.498614 
L 195.789246 86.575109 
L 196.18594 87.342573 
L 196.979329 87.188696 
L 197.772717 87.765093 
L 198.169411 87.492191 
L 198.566105 87.877762 
L 199.359494 87.035571 
L 199.756188 87.770904 
L 200.152882 88.189623 
L 200.549576 87.926006 
L 200.946271 88.1324 
L 201.342965 88.120085 
L 201.739659 88.270943 
L 202.136353 88.707684 
L 202.929742 87.793756 
L 203.326436 87.89144 
L 203.72313 88.386292 
L 204.119824 88.384573 
L 204.516519 87.95151 
L 204.913213 88.353329 
L 205.309907 88.303267 
L 205.706601 88.47869 
L 206.103295 88.18106 
L 206.49999 88.807406 
L 206.896684 88.177358 
L 207.293378 87.80281 
L 207.690072 88.297489 
L 208.086767 88.021875 
L 208.483461 88.128302 
L 209.276849 88.789105 
L 209.673543 88.477425 
L 210.070238 87.705701 
L 210.466932 89.270942 
L 210.863626 88.091679 
L 211.26032 88.836406 
L 211.657014 88.077954 
L 212.053709 88.177672 
L 212.450403 87.888996 
L 212.847097 88.471571 
L 213.243791 88.671115 
L 213.640486 88.341687 
L 215.227262 88.540004 
L 215.623957 87.640966 
L 216.020651 87.598271 
L 216.417345 87.823129 
L 216.814039 88.199415 
L 217.607428 87.483347 
L 218.004122 87.668728 
L 218.400816 88.515197 
L 218.79751 88.878429 
L 219.590899 88.37896 
L 219.987593 88.249743 
L 220.384287 88.65755 
L 220.780981 88.637878 
L 221.971064 87.989501 
L 222.367758 87.596971 
L 222.764452 87.706963 
L 223.161147 88.286421 
L 223.557841 88.446979 
L 223.954535 88.068504 
L 224.351229 88.861371 
L 224.747924 88.236005 
L 225.144618 88.89361 
L 225.541312 88.305995 
L 225.938006 88.563003 
L 226.3347 88.141128 
L 226.731395 88.331633 
L 227.128089 89.139194 
L 227.524783 88.189112 
L 227.921477 88.141112 
L 228.318171 88.895284 
L 228.714866 87.969012 
L 229.11156 88.075607 
L 229.508254 88.387974 
L 229.904948 88.343725 
L 230.301643 88.018299 
L 230.698337 88.251566 
L 231.095031 88.220071 
L 231.491725 88.589289 
L 231.888419 87.986418 
L 232.285114 88.25965 
L 232.681808 88.383015 
L 233.078502 88.334059 
L 233.475196 87.853074 
L 233.87189 88.16886 
L 234.268585 88.116757 
L 235.061973 88.799151 
L 235.855362 88.392389 
L 236.252056 88.403205 
L 236.64875 88.65953 
L 237.045444 88.549124 
L 237.838833 88.154164 
L 238.235527 88.632472 
L 238.632221 88.649897 
L 239.028915 88.5107 
L 239.42561 88.057581 
L 239.822304 88.459391 
L 240.218998 87.789839 
L 240.615692 88.293009 
L 241.012386 88.509626 
L 241.409081 88.490169 
L 241.805775 88.92312 
L 242.202469 88.058256 
L 242.599163 87.936325 
L 242.995857 88.457034 
L 243.392552 87.64809 
L 243.789246 87.812406 
L 244.18594 87.787668 
L 244.979329 88.059322 
L 245.376023 88.936725 
L 245.772717 88.936033 
L 246.169411 88.695186 
L 246.566105 87.442887 
L 246.9628 88.198075 
L 247.359494 87.877962 
L 247.756188 88.066103 
L 248.152882 89.071718 
L 248.549576 89.195494 
L 248.946271 88.609227 
L 249.342965 88.288751 
L 250.136353 88.460911 
L 250.533048 88.45786 
L 251.326436 87.388077 
L 251.72313 87.531852 
L 252.119824 87.808639 
L 252.516519 87.928193 
L 252.913213 87.880619 
L 253.309907 87.563726 
L 254.103295 87.442369 
L 254.49999 87.099404 
L 254.896684 87.347068 
L 255.293378 87.36553 
L 255.690072 87.534582 
L 256.086767 87.151827 
L 256.483461 87.482287 
L 257.673543 87.331167 
L 258.070238 86.470463 
L 258.863626 85.623168 
L 259.657014 86.689324 
L 260.053709 85.652767 
L 260.450403 85.896924 
L 260.847097 84.63067 
L 261.243791 84.883673 
L 261.640486 84.497418 
L 262.03718 85.006111 
L 262.433874 84.143534 
L 262.830568 84.266926 
L 263.227262 83.050209 
L 263.623957 82.301008 
L 264.020651 81.299751 
L 264.417345 81.354088 
L 265.210733 79.929632 
L 265.607428 79.623304 
L 266.79751 76.806292 
L 267.987593 74.318902 
L 268.384287 73.470539 
L 269.177676 71.146018 
L 269.57437 70.011908 
L 270.367758 68.328376 
L 271.161147 66.108242 
L 271.557841 63.918852 
L 271.954535 62.689815 
L 272.351229 62.446562 
L 273.541312 58.007311 
L 274.731395 54.94371 
L 275.128089 52.346959 
L 275.524783 51.320246 
L 275.921477 51.022877 
L 276.714866 48.9162 
L 277.11156 46.729255 
L 277.508254 45.388828 
L 277.904948 44.836773 
L 278.301643 44.010115 
L 278.698337 44.099262 
L 279.095031 43.0516 
L 279.491725 41.595458 
L 279.888419 41.265486 
L 280.681808 39.856231 
L 281.475196 38.817141 
L 281.87189 38.357783 
L 282.268585 38.201882 
L 283.061973 38.536111 
L 283.458667 38.512029 
L 283.855362 38.190614 
L 284.252056 39.134128 
L 284.64875 38.970277 
L 285.045444 38.644158 
L 285.838833 39.535786 
L 287.42561 43.199331 
L 287.822304 43.633343 
L 289.409081 47.273907 
L 290.995857 52.05532 
L 291.392552 52.625492 
L 291.789246 54.934007 
L 292.582634 58.01248 
L 292.979329 58.471672 
L 293.376023 60.188758 
L 293.772717 60.830848 
L 294.566105 64.024457 
L 294.9628 64.315054 
L 295.359494 65.282833 
L 295.756188 67.208234 
L 296.152882 68.458881 
L 296.549576 68.946379 
L 296.946271 70.623191 
L 297.342965 71.012148 
L 297.739659 72.447833 
L 298.929742 75.485823 
L 299.326436 76.014169 
L 299.72313 77.551783 
L 300.119824 78.208889 
L 300.913213 78.692411 
L 301.309907 79.298456 
L 302.49999 81.950345 
L 303.690072 83.503242 
L 304.086767 83.704105 
L 305.276849 85.270286 
L 305.673543 85.604357 
L 306.070238 85.11431 
L 306.466932 85.213102 
L 307.26032 86.000252 
L 308.053709 86.689529 
L 308.450403 86.682367 
L 308.847097 86.822168 
L 309.243791 87.191564 
L 309.640486 87.206503 
L 310.03718 86.693862 
L 310.433874 86.798109 
L 310.830568 87.113723 
L 311.227262 88.34084 
L 311.623957 87.495787 
L 312.020651 87.997275 
L 312.417345 86.752905 
L 312.814039 87.857732 
L 313.210733 87.906579 
L 313.607428 87.614367 
L 314.004122 88.24163 
L 314.79751 88.25357 
L 315.194205 88.543558 
L 315.590899 87.861489 
L 315.987593 87.622459 
L 317.177676 88.203953 
L 317.57437 88.83166 
L 317.971064 88.210211 
L 318.764452 88.460574 
L 319.161147 88.705184 
L 319.557841 88.584606 
L 319.954535 88.322057 
L 320.351229 88.2481 
L 320.747924 88.395552 
L 321.144618 88.994036 
L 321.541312 88.987481 
L 321.938006 88.799072 
L 322.3347 88.126777 
L 322.731395 88.197896 
L 323.128089 88.650037 
L 323.524783 88.516204 
L 323.921477 87.623972 
L 324.318171 88.751184 
L 324.714866 88.573751 
L 325.11156 88.169099 
L 325.508254 88.107429 
L 325.904948 87.750359 
L 326.698337 88.459799 
L 327.095031 88.293429 
L 327.491725 88.446396 
L 327.888419 88.439842 
L 328.285114 87.929525 
L 328.681808 88.722187 
L 329.078502 88.096397 
L 329.87189 88.184225 
L 330.268585 88.135372 
L 330.665279 88.518867 
L 331.458667 88.900477 
L 331.855362 88.096237 
L 332.252056 87.964575 
L 332.64875 88.561237 
L 333.045444 88.34136 
L 333.442138 88.6523 
L 333.838833 88.016481 
L 334.235527 87.801285 
L 335.028915 88.736518 
L 335.42561 88.422733 
L 335.822304 88.255623 
L 336.218998 88.947028 
L 336.615692 89.050438 
L 337.012386 88.357237 
L 337.409081 88.016463 
L 337.805775 88.073442 
L 338.599163 88.584545 
L 338.995857 88.283219 
L 339.392552 88.429895 
L 339.789246 88.909722 
L 340.18594 88.585683 
L 340.582634 88.853341 
L 340.979329 88.959534 
L 341.772717 88.057999 
L 342.169411 88.353464 
L 342.566105 88.846419 
L 342.9628 87.812559 
L 343.756188 88.773684 
L 344.152882 88.192236 
L 344.549576 88.123025 
L 344.946271 88.405381 
L 345.342965 88.013778 
L 345.739659 88.640309 
L 346.136353 87.62328 
L 346.533048 88.890179 
L 346.929742 88.273119 
L 347.326436 88.433065 
L 347.72313 88.870342 
L 348.516519 88.967925 
L 348.913213 88.765173 
L 349.309907 87.554698 
L 349.706601 87.942496 
L 350.49999 88.977481 
L 350.896684 89.457594 
L 351.293378 89.122776 
L 351.690072 88.538173 
L 352.086767 88.333767 
L 352.483461 88.287248 
L 352.880155 88.609742 
L 353.673543 87.881887 
L 354.070238 88.754016 
L 354.466932 88.958108 
L 354.863626 88.138107 
L 355.26032 88.290817 
L 355.657014 88.804473 
L 356.450403 88.568545 
L 356.847097 88.427409 
L 357.243791 88.634076 
L 357.640486 88.459307 
L 358.03718 88.541369 
L 358.433874 88.341407 
L 358.830568 88.889388 
L 359.227262 88.039311 
L 359.623957 87.94053 
L 360.020651 87.674822 
L 360.814039 88.765473 
L 361.210733 87.815112 
L 361.607428 88.476837 
L 362.004122 88.712963 
L 362.400816 88.195495 
L 363.194205 88.554495 
L 363.590899 88.23128 
L 363.987593 88.064049 
L 364.384287 88.281688 
L 364.780981 88.120831 
L 365.177676 87.501566 
L 365.57437 87.636615 
L 365.971064 87.628657 
L 366.367758 88.202619 
L 366.764452 87.660824 
L 367.161147 88.040675 
L 368.351229 87.34983 
L 368.747924 87.377026 
L 369.144618 87.254735 
L 369.541312 86.743738 
L 369.938006 87.163729 
L 370.3347 87.101196 
L 370.731395 86.393059 
L 371.128089 86.662803 
L 371.524783 86.500231 
L 371.921477 86.067102 
L 372.318171 86.201685 
L 373.11156 85.081415 
L 373.508254 84.817772 
L 373.904948 85.368416 
L 374.301643 85.059713 
L 374.698337 84.169147 
L 375.095031 84.041197 
L 375.491725 83.659432 
L 376.681808 81.753625 
L 377.078502 80.873588 
L 377.475196 80.633306 
L 377.87189 80.820243 
L 378.665279 78.445989 
L 379.458667 76.744072 
L 379.855362 76.440683 
L 380.252056 75.630068 
L 381.442138 71.645966 
L 381.838833 71.348817 
L 382.235527 69.717709 
L 382.632221 69.767511 
L 383.028915 68.108343 
L 383.42561 67.330079 
L 385.012386 61.922367 
L 385.409081 60.977264 
L 386.202469 58.116087 
L 386.599163 56.648833 
L 386.995857 55.775095 
L 387.789246 53.519535 
L 388.18594 52.724241 
L 388.582634 50.653931 
L 388.979329 49.175454 
L 389.772717 47.680518 
L 390.169411 46.539318 
L 390.566105 44.487867 
L 390.9628 44.278194 
L 391.359494 43.747728 
L 391.756188 42.587096 
L 392.549576 41.287155 
L 392.946271 40.253975 
L 393.342965 39.910141 
L 393.739659 38.916968 
L 394.136353 38.945037 
L 394.533048 38.382557 
L 394.929742 38.676549 
L 395.326436 37.619922 
L 395.72313 37.438125 
L 396.119824 38.129682 
L 396.516519 37.965302 
L 396.913213 38.727684 
L 397.309907 38.467267 
L 397.706601 39.521757 
L 398.103295 40.257315 
L 398.49999 40.398337 
L 398.896684 40.293136 
L 399.690072 41.848094 
L 400.086767 43.015203 
L 400.483461 43.266624 
L 400.880155 44.78987 
L 401.276849 45.777744 
L 401.673543 46.288254 
L 402.863626 49.934037 
L 403.26032 50.170069 
L 403.657014 51.280719 
L 404.450403 54.589301 
L 404.847097 56.601741 
L 405.243791 57.912509 
L 405.640486 58.777458 
L 406.433874 61.714911 
L 407.227262 62.918901 
L 408.020651 65.494361 
L 409.607428 69.435398 
L 410.400816 72.654466 
L 411.590899 75.598547 
L 411.987593 75.629613 
L 412.384287 77.066078 
L 412.780981 76.831921 
L 413.177676 78.66142 
L 413.57437 78.929696 
L 413.971064 79.644052 
L 414.367758 80.895221 
L 414.764452 81.203446 
L 415.557841 82.377146 
L 415.954535 82.597798 
L 416.351229 83.759466 
L 416.747924 83.371229 
L 417.144618 83.434074 
L 418.3347 85.659705 
L 419.128089 85.674724 
L 419.524783 85.325868 
L 419.921477 85.682965 
L 420.318171 86.416076 
L 420.714866 86.638179 
L 421.11156 86.673219 
L 421.904948 87.013911 
L 422.301643 86.477145 
L 422.698337 86.455594 
L 423.095031 87.590656 
L 423.491725 87.847931 
L 423.888419 87.65328 
L 424.285114 87.663701 
L 424.681808 87.97448 
L 425.078502 87.974323 
L 425.475196 88.173378 
L 425.87189 87.474434 
L 426.268585 87.090417 
L 426.665279 87.032794 
L 427.061973 88.414703 
L 427.458667 87.743206 
L 427.855362 88.587098 
L 428.252056 88.876924 
L 428.64875 88.390132 
L 429.045444 88.856328 
L 429.442138 88.403961 
L 429.838833 88.541454 
L 430.235527 88.185771 
L 430.632221 87.565643 
L 431.028915 88.95808 
L 431.42561 87.62474 
L 431.822304 88.347329 
L 432.218998 88.530691 
L 432.615692 88.081802 
L 433.012386 88.604425 
L 433.409081 88.39031 
L 433.805775 87.943066 
L 434.599163 88.793472 
L 434.995857 88.84955 
L 435.789246 87.473927 
L 436.18594 88.232567 
L 436.979329 88.356777 
L 437.772717 88.006187 
L 438.566105 88.561596 
L 438.9628 88.633064 
L 439.359494 88.430032 
L 439.756188 88.728821 
L 440.152882 89.343416 
L 440.946271 88.135202 
L 441.342965 87.819252 
L 441.739659 87.884952 
L 442.136353 88.9235 
L 442.533048 88.868437 
L 442.929742 88.269118 
L 443.326436 87.888836 
L 443.72313 88.320423 
L 444.119824 88.370878 
L 444.516519 87.885162 
L 444.913213 88.121538 
L 445.309907 88.980371 
L 445.706601 88.489203 
L 446.103295 87.7162 
L 446.49999 88.052839 
L 446.896684 89.242267 
L 447.293378 88.213075 
L 447.690072 88.351279 
L 448.086767 87.633219 
L 448.483461 87.747644 
L 448.880155 88.717483 
L 449.276849 88.898839 
L 449.673543 88.891297 
L 450.070238 88.413159 
L 450.466932 89.042185 
L 451.26032 88.614902 
L 451.657014 88.447197 
L 452.053709 89.037032 
L 452.450403 88.551325 
L 453.640486 88.381652 
L 454.433874 88.105275 
L 454.830568 87.775906 
L 455.623957 88.876163 
L 456.020651 88.69331 
L 456.814039 88.613089 
L 457.210733 88.693099 
L 457.607428 88.555818 
L 458.400816 88.786009 
L 458.79751 88.738419 
L 459.194205 88.448212 
L 459.987593 87.233639 
L 460.384287 88.888856 
L 460.780981 89.099728 
L 461.177676 88.400622 
L 461.57437 88.728239 
L 461.971064 88.338805 
L 462.367758 88.397853 
L 462.764452 87.65222 
L 463.161147 88.200021 
L 463.557841 87.390522 
L 463.557841 87.390522 
" clip-path="url(#pc7be5b4579)" style="fill: none; stroke: #ff7f0e; stroke-width: 2; stroke-linecap: square"/>
   </g>
   <g id="line2d_18">
    <path d="M 57.739659 339.838125 
L 66.070238 339.838125 
L 66.466932 337.404891 
L 66.863626 337.1247 
L 67.26032 339.838125 
L 68.450403 339.838125 
L 69.243791 336.41685 
L 69.640486 339.838125 
L 70.03718 338.466666 
L 70.433874 334.809441 
L 70.830568 334.809441 
L 71.227262 335.826976 
L 71.623957 339.838125 
L 72.020651 339.056541 
L 72.417345 335.473051 
L 72.814039 339.838125 
L 73.210733 339.838125 
L 73.607428 339.528441 
L 74.004122 335.001151 
L 74.400816 339.838125 
L 75.590899 339.838125 
L 75.987593 335.207607 
L 76.384287 339.321984 
L 76.780981 335.443557 
L 77.177676 339.086034 
L 77.57437 339.838125 
L 77.971064 335.797482 
L 78.367758 334.809441 
L 79.557841 334.809441 
L 79.954535 338.26021 
L 80.351229 339.838125 
L 80.747924 339.838125 
L 81.144618 336.741282 
L 81.541312 334.809441 
L 82.3347 334.809441 
L 82.731395 337.434385 
L 83.524783 337.198435 
L 83.921477 339.838125 
L 84.318171 339.838125 
L 84.714866 337.803057 
L 85.11156 334.809441 
L 85.904948 338.156981 
L 86.301643 333.246273 
L 86.698337 332.671145 
L 87.095031 337.183688 
L 87.491725 330.990001 
L 87.888419 334.809441 
L 88.285114 335.782735 
L 88.681808 339.838125 
L 89.078502 338.363438 
L 89.475196 329.780758 
L 89.87189 330.282151 
L 90.268585 334.809441 
L 90.665279 334.543998 
L 91.061973 330.075695 
L 91.458667 339.749644 
L 91.855362 325.017517 
L 92.252056 334.396529 
L 92.64875 334.809441 
L 93.045444 330.223164 
L 93.838833 339.159769 
L 94.235527 339.838125 
L 94.632221 339.838125 
L 95.028915 335.841722 
L 95.42561 338.687869 
L 95.822304 324.796314 
L 96.218998 334.293301 
L 96.615692 332.78912 
L 97.012386 333.187285 
L 97.409081 338.097994 
L 97.805775 339.838125 
L 98.202469 339.838125 
L 98.599163 331.034242 
L 98.995857 330.385379 
L 99.392552 329.412086 
L 99.789246 329.913479 
L 100.18594 337.272169 
L 100.582634 337.493372 
L 100.979329 332.582663 
L 101.376023 329.780758 
L 102.169411 337.965272 
L 102.566105 334.809441 
L 103.359494 334.809441 
L 103.756188 333.408488 
L 104.152882 329.780758 
L 104.946271 329.780758 
L 105.342965 330.709811 
L 106.136353 339.838125 
L 106.533048 339.838125 
L 106.929742 339.380972 
L 107.326436 334.131085 
L 107.72313 325.415683 
L 108.119824 339.838125 
L 108.913213 339.838125 
L 109.309907 330.282151 
L 109.706601 329.780758 
L 110.103295 338.864831 
L 110.49999 339.838125 
L 110.896684 335.532038 
L 111.293378 334.809441 
L 111.690072 330.739304 
L 112.086767 337.685082 
L 112.483461 332.169751 
L 112.880155 329.780758 
L 113.276849 333.378995 
L 113.673543 334.809441 
L 114.466932 334.809441 
L 114.863626 331.683104 
L 115.657014 339.838125 
L 116.053709 334.293301 
L 116.450403 332.435195 
L 117.243791 337.227928 
L 117.640486 335.237101 
L 118.03718 329.780758 
L 118.433874 331.84532 
L 118.830568 332.862854 
L 119.227262 327.952145 
L 119.623957 328.173348 
L 120.020651 334.809441 
L 120.814039 325.150239 
L 121.210733 337.36065 
L 121.607428 332.022282 
L 122.004122 338.835338 
L 122.79751 329.780758 
L 123.194205 331.078482 
L 123.590899 339.838125 
L 123.987593 339.425213 
L 124.780981 329.95772 
L 125.177676 334.750454 
L 125.57437 329.839745 
L 125.971064 339.4842 
L 126.367758 335.104379 
L 126.764452 334.809441 
L 127.954535 320.490227 
L 128.351229 328.011133 
L 128.747924 321.728965 
L 129.144618 331.447154 
L 129.541312 331.019495 
L 129.938006 326.108786 
L 130.3347 328.30607 
L 131.128089 338.127488 
L 131.524783 339.838125 
L 131.921477 327.509739 
L 132.318171 325.651633 
L 132.714866 335.473051 
L 133.11156 339.838125 
L 133.508254 332.007535 
L 133.904948 327.244295 
L 134.301643 327.406511 
L 134.698337 324.752074 
L 135.491725 324.752074 
L 135.888419 330.459114 
L 136.285114 332.700638 
L 136.681808 326.388977 
L 137.078502 338.289703 
L 138.268585 324.752074 
L 138.665279 324.752074 
L 139.061973 325.710621 
L 139.855362 334.809441 
L 140.252056 331.786332 
L 140.64875 310.639316 
L 141.045444 320.829406 
L 141.442138 334.308048 
L 141.838833 324.752074 
L 142.632221 324.752074 
L 143.028915 329.559554 
L 143.42561 329.780758 
L 143.822304 316.066165 
L 144.218998 323.601818 
L 144.615692 320.416493 
L 145.012386 332.376207 
L 145.409081 330.709811 
L 145.805775 321.817446 
L 146.202469 319.72339 
L 146.599163 323.469096 
L 146.995857 324.752074 
L 147.392552 324.752074 
L 147.789246 328.143855 
L 148.18594 329.780758 
L 148.582634 314.001603 
L 148.979329 316.788762 
L 149.376023 321.832193 
L 149.772717 330.931014 
L 150.169411 331.786332 
L 150.9628 314.827428 
L 151.756188 323.144665 
L 152.152882 320.976874 
L 152.549576 319.900353 
L 152.946271 308.353551 
L 153.739659 322.967702 
L 154.136353 325.268214 
L 154.533048 316.080912 
L 154.929742 319.72339 
L 155.326436 320.873646 
L 155.72313 322.687512 
L 156.516519 305.43367 
L 156.913213 308.987666 
L 158.103295 294.904403 
L 158.49999 300.021568 
L 158.896684 309.666023 
L 159.293378 309.666023 
L 159.690072 295.022378 
L 160.086767 308.869691 
L 160.483461 309.666023 
L 160.880155 287.029572 
L 161.276849 288.931919 
L 161.673543 302.425308 
L 162.070238 267.077053 
L 162.466932 303.988476 
L 162.863626 291.070216 
L 163.26032 295.980924 
L 163.657014 281.101329 
L 164.053709 281.632217 
L 164.450403 294.919149 
L 164.847097 292.913575 
L 165.243791 296.010418 
L 166.03718 271.471621 
L 166.433874 289.566034 
L 166.830568 277.060686 
L 167.227262 275.468024 
L 167.623957 266.841103 
L 168.020651 268.109334 
L 168.417345 283.608298 
L 168.814039 279.582401 
L 169.210733 283.210132 
L 169.607428 267.106547 
L 170.004122 266.796862 
L 170.400816 249.380805 
L 170.79751 259.379185 
L 171.194205 256.459304 
L 171.590899 252.005749 
L 171.987593 264.275147 
L 172.384287 281.705951 
L 173.177676 304.445629 
L 173.57437 280.998101 
L 173.971064 287.648941 
L 174.367758 278.07822 
L 174.764452 305.286201 
L 175.161147 254.630692 
L 175.557841 260.839126 
L 175.954535 304.593098 
L 176.351229 299.682389 
L 176.747924 265.749834 
L 177.144618 306.878864 
L 177.541312 286.6609 
L 177.938006 293.488703 
L 178.3347 303.31012 
L 178.731395 296.14314 
L 179.128089 282.192598 
L 179.524783 291.527369 
L 179.921477 310.152669 
L 180.318171 310.919507 
L 180.714866 302.351573 
L 181.11156 299.608655 
L 181.508254 316.715028 
L 181.904948 295.022378 
L 182.301643 289.049894 
L 182.698337 288.445272 
L 183.095031 281.573229 
L 183.491725 285.156719 
L 183.888419 305.831836 
L 184.285114 298.959793 
L 184.681808 281.971395 
L 185.078502 291.601103 
L 185.475196 295.125606 
L 185.87189 302.292586 
L 186.268585 315.712241 
L 186.665279 311.553622 
L 187.061973 314.694706 
L 187.458667 314.694706 
L 187.855362 311.627357 
L 188.252056 307.468738 
L 188.64875 315.992431 
L 189.045444 319.72339 
L 189.442138 319.72339 
L 189.838833 320.66719 
L 190.235527 322.274599 
L 190.632221 311.789572 
L 191.028915 324.752074 
L 191.42561 324.280174 
L 191.822304 319.72339 
L 192.218998 320.19529 
L 193.012386 339.838125 
L 193.409081 325.105999 
L 193.805775 315.166606 
L 194.202469 324.044224 
L 194.599163 324.752074 
L 194.995857 324.752074 
L 195.392552 316.110406 
L 195.789246 314.694706 
L 196.18594 326.949358 
L 196.582634 317.880031 
L 196.979329 314.694706 
L 197.376023 322.156624 
L 197.772717 313.913122 
L 198.169411 316.65604 
L 198.566105 333.231526 
L 198.9628 330.060948 
L 199.359494 321.61099 
L 199.756188 322.746499 
L 200.152882 327.657208 
L 200.549576 321.41928 
L 200.946271 312.025522 
L 201.342965 319.870859 
L 201.739659 322.481055 
L 202.136353 319.325224 
L 202.533048 324.752074 
L 202.929742 322.672765 
L 203.326436 323.646058 
L 203.72313 324.25068 
L 204.119824 319.870859 
L 204.516519 328.173348 
L 204.913213 329.220376 
L 205.309907 338.466666 
L 205.706601 331.048989 
L 206.103295 318.587881 
L 206.49999 312.659638 
L 206.896684 309.135135 
L 207.293378 325.872836 
L 207.690072 307.291776 
L 208.086767 324.206439 
L 208.483461 319.72339 
L 208.880155 319.72339 
L 209.276849 319.915099 
L 209.673543 324.235933 
L 210.070238 289.860972 
L 210.466932 289.551288 
L 210.863626 299.048274 
L 211.26032 318.130728 
L 211.657014 319.72339 
L 212.053709 319.72339 
L 212.450403 328.276576 
L 212.847097 313.146285 
L 213.243791 313.706666 
L 213.640486 314.694706 
L 214.433874 314.694706 
L 214.830568 311.125963 
L 215.227262 316.567559 
L 215.623957 326.388977 
L 216.020651 310.491847 
L 216.417345 315.092872 
L 216.814039 315.815469 
L 217.210733 315.387809 
L 217.607428 314.237553 
L 218.004122 312.290966 
L 218.400816 322.215612 
L 218.79751 327.391764 
L 219.590899 312.541663 
L 219.987593 313.73616 
L 220.384287 323.557577 
L 220.780981 329.780758 
L 221.177676 324.737327 
L 221.57437 313.131538 
L 221.971064 315.446797 
L 222.367758 328.453539 
L 222.764452 327.170561 
L 223.161147 330.444367 
L 223.557841 317.614587 
L 223.954535 328.925439 
L 224.351229 326.226761 
L 224.747924 334.809441 
L 225.144618 333.30526 
L 225.541312 320.490227 
L 225.938006 329.515314 
L 226.3347 324.752074 
L 226.731395 324.693086 
L 227.128089 314.871669 
L 227.524783 324.339161 
L 227.921477 315.343569 
L 228.318171 323.867261 
L 228.714866 324.752074 
L 229.11156 320.401746 
L 229.508254 302.79398 
L 229.904948 307.83741 
L 230.301643 321.65523 
L 230.698337 328.630501 
L 231.095031 318.4994 
L 231.491725 314.694706 
L 231.888419 314.694706 
L 232.285114 321.507762 
L 232.681808 321.463521 
L 233.078502 326.064545 
L 233.475196 305.359936 
L 233.87189 307.159054 
L 234.665279 315.43205 
L 235.061973 322.171371 
L 235.458667 317.260662 
L 235.855362 317.039459 
L 236.252056 321.950168 
L 236.64875 322.643271 
L 237.442138 301.481508 
L 238.235527 323.115171 
L 238.632221 321.242318 
L 239.028915 324.752074 
L 239.42561 322.186118 
L 239.822304 317.024712 
L 240.218998 326.84613 
L 240.615692 333.880388 
L 241.012386 325.725367 
L 241.409081 306.716648 
L 241.805775 320.298518 
L 242.202469 324.294921 
L 242.599163 319.045034 
L 242.995857 309.444819 
L 243.392552 304.637339 
L 243.789246 304.637339 
L 244.18594 289.949453 
L 244.582634 313.441222 
L 244.979329 324.01473 
L 245.376023 297.499852 
L 246.169411 318.278196 
L 246.566105 319.72339 
L 246.9628 327.863664 
L 247.359494 329.780758 
L 248.152882 316.007178 
L 248.549576 318.292943 
L 248.946271 330.164176 
L 249.342965 321.360293 
L 249.739659 321.18333 
L 250.136353 321.625737 
L 250.533048 322.731752 
L 250.929742 321.861687 
L 251.326436 322.495802 
L 251.72313 322.097637 
L 252.119824 319.72339 
L 252.913213 306.937851 
L 253.309907 309.666023 
L 254.103295 322.805487 
L 254.49999 319.72339 
L 255.293378 323.159411 
L 256.086767 314.694706 
L 256.483461 317.172181 
L 256.880155 323.631311 
L 257.276849 320.726177 
L 257.673543 325.636886 
L 258.070238 327.480245 
L 258.466932 314.045844 
L 258.863626 309.666023 
L 259.26032 310.90476 
L 259.657014 324.162199 
L 260.053709 313.809894 
L 260.450403 289.905213 
L 260.847097 319.369465 
L 261.243791 300.316505 
L 261.640486 323.277386 
L 262.03718 315.520531 
L 262.433874 328.188095 
L 263.227262 296.880484 
L 263.623957 294.579971 
L 264.020651 310.683557 
L 264.417345 306.878864 
L 264.814039 308.427285 
L 265.210733 328.02588 
L 265.607428 309.931466 
L 266.004122 320.224784 
L 266.400816 323.144665 
L 266.79751 294.122818 
L 267.194205 288.74021 
L 267.590899 279.759364 
L 267.987593 289.359578 
L 268.384287 288.26831 
L 268.780981 284.906023 
L 269.57437 309.105641 
L 269.971064 308.442032 
L 270.367758 294.579971 
L 270.764452 300.640936 
L 271.161147 296.349596 
L 271.557841 276.249608 
L 272.351229 300.375492 
L 272.747924 282.354813 
L 273.144618 281.676457 
L 273.541312 261.768179 
L 274.3347 288.828691 
L 274.731395 267.770156 
L 275.524783 303.428095 
L 275.921477 292.146737 
L 276.318171 270.91124 
L 276.714866 288.297803 
L 277.11156 265.469644 
L 277.508254 304.548858 
L 277.904948 275.084605 
L 278.301643 293.695159 
L 278.698337 275.821949 
L 279.095031 269.893706 
L 279.491725 251.62233 
L 279.888419 275.335302 
L 280.285114 271.058709 
L 280.681808 273.536183 
L 281.078502 246.593646 
L 281.475196 277.901258 
L 281.87189 252.09423 
L 282.268585 271.914027 
L 282.665279 249.425046 
L 283.061973 268.153575 
L 283.458667 258.332157 
L 283.855362 253.760626 
L 284.252056 225.962771 
L 284.64875 224.50283 
L 285.045444 264.481603 
L 285.442138 284.522604 
L 286.235527 244.160412 
L 286.632221 260.971847 
L 287.028915 256.768989 
L 287.42561 261.458494 
L 287.822304 289.72825 
L 288.218998 278.181448 
L 288.615692 286.262735 
L 289.012386 274.951883 
L 289.409081 247.301496 
L 289.805775 255.736707 
L 290.202469 260.647416 
L 290.599163 267.858637 
L 290.995857 282.590763 
L 291.392552 290.008441 
L 291.789246 271.825546 
L 292.18594 281.809179 
L 292.582634 266.089012 
L 293.376023 297.662068 
L 293.772717 270.055921 
L 294.169411 284.611085 
L 294.566105 289.521794 
L 294.9628 274.907643 
L 295.359494 264.938756 
L 295.756188 273.698399 
L 296.152882 315.210847 
L 296.549576 310.90476 
L 296.946271 279.626642 
L 297.342965 278.638601 
L 297.739659 299.770871 
L 298.136353 292.825093 
L 298.533048 293.370728 
L 299.326436 267.298256 
L 299.72313 274.804414 
L 300.119824 279.49392 
L 300.516519 292.412181 
L 301.309907 305.595886 
L 301.706601 303.914742 
L 302.103295 296.85099 
L 302.896684 314.694706 
L 303.690072 314.694706 
L 304.086767 316.862497 
L 304.483461 315.623759 
L 304.880155 301.938661 
L 305.276849 302.248345 
L 305.673543 319.664403 
L 306.070238 309.666023 
L 306.466932 311.125963 
L 307.26032 329.913479 
L 307.657014 314.694706 
L 308.053709 316.670787 
L 308.450403 321.271812 
L 308.847097 304.637339 
L 309.243791 305.90557 
L 309.640486 313.662425 
L 310.03718 306.230001 
L 310.433874 323.351121 
L 310.830568 299.284224 
L 311.227262 289.772491 
L 311.623957 314.326034 
L 312.417345 324.442389 
L 312.814039 310.949001 
L 313.210733 327.59822 
L 313.607428 312.32046 
L 314.004122 305.418923 
L 314.400816 308.766463 
L 314.79751 313.677172 
L 315.194205 314.694706 
L 315.590899 295.818709 
L 315.987593 304.180186 
L 316.384287 302.587523 
L 316.780981 292.766106 
L 317.57437 321.065355 
L 317.971064 287.943878 
L 318.367758 290.952241 
L 318.764452 309.666023 
L 319.161147 309.666023 
L 319.557841 299.284224 
L 319.954535 301.938661 
L 320.351229 317.054206 
L 320.747924 317.481865 
L 321.144618 314.694706 
L 321.541312 310.683557 
L 322.3347 305.846582 
L 322.731395 296.157887 
L 323.128089 308.132348 
L 323.524783 300.390239 
L 323.921477 296.039912 
L 324.318171 315.874456 
L 324.714866 316.538065 
L 325.508254 283.623045 
L 325.904948 306.760889 
L 326.301643 314.414516 
L 326.698337 273.993336 
L 327.095031 272.621877 
L 327.491725 313.986856 
L 327.888419 299.96258 
L 328.285114 314.694706 
L 328.681808 280.319745 
L 329.078502 308.250323 
L 329.475196 304.991264 
L 329.87189 322.864474 
L 330.268585 311.435647 
L 330.665279 318.30769 
L 331.061973 319.72339 
L 331.458667 299.298971 
L 331.855362 286.646154 
L 332.252056 303.767273 
L 332.64875 283.54931 
L 333.045444 292.530156 
L 333.442138 320.578709 
L 333.838833 296.010418 
L 334.235527 295.789215 
L 334.632221 317.201675 
L 335.028915 315.682747 
L 335.42561 300.950621 
L 335.822304 311.302925 
L 336.218998 314.075338 
L 336.615692 312.290966 
L 337.012386 309.990454 
L 337.409081 306.554432 
L 337.805775 310.300138 
L 338.202469 302.55803 
L 338.599163 305.492657 
L 338.995857 303.634551 
L 339.392552 287.973372 
L 340.18594 323.26264 
L 340.582634 311.494635 
L 340.979329 294.565224 
L 341.376023 307.395004 
L 341.772717 303.678792 
L 342.169411 315.225594 
L 342.566105 297.706308 
L 342.9628 314.694706 
L 343.359494 312.512169 
L 343.756188 294.579971 
L 344.152882 295.818709 
L 344.549576 314.502997 
L 344.946271 309.444819 
L 345.342965 294.712693 
L 345.739659 299.446439 
L 346.136353 294.860162 
L 346.533048 303.841008 
L 346.929742 309.149882 
L 347.326436 292.08775 
L 347.72313 293.827881 
L 348.119824 298.73859 
L 348.516519 307.689942 
L 349.309907 273.108524 
L 349.706601 302.617017 
L 350.103295 318.26345 
L 350.49999 316.272622 
L 350.896684 311.361913 
L 351.293378 322.525296 
L 351.690072 311.199697 
L 352.483461 301.083342 
L 352.880155 297.32289 
L 353.276849 302.233598 
L 353.673543 309.651276 
L 354.070238 312.305713 
L 354.466932 305.123986 
L 355.26032 298.532133 
L 355.657014 287.634194 
L 356.053709 291.719078 
L 356.450403 301.275052 
L 356.847097 297.706308 
L 357.640486 318.396171 
L 358.03718 307.439245 
L 358.433874 291.070216 
L 358.830568 310.801532 
L 359.227262 298.001246 
L 359.623957 314.694706 
L 360.020651 309.739757 
L 360.417345 279.479173 
L 360.814039 323.985236 
L 361.210733 313.102044 
L 361.607428 285.407416 
L 362.004122 314.665213 
L 362.400816 309.754504 
L 362.79751 300.021568 
L 363.194205 280.791645 
L 363.590899 320.770418 
L 363.987593 284.537351 
L 364.384287 296.89523 
L 364.780981 320.770418 
L 365.177676 312.408941 
L 365.57437 285.687607 
L 365.971064 295.007631 
L 366.367758 307.12956 
L 366.764452 313.3085 
L 367.161147 297.072193 
L 367.557841 299.770871 
L 367.954535 301.348786 
L 368.351229 299.608655 
L 368.747924 299.608655 
L 369.144618 287.870144 
L 369.541312 285.127226 
L 369.938006 286.85261 
L 370.3347 287.103307 
L 370.731395 304.327654 
L 371.128089 310.344379 
L 371.524783 295.155099 
L 372.318171 278.55012 
L 372.714866 284.419376 
L 373.11156 302.646511 
L 373.508254 292.825093 
L 373.904948 293.532943 
L 374.301643 293.50345 
L 374.698337 320.799912 
L 375.095031 288.754956 
L 375.491725 278.859805 
L 375.888419 310.049441 
L 376.285114 288.74021 
L 376.681808 284.522604 
L 377.078502 285.097732 
L 377.475196 290.922747 
L 377.87189 302.941448 
L 378.268585 279.936326 
L 378.665279 289.344831 
L 379.061973 279.523414 
L 379.458667 299.077768 
L 379.855362 299.608655 
L 380.252056 280.968607 
L 380.64875 306.746142 
L 381.045444 261.001341 
L 381.442138 284.49311 
L 381.838833 281.175064 
L 382.235527 303.914742 
L 382.632221 282.000889 
L 383.028915 285.967797 
L 383.42561 282.118864 
L 383.822304 272.297446 
L 384.218998 272.916815 
L 384.615692 277.827523 
L 385.012386 269.760984 
L 385.409081 298.797577 
L 385.805775 301.673217 
L 386.995857 259.659376 
L 387.392552 266.944331 
L 387.789246 267.018065 
L 388.18594 252.905308 
L 388.582634 250.177136 
L 388.979329 256.14962 
L 389.376023 257.919245 
L 389.772717 284.979757 
L 390.169411 280.894873 
L 390.566105 263.906475 
L 390.9628 284.522604 
L 391.359494 280.452467 
L 391.756188 266.959078 
L 392.152882 260.499947 
L 392.549576 264.407869 
L 392.946271 260.868619 
L 393.342965 248.894158 
L 393.739659 265.381162 
L 394.136353 209.903426 
L 394.533048 258.140448 
L 394.929742 244.293134 
L 395.326436 243.939209 
L 395.72313 234.235766 
L 396.119824 234.235766 
L 396.516519 209.97716 
L 396.913213 270.631049 
L 397.309907 269.849465 
L 397.706601 228.956386 
L 398.103295 224.178399 
L 398.896684 251.696064 
L 399.293378 266.42819 
L 399.690072 249.896946 
L 400.086767 274.612705 
L 400.483461 273.50669 
L 400.880155 255.220567 
L 401.276849 211.525582 
L 401.673543 237.1409 
L 402.070238 275.379542 
L 402.863626 252.285939 
L 403.26032 277.119674 
L 403.657014 280.939114 
L 404.053709 258.995766 
L 404.450403 256.798482 
L 404.847097 266.782115 
L 405.640486 279.49392 
L 406.03718 269.392312 
L 406.433874 267.666928 
L 406.830568 294.904403 
L 407.227262 302.970942 
L 407.623957 299.608655 
L 408.020651 298.178208 
L 408.417345 290.642556 
L 408.814039 286.6609 
L 409.210733 304.283414 
L 409.607428 287.398244 
L 410.004122 298.768083 
L 410.400816 290.244391 
L 410.79751 264.407869 
L 411.194205 269.760984 
L 411.590899 316.036672 
L 411.987593 270.43934 
L 412.384287 289.551288 
L 412.780981 289.536541 
L 413.177676 284.625832 
L 413.57437 298.945046 
L 413.971064 308.987666 
L 414.367758 282.236838 
L 414.764452 306.215254 
L 415.161147 287.988119 
L 415.557841 309.828238 
L 415.954535 298.296183 
L 416.351229 290.598316 
L 416.747924 289.551288 
L 417.144618 293.296993 
L 417.541312 290.952241 
L 417.938006 307.100067 
L 418.3347 301.127583 
L 418.731395 301.127583 
L 419.128089 301.481508 
L 419.524783 290.495087 
L 419.921477 296.202127 
L 420.318171 293.429715 
L 420.714866 284.522604 
L 421.11156 292.220472 
L 421.508254 289.816731 
L 421.904948 284.153932 
L 422.301643 285.127226 
L 422.698337 289.9642 
L 423.095031 304.637339 
L 423.491725 302.779233 
L 423.888419 294.388262 
L 424.285114 291.011228 
L 424.681808 303.133158 
L 425.078502 302.381067 
L 425.475196 309.666023 
L 425.87189 306.215254 
L 426.268585 294.579971 
L 426.665279 296.408584 
L 427.061973 302.248345 
L 427.458667 290.908 
L 427.855362 299.048274 
L 428.252056 296.349596 
L 428.64875 312.423688 
L 429.045444 280.319745 
L 429.442138 299.785618 
L 429.838833 309.607035 
L 430.235527 304.784808 
L 430.632221 314.163819 
L 431.028915 286.823116 
L 431.42561 302.631764 
L 431.822304 309.046654 
L 432.218998 301.083342 
L 432.615692 303.78202 
L 433.012386 300.581949 
L 433.409081 291.733825 
L 434.202469 294.579971 
L 434.599163 290.996481 
L 434.995857 279.154742 
L 435.392552 294.550478 
L 435.789246 304.637339 
L 436.18594 301.525749 
L 436.582634 302.60227 
L 437.376023 284.522604 
L 437.772717 289.801984 
L 438.169411 297.101687 
L 438.566105 292.397434 
L 438.9628 295.951431 
L 439.359494 307.498232 
L 439.756188 302.587523 
L 440.152882 305.404176 
L 440.549576 305.625379 
L 440.946271 296.334849 
L 441.342965 309.666023 
L 441.739659 300.90638 
L 442.136353 283.519816 
L 442.533048 293.355981 
L 442.929742 290.657303 
L 443.326436 289.639769 
L 443.72313 275.527011 
L 444.119824 300.876886 
L 444.516519 283.298613 
L 444.913213 306.569179 
L 445.309907 279.095755 
L 445.706601 274.745427 
L 446.103295 279.49392 
L 446.49999 279.759364 
L 446.896684 309.223616 
L 447.293378 295.155099 
L 447.690072 285.141973 
L 448.086767 256.916457 
L 448.483461 285.731847 
L 448.880155 302.646511 
L 449.276849 300.390239 
L 449.673543 303.73778 
L 450.070238 276.559292 
L 450.466932 281.116076 
L 450.863626 261.871407 
L 451.26032 276.293849 
L 451.657014 302.218852 
L 452.053709 285.717101 
L 452.450403 290.981734 
L 452.847097 280.496707 
L 453.640486 309.666023 
L 454.03718 295.509024 
L 454.433874 289.949453 
L 454.830568 299.770871 
L 455.227262 302.159864 
L 455.623957 287.811157 
L 456.020651 283.431335 
L 456.417345 290.332872 
L 456.814039 276.500305 
L 457.210733 283.283866 
L 457.607428 305.846582 
L 458.004122 297.809537 
L 458.400816 303.958983 
L 458.79751 283.74102 
L 459.194205 294.579971 
L 459.590899 294.579971 
L 459.987593 288.209322 
L 460.384287 270.070668 
L 460.780981 291.276672 
L 461.177676 275.880936 
L 461.57437 284.522604 
L 461.971064 284.994504 
L 462.764452 295.287821 
L 463.161147 309.666023 
L 463.557841 309.666023 
L 463.557841 309.666023 
" clip-path="url(#pc7be5b4579)" style="fill: none; stroke: #2ca02c; stroke-width: 2; stroke-linecap: square"/>
   </g>
   <g id="line2d_19">
    <path d="M 57.739659 339.838125 
L 138.665279 339.736826 
L 142.235527 339.512578 
L 144.615692 339.180781 
L 146.599163 338.712292 
L 148.582634 337.991315 
L 150.169411 337.177909 
L 151.756188 336.110256 
L 153.342965 334.755742 
L 154.929742 333.096742 
L 156.516519 331.138207 
L 158.49999 328.324084 
L 162.070238 322.721656 
L 164.450403 319.201743 
L 166.03718 317.250431 
L 167.227262 316.098256 
L 168.417345 315.269454 
L 169.210733 314.915504 
L 170.004122 314.729264 
L 170.79751 314.714548 
L 171.590899 314.871674 
L 172.384287 315.197448 
L 173.57437 315.98702 
L 174.764452 317.105129 
L 175.954535 318.503061 
L 177.541312 320.701391 
L 180.318171 325.027952 
L 183.491725 329.868463 
L 185.475196 332.475412 
L 187.061973 334.23674 
L 188.64875 335.692373 
L 190.235527 336.853107 
L 191.822304 337.747336 
L 193.409081 338.413298 
L 195.392552 338.98873 
L 197.772717 339.406669 
L 200.549576 339.65709 
L 204.913213 339.79914 
L 215.623957 339.837751 
L 251.326436 339.739058 
L 254.896684 339.51865 
L 257.276849 339.192768 
L 259.26032 338.732107 
L 261.243791 338.021651 
L 262.830568 337.217752 
L 264.417345 336.160986 
L 266.004122 334.818318 
L 267.590899 333.171455 
L 269.177676 331.224434 
L 271.161147 328.422132 
L 274.731395 322.825444 
L 277.11156 319.289512 
L 278.698337 317.320166 
L 279.888419 316.151723 
L 281.078502 315.304542 
L 282.268585 314.816398 
L 283.061973 314.702069 
L 283.855362 314.759833 
L 284.64875 314.988493 
L 285.838833 315.640775 
L 287.028915 316.636785 
L 288.218998 317.932554 
L 289.805775 320.029919 
L 292.18594 323.660539 
L 296.152882 329.775841 
L 298.136353 332.396253 
L 299.72313 334.169602 
L 301.309907 335.637283 
L 302.896684 336.809325 
L 304.483461 337.713613 
L 306.070238 338.388394 
L 308.053709 338.973202 
L 310.433874 339.398532 
L 313.210733 339.653344 
L 317.57437 339.798148 
L 328.285114 339.837741 
L 363.987593 339.741442 
L 367.557841 339.525132 
L 370.3347 339.129647 
L 372.318171 338.632246 
L 373.904948 338.048987 
L 375.491725 337.255555 
L 377.078502 336.211176 
L 378.665279 334.882225 
L 380.252056 333.24791 
L 381.838833 331.312207 
L 383.822304 328.521155 
L 386.995857 323.555985 
L 389.376023 319.936175 
L 390.9628 317.853272 
L 392.152882 316.571862 
L 393.342965 315.592757 
L 394.533048 314.959334 
L 395.326436 314.743979 
L 396.119824 314.700363 
L 396.913213 314.830453 
L 397.706601 315.129961 
L 398.896684 315.882584 
L 400.086767 316.967915 
L 401.276849 318.338372 
L 402.863626 320.508339 
L 405.640486 324.817441 
L 408.814039 329.680906 
L 410.79751 332.316428 
L 412.384287 334.103692 
L 413.971064 335.583905 
L 415.557841 336.767082 
L 417.144618 337.681182 
L 418.731395 338.364231 
L 420.714866 338.957158 
L 423.095031 339.389294 
L 425.87189 339.649195 
L 430.235527 339.797235 
L 440.549576 339.837641 
L 463.557841 339.838125 
L 463.557841 339.838125 
" clip-path="url(#pc7be5b4579)" style="fill: none; stroke: #d62728; stroke-width: 2; stroke-linecap: square"/>
   </g>
   <g id="patch_3">
    <path d="M 37.44875 354.958125 
L 37.44875 22.318125 
" style="fill: none; stroke: #000000; stroke-width: 0.8; stroke-linejoin: miter; stroke-linecap: square"/>
   </g>
   <g id="patch_4">
    <path d="M 483.84875 354.958125 
L 483.84875 22.318125 
" style="fill: none; stroke: #000000; stroke-width: 0.8; stroke-linejoin: miter; stroke-linecap: square"/>
   </g>
   <g id="patch_5">
    <path d="M 37.44875 354.958125 
L 483.84875 354.958125 
" style="fill: none; stroke: #000000; stroke-width: 0.8; stroke-linejoin: miter; stroke-linecap: square"/>
   </g>
   <g id="patch_6">
    <path d="M 37.44875 22.318125 
L 483.84875 22.318125 
" style="fill: none; stroke: #000000; stroke-width: 0.8; stroke-linejoin: miter; stroke-linecap: square"/>
   </g>
   <g id="text_18">
    <!-- Collection of 4 signals -->
    <g transform="translate(194.775313 16.318125) scale(0.12 -0.12)">
     <defs>
      <path id="DejaVuSans-43" d="M 4122 4306 
L 4122 3641 
Q 3803 3938 3442 4084 
Q 3081 4231 2675 4231 
Q 1875 4231 1450 3742 
Q 1025 3253 1025 2328 
Q 1025 1406 1450 917 
Q 1875 428 2675 428 
Q 3081 428 3442 575 
Q 3803 722 4122 1019 
L 4122 359 
Q 3791 134 3420 21 
Q 3050 -91 2638 -91 
Q 1578 -91 968 557 
Q 359 1206 359 2328 
Q 359 3453 968 4101 
Q 1578 4750 2638 4750 
Q 3056 4750 3426 4639 
Q 3797 4528 4122 4306 
z
" transform="scale(0.015625)"/>
      <path id="DejaVuSans-6f" d="M 1959 3097 
Q 1497 3097 1228 2736 
Q 959 2375 959 1747 
Q 959 1119 1226 758 
Q 1494 397 1959 397 
Q 2419 397 2687 759 
Q 2956 1122 2956 1747 
Q 2956 2369 2687 2733 
Q 2419 3097 1959 3097 
z
M 1959 3584 
Q 2709 3584 3137 3096 
Q 3566 2609 3566 1747 
Q 3566 888 3137 398 
Q 2709 -91 1959 -91 
Q 1206 -91 779 398 
Q 353 888 353 1747 
Q 353 2609 779 3096 
Q 1206 3584 1959 3584 
z
" transform="scale(0.015625)"/>
      <path id="DejaVuSans-6c" d="M 603 4863 
L 1178 4863 
L 1178 0 
L 603 0 
L 603 4863 
z
" transform="scale(0.015625)"/>
      <path id="DejaVuSans-63" d="M 3122 3366 
L 3122 2828 
Q 2878 2963 2633 3030 
Q 2388 3097 2138 3097 
Q 1578 3097 1268 2742 
Q 959 2388 959 1747 
Q 959 1106 1268 751 
Q 1578 397 2138 397 
Q 2388 397 2633 464 
Q 2878 531 3122 666 
L 3122 134 
Q 2881 22 2623 -34 
Q 2366 -91 2075 -91 
Q 1284 -91 818 406 
Q 353 903 353 1747 
Q 353 2603 823 3093 
Q 1294 3584 2113 3584 
Q 2378 3584 2631 3529 
Q 2884 3475 3122 3366 
z
" transform="scale(0.015625)"/>
      <path id="DejaVuSans-66" d="M 2375 4863 
L 2375 4384 
L 1825 4384 
Q 1516 4384 1395 4259 
Q 1275 4134 1275 3809 
L 1275 3500 
L 2222 3500 
L 2222 3053 
L 1275 3053 
L 1275 0 
L 697 0 
L 697 3053 
L 147 3053 
L 147 3500 
L 697 3500 
L 697 3744 
Q 697 4328 969 4595 
Q 1241 4863 1831 4863 
L 2375 4863 
z
" transform="scale(0.015625)"/>
      <path id="DejaVuSans-67" d="M 2906 1791 
Q 2906 2416 2648 2759 
Q 2391 3103 1925 3103 
Q 1463 3103 1205 2759 
Q 947 2416 947 1791 
Q 947 1169 1205 825 
Q 1463 481 1925 481 
Q 2391 481 2648 825 
Q 2906 1169 2906 1791 
z
M 3481 434 
Q 3481 -459 3084 -895 
Q 2688 -1331 1869 -1331 
Q 1566 -1331 1297 -1286 
Q 1028 -1241 775 -1147 
L 775 -588 
Q 1028 -725 1275 -790 
Q 1522 -856 1778 -856 
Q 2344 -856 2625 -561 
Q 2906 -266 2906 331 
L 2906 616 
Q 2728 306 2450 153 
Q 2172 0 1784 0 
Q 1141 0 747 490 
Q 353 981 353 1791 
Q 353 2603 747 3093 
Q 1141 3584 1784 3584 
Q 2172 3584 2450 3431 
Q 2728 3278 2906 2969 
L 2906 3500 
L 3481 3500 
L 3481 434 
z
" transform="scale(0.015625)"/>
     </defs>
     <use xlink:href="#DejaVuSans-43"/>
     <use xlink:href="#DejaVuSans-6f" transform="translate(69.824219 0)"/>
     <use xlink:href="#DejaVuSans-6c" transform="translate(131.005859 0)"/>
     <use xlink:href="#DejaVuSans-6c" transform="translate(158.789062 0)"/>
     <use xlink:href="#DejaVuSans-65" transform="translate(186.572266 0)"/>
     <use xlink:href="#DejaVuSans-63" transform="translate(248.095703 0)"/>
     <use xlink:href="#DejaVuSans-74" transform="translate(303.076172 0)"/>
     <use xlink:href="#DejaVuSans-69" transform="translate(342.285156 0)"/>
     <use xlink:href="#DejaVuSans-6f" transform="translate(370.068359 0)"/>
     <use xlink:href="#DejaVuSans-6e" transform="translate(431.25 0)"/>
     <use xlink:href="#DejaVuSans-20" transform="translate(494.628906 0)"/>
     <use xlink:href="#DejaVuSans-6f" transform="translate(526.416016 0)"/>
     <use xlink:href="#DejaVuSans-66" transform="translate(587.597656 0)"/>
     <use xlink:href="#DejaVuSans-20" transform="translate(622.802734 0)"/>
     <use xlink:href="#DejaVuSans-34" transform="translate(654.589844 0)"/>
     <use xlink:href="#DejaVuSans-20" transform="translate(718.212891 0)"/>
     <use xlink:href="#DejaVuSans-73" transform="translate(750 0)"/>
     <use xlink:href="#DejaVuSans-69" transform="translate(802.099609 0)"/>
     <use xlink:href="#DejaVuSans-67" transform="translate(829.882812 0)"/>
     <use xlink:href="#DejaVuSans-6e" transform="translate(893.359375 0)"/>
     <use xlink:href="#DejaVuSans-61" transform="translate(956.738281 0)"/>
     <use xlink:href="#DejaVuSans-6c" transform="translate(1018.017578 0)"/>
     <use xlink:href="#DejaVuSans-73" transform="translate(1045.800781 0)"/>
    </g>
   </g>
   <g id="legend_1">
    <g id="patch_7">
     <path d="M 45.84875 226.333125 
L 195.695 226.333125 
Q 198.095 226.333125 198.095 223.933125 
L 198.095 153.343125 
Q 198.095 150.943125 195.695 150.943125 
L 45.84875 150.943125 
Q 43.44875 150.943125 43.44875 153.343125 
L 43.44875 223.933125 
Q 43.44875 226.333125 45.84875 226.333125 
z
" style="fill: #ffffff; opacity: 0.8; stroke: #cccccc; stroke-linejoin: miter"/>
    </g>
    <g id="line2d_20">
     <path d="M 48.24875 160.66125 
L 60.24875 160.66125 
L 72.24875 160.66125 
" style="fill: none; stroke: #1f77b4; stroke-width: 2; stroke-linecap: square"/>
    </g>
    <g id="text_19">
     <!-- from_peaks -->
     <g transform="translate(81.84875 164.86125) scale(0.12 -0.12)">
      <defs>
       <path id="DejaVuSans-72" d="M 2631 2963 
Q 2534 3019 2420 3045 
Q 2306 3072 2169 3072 
Q 1681 3072 1420 2755 
Q 1159 2438 1159 1844 
L 1159 0 
L 581 0 
L 581 3500 
L 1159 3500 
L 1159 2956 
Q 1341 3275 1631 3429 
Q 1922 3584 2338 3584 
Q 2397 3584 2469 3576 
Q 2541 3569 2628 3553 
L 2631 2963 
z
" transform="scale(0.015625)"/>
       <path id="DejaVuSans-6d" d="M 3328 2828 
Q 3544 3216 3844 3400 
Q 4144 3584 4550 3584 
Q 5097 3584 5394 3201 
Q 5691 2819 5691 2113 
L 5691 0 
L 5113 0 
L 5113 2094 
Q 5113 2597 4934 2840 
Q 4756 3084 4391 3084 
Q 3944 3084 3684 2787 
Q 3425 2491 3425 1978 
L 3425 0 
L 2847 0 
L 2847 2094 
Q 2847 2600 2669 2842 
Q 2491 3084 2119 3084 
Q 1678 3084 1418 2786 
Q 1159 2488 1159 1978 
L 1159 0 
L 581 0 
L 581 3500 
L 1159 3500 
L 1159 2956 
Q 1356 3278 1631 3431 
Q 1906 3584 2284 3584 
Q 2666 3584 2933 3390 
Q 3200 3197 3328 2828 
z
" transform="scale(0.015625)"/>
       <path id="DejaVuSans-5f" d="M 3263 -1063 
L 3263 -1509 
L -63 -1509 
L -63 -1063 
L 3263 -1063 
z
" transform="scale(0.015625)"/>
       <path id="DejaVuSans-70" d="M 1159 525 
L 1159 -1331 
L 581 -1331 
L 581 3500 
L 1159 3500 
L 1159 2969 
Q 1341 3281 1617 3432 
Q 1894 3584 2278 3584 
Q 2916 3584 3314 3078 
Q 3713 2572 3713 1747 
Q 3713 922 3314 415 
Q 2916 -91 2278 -91 
Q 1894 -91 1617 61 
Q 1341 213 1159 525 
z
M 3116 1747 
Q 3116 2381 2855 2742 
Q 2594 3103 2138 3103 
Q 1681 3103 1420 2742 
Q 1159 2381 1159 1747 
Q 1159 1113 1420 752 
Q 1681 391 2138 391 
Q 2594 391 2855 752 
Q 3116 1113 3116 1747 
z
" transform="scale(0.015625)"/>
       <path id="DejaVuSans-6b" d="M 581 4863 
L 1159 4863 
L 1159 1991 
L 2875 3500 
L 3609 3500 
L 1753 1863 
L 3688 0 
L 2938 0 
L 1159 1709 
L 1159 0 
L 581 0 
L 581 4863 
z
" transform="scale(0.015625)"/>
      </defs>
      <use xlink:href="#DejaVuSans-66"/>
      <use xlink:href="#DejaVuSans-72" transform="translate(35.205078 0)"/>
      <use xlink:href="#DejaVuSans-6f" transform="translate(74.068359 0)"/>
      <use xlink:href="#DejaVuSans-6d" transform="translate(135.25 0)"/>
      <use xlink:href="#DejaVuSans-5f" transform="translate(232.662109 0)"/>
      <use xlink:href="#DejaVuSans-70" transform="translate(282.662109 0)"/>
      <use xlink:href="#DejaVuSans-65" transform="translate(346.138672 0)"/>
      <use xlink:href="#DejaVuSans-61" transform="translate(407.662109 0)"/>
      <use xlink:href="#DejaVuSans-6b" transform="translate(468.941406 0)"/>
      <use xlink:href="#DejaVuSans-73" transform="translate(526.851562 0)"/>
     </g>
    </g>
    <g id="line2d_21">
     <path d="M 48.24875 178.60875 
L 60.24875 178.60875 
L 72.24875 178.60875 
" style="fill: none; stroke: #ff7f0e; stroke-width: 2; stroke-linecap: square"/>
    </g>
    <g id="text_20">
     <!-- from_peaks+noise -->
     <g transform="translate(81.84875 182.80875) scale(0.12 -0.12)">
      <defs>
       <path id="DejaVuSans-2b" d="M 2944 4013 
L 2944 2272 
L 4684 2272 
L 4684 1741 
L 2944 1741 
L 2944 0 
L 2419 0 
L 2419 1741 
L 678 1741 
L 678 2272 
L 2419 2272 
L 2419 4013 
L 2944 4013 
z
" transform="scale(0.015625)"/>
      </defs>
      <use xlink:href="#DejaVuSans-66"/>
      <use xlink:href="#DejaVuSans-72" transform="translate(35.205078 0)"/>
      <use xlink:href="#DejaVuSans-6f" transform="translate(74.068359 0)"/>
      <use xlink:href="#DejaVuSans-6d" transform="translate(135.25 0)"/>
      <use xlink:href="#DejaVuSans-5f" transform="translate(232.662109 0)"/>
      <use xlink:href="#DejaVuSans-70" transform="translate(282.662109 0)"/>
      <use xlink:href="#DejaVuSans-65" transform="translate(346.138672 0)"/>
      <use xlink:href="#DejaVuSans-61" transform="translate(407.662109 0)"/>
      <use xlink:href="#DejaVuSans-6b" transform="translate(468.941406 0)"/>
      <use xlink:href="#DejaVuSans-73" transform="translate(526.851562 0)"/>
      <use xlink:href="#DejaVuSans-2b" transform="translate(578.951172 0)"/>
      <use xlink:href="#DejaVuSans-6e" transform="translate(662.740234 0)"/>
      <use xlink:href="#DejaVuSans-6f" transform="translate(726.119141 0)"/>
      <use xlink:href="#DejaVuSans-69" transform="translate(787.300781 0)"/>
      <use xlink:href="#DejaVuSans-73" transform="translate(815.083984 0)"/>
      <use xlink:href="#DejaVuSans-65" transform="translate(867.183594 0)"/>
     </g>
    </g>
    <g id="line2d_22">
     <path d="M 48.24875 196.55625 
L 60.24875 196.55625 
L 72.24875 196.55625 
" style="fill: none; stroke: #2ca02c; stroke-width: 2; stroke-linecap: square"/>
    </g>
    <g id="text_21">
     <!-- from_peaks+noise -->
     <g transform="translate(81.84875 200.75625) scale(0.12 -0.12)">
      <use xlink:href="#DejaVuSans-66"/>
      <use xlink:href="#DejaVuSans-72" transform="translate(35.205078 0)"/>
      <use xlink:href="#DejaVuSans-6f" transform="translate(74.068359 0)"/>
      <use xlink:href="#DejaVuSans-6d" transform="translate(135.25 0)"/>
      <use xlink:href="#DejaVuSans-5f" transform="translate(232.662109 0)"/>
      <use xlink:href="#DejaVuSans-70" transform="translate(282.662109 0)"/>
      <use xlink:href="#DejaVuSans-65" transform="translate(346.138672 0)"/>
      <use xlink:href="#DejaVuSans-61" transform="translate(407.662109 0)"/>
      <use xlink:href="#DejaVuSans-6b" transform="translate(468.941406 0)"/>
      <use xlink:href="#DejaVuSans-73" transform="translate(526.851562 0)"/>
      <use xlink:href="#DejaVuSans-2b" transform="translate(578.951172 0)"/>
      <use xlink:href="#DejaVuSans-6e" transform="translate(662.740234 0)"/>
      <use xlink:href="#DejaVuSans-6f" transform="translate(726.119141 0)"/>
      <use xlink:href="#DejaVuSans-69" transform="translate(787.300781 0)"/>
      <use xlink:href="#DejaVuSans-73" transform="translate(815.083984 0)"/>
      <use xlink:href="#DejaVuSans-65" transform="translate(867.183594 0)"/>
     </g>
    </g>
    <g id="line2d_23">
     <path d="M 48.24875 214.50375 
L 60.24875 214.50375 
L 72.24875 214.50375 
" style="fill: none; stroke: #d62728; stroke-width: 2; stroke-linecap: square"/>
    </g>
    <g id="text_22">
     <!-- from_peaks -->
     <g transform="translate(81.84875 218.70375) scale(0.12 -0.12)">
      <use xlink:href="#DejaVuSans-66"/>
      <use xlink:href="#DejaVuSans-72" transform="translate(35.205078 0)"/>
      <use xlink:href="#DejaVuSans-6f" transform="translate(74.068359 0)"/>
      <use xlink:href="#DejaVuSans-6d" transform="translate(135.25 0)"/>
      <use xlink:href="#DejaVuSans-5f" transform="translate(232.662109 0)"/>
      <use xlink:href="#DejaVuSans-70" transform="translate(282.662109 0)"/>
      <use xlink:href="#DejaVuSans-65" transform="translate(346.138672 0)"/>
      <use xlink:href="#DejaVuSans-61" transform="translate(407.662109 0)"/>
      <use xlink:href="#DejaVuSans-6b" transform="translate(468.941406 0)"/>
      <use xlink:href="#DejaVuSans-73" transform="translate(526.851562 0)"/>
     </g>
    </g>
   </g>
  </g>
 </g>
 <defs>
  <clipPath id="pc7be5b4579">
   <rect x="37.44875" y="22.318125" width="446.4" height="332.64"/>
  </clipPath>
 </defs>
</svg>
