<?xml version="1.0" encoding="utf-8" standalone="no"?>
<!DOCTYPE svg PUBLIC "-//W3C//DTD SVG 1.1//EN"
  "http://www.w3.org/Graphics/SVG/1.1/DTD/svg11.dtd">
<svg xmlns:xlink="http://www.w3.org/1999/xlink" width="491.04875pt" height="396.385625pt" viewBox="0 0 491.04875 396.385625" xmlns="http://www.w3.org/2000/svg" version="1.1">
 <metadata>
  <rdf:RDF xmlns:dc="http://purl.org/dc/elements/1.1/" xmlns:cc="http://creativecommons.org/ns#" xmlns:rdf="http://www.w3.org/1999/02/22-rdf-syntax-ns#">
   <cc:Work>
    <dc:type rdf:resource="http://purl.org/dc/dcmitype/StillImage"/>
    <dc:date>2025-05-21T15:15:13.531540</dc:date>
    <dc:format>image/svg+xml</dc:format>
    <dc:creator>
     <cc:Agent>
      <dc:title>Matplotlib v3.10.0, https://matplotlib.org/</dc:title>
     </cc:Agent>
    </dc:creator>
   </cc:Work>
  </rdf:RDF>
 </metadata>
 <defs>
  <style type="text/css">*{stroke-linejoin: round; stroke-linecap: butt}</style>
 </defs>
 <g id="figure_1">
  <g id="patch_1">
   <path d="M 0 396.385625 
L 491.04875 396.385625 
L 491.04875 0 
L 0 0 
z
" style="fill: #ffffff"/>
  </g>
  <g id="axes_1">
   <g id="patch_2">
    <path d="M 37.44875 354.958125 
L 483.84875 354.958125 
L 483.84875 22.318125 
L 37.44875 22.318125 
z
" style="fill: #ffffff"/>
   </g>
   <g id="matplotlib.axis_1">
    <g id="xtick_1">
     <g id="line2d_1">
      <defs>
       <path id="m69d073c798" d="M 0 0 
L 0 3.5 
" style="stroke: #000000; stroke-width: 0.8"/>
      </defs>
      <g>
       <use xlink:href="#m69d073c798" x="57.739659" y="354.958125" style="stroke: #000000; stroke-width: 0.8"/>
      </g>
     </g>
     <g id="text_1">
      <!-- 0 -->
      <g transform="translate(53.922159 371.07625) scale(0.12 -0.12)">
       <defs>
        <path id="DejaVuSans-30" d="M 2034 4250 
Q 1547 4250 1301 3770 
Q 1056 3291 1056 2328 
Q 1056 1369 1301 889 
Q 1547 409 2034 409 
Q 2525 409 2770 889 
Q 3016 1369 3016 2328 
Q 3016 3291 2770 3770 
Q 2525 4250 2034 4250 
z
M 2034 4750 
Q 2819 4750 3233 4129 
Q 3647 3509 3647 2328 
Q 3647 1150 3233 529 
Q 2819 -91 2034 -91 
Q 1250 -91 836 529 
Q 422 1150 422 2328 
Q 422 3509 836 4129 
Q 1250 4750 2034 4750 
z
" transform="scale(0.015625)"/>
       </defs>
       <use xlink:href="#DejaVuSans-30"/>
      </g>
     </g>
    </g>
    <g id="xtick_2">
     <g id="line2d_2">
      <g>
       <use xlink:href="#m69d073c798" x="114.103295" y="354.958125" style="stroke: #000000; stroke-width: 0.8"/>
      </g>
     </g>
     <g id="text_2">
      <!-- 5 -->
      <g transform="translate(110.285795 371.07625) scale(0.12 -0.12)">
       <defs>
        <path id="DejaVuSans-35" d="M 691 4666 
L 3169 4666 
L 3169 4134 
L 1269 4134 
L 1269 2991 
Q 1406 3038 1543 3061 
Q 1681 3084 1819 3084 
Q 2600 3084 3056 2656 
Q 3513 2228 3513 1497 
Q 3513 744 3044 326 
Q 2575 -91 1722 -91 
Q 1428 -91 1123 -41 
Q 819 9 494 109 
L 494 744 
Q 775 591 1075 516 
Q 1375 441 1709 441 
Q 2250 441 2565 725 
Q 2881 1009 2881 1497 
Q 2881 1984 2565 2268 
Q 2250 2553 1709 2553 
Q 1456 2553 1204 2497 
Q 953 2441 691 2322 
L 691 4666 
z
" transform="scale(0.015625)"/>
       </defs>
       <use xlink:href="#DejaVuSans-35"/>
      </g>
     </g>
    </g>
    <g id="xtick_3">
     <g id="line2d_3">
      <g>
       <use xlink:href="#m69d073c798" x="170.466932" y="354.958125" style="stroke: #000000; stroke-width: 0.8"/>
      </g>
     </g>
     <g id="text_3">
      <!-- 10 -->
      <g transform="translate(162.831932 371.07625) scale(0.12 -0.12)">
       <defs>
        <path id="DejaVuSans-31" d="M 794 531 
L 1825 531 
L 1825 4091 
L 703 3866 
L 703 4441 
L 1819 4666 
L 2450 4666 
L 2450 531 
L 3481 531 
L 3481 0 
L 794 0 
L 794 531 
z
" transform="scale(0.015625)"/>
       </defs>
       <use xlink:href="#DejaVuSans-31"/>
       <use xlink:href="#DejaVuSans-30" transform="translate(63.623047 0)"/>
      </g>
     </g>
    </g>
    <g id="xtick_4">
     <g id="line2d_4">
      <g>
       <use xlink:href="#m69d073c798" x="226.830568" y="354.958125" style="stroke: #000000; stroke-width: 0.8"/>
      </g>
     </g>
     <g id="text_4">
      <!-- 15 -->
      <g transform="translate(219.195568 371.07625) scale(0.12 -0.12)">
       <use xlink:href="#DejaVuSans-31"/>
       <use xlink:href="#DejaVuSans-35" transform="translate(63.623047 0)"/>
      </g>
     </g>
    </g>
    <g id="xtick_5">
     <g id="line2d_5">
      <g>
       <use xlink:href="#m69d073c798" x="283.194205" y="354.958125" style="stroke: #000000; stroke-width: 0.8"/>
      </g>
     </g>
     <g id="text_5">
      <!-- 20 -->
      <g transform="translate(275.559205 371.07625) scale(0.12 -0.12)">
       <defs>
        <path id="DejaVuSans-32" d="M 1228 531 
L 3431 531 
L 3431 0 
L 469 0 
L 469 531 
Q 828 903 1448 1529 
Q 2069 2156 2228 2338 
Q 2531 2678 2651 2914 
Q 2772 3150 2772 3378 
Q 2772 3750 2511 3984 
Q 2250 4219 1831 4219 
Q 1534 4219 1204 4116 
Q 875 4013 500 3803 
L 500 4441 
Q 881 4594 1212 4672 
Q 1544 4750 1819 4750 
Q 2544 4750 2975 4387 
Q 3406 4025 3406 3419 
Q 3406 3131 3298 2873 
Q 3191 2616 2906 2266 
Q 2828 2175 2409 1742 
Q 1991 1309 1228 531 
z
" transform="scale(0.015625)"/>
       </defs>
       <use xlink:href="#DejaVuSans-32"/>
       <use xlink:href="#DejaVuSans-30" transform="translate(63.623047 0)"/>
      </g>
     </g>
    </g>
    <g id="xtick_6">
     <g id="line2d_6">
      <g>
       <use xlink:href="#m69d073c798" x="339.557841" y="354.958125" style="stroke: #000000; stroke-width: 0.8"/>
      </g>
     </g>
     <g id="text_6">
      <!-- 25 -->
      <g transform="translate(331.922841 371.07625) scale(0.12 -0.12)">
       <use xlink:href="#DejaVuSans-32"/>
       <use xlink:href="#DejaVuSans-35" transform="translate(63.623047 0)"/>
      </g>
     </g>
    </g>
    <g id="xtick_7">
     <g id="line2d_7">
      <g>
       <use xlink:href="#m69d073c798" x="395.921477" y="354.958125" style="stroke: #000000; stroke-width: 0.8"/>
      </g>
     </g>
     <g id="text_7">
      <!-- 30 -->
      <g transform="translate(388.286477 371.07625) scale(0.12 -0.12)">
       <defs>
        <path id="DejaVuSans-33" d="M 2597 2516 
Q 3050 2419 3304 2112 
Q 3559 1806 3559 1356 
Q 3559 666 3084 287 
Q 2609 -91 1734 -91 
Q 1441 -91 1130 -33 
Q 819 25 488 141 
L 488 750 
Q 750 597 1062 519 
Q 1375 441 1716 441 
Q 2309 441 2620 675 
Q 2931 909 2931 1356 
Q 2931 1769 2642 2001 
Q 2353 2234 1838 2234 
L 1294 2234 
L 1294 2753 
L 1863 2753 
Q 2328 2753 2575 2939 
Q 2822 3125 2822 3475 
Q 2822 3834 2567 4026 
Q 2313 4219 1838 4219 
Q 1578 4219 1281 4162 
Q 984 4106 628 3988 
L 628 4550 
Q 988 4650 1302 4700 
Q 1616 4750 1894 4750 
Q 2613 4750 3031 4423 
Q 3450 4097 3450 3541 
Q 3450 3153 3228 2886 
Q 3006 2619 2597 2516 
z
" transform="scale(0.015625)"/>
       </defs>
       <use xlink:href="#DejaVuSans-33"/>
       <use xlink:href="#DejaVuSans-30" transform="translate(63.623047 0)"/>
      </g>
     </g>
    </g>
    <g id="xtick_8">
     <g id="line2d_8">
      <g>
       <use xlink:href="#m69d073c798" x="452.285114" y="354.958125" style="stroke: #000000; stroke-width: 0.8"/>
      </g>
     </g>
     <g id="text_8">
      <!-- 35 -->
      <g transform="translate(444.650114 371.07625) scale(0.12 -0.12)">
       <use xlink:href="#DejaVuSans-33"/>
       <use xlink:href="#DejaVuSans-35" transform="translate(63.623047 0)"/>
      </g>
     </g>
    </g>
    <g id="text_9">
     <!-- index [-] -->
     <g transform="translate(235.47875 386.69) scale(0.12 -0.12)">
      <defs>
       <path id="DejaVuSans-69" d="M 603 3500 
L 1178 3500 
L 1178 0 
L 603 0 
L 603 3500 
z
M 603 4863 
L 1178 4863 
L 1178 4134 
L 603 4134 
L 603 4863 
z
" transform="scale(0.015625)"/>
       <path id="DejaVuSans-6e" d="M 3513 2113 
L 3513 0 
L 2938 0 
L 2938 2094 
Q 2938 2591 2744 2837 
Q 2550 3084 2163 3084 
Q 1697 3084 1428 2787 
Q 1159 2491 1159 1978 
L 1159 0 
L 581 0 
L 581 3500 
L 1159 3500 
L 1159 2956 
Q 1366 3272 1645 3428 
Q 1925 3584 2291 3584 
Q 2894 3584 3203 3211 
Q 3513 2838 3513 2113 
z
" transform="scale(0.015625)"/>
       <path id="DejaVuSans-64" d="M 2906 2969 
L 2906 4863 
L 3481 4863 
L 3481 0 
L 2906 0 
L 2906 525 
Q 2725 213 2448 61 
Q 2172 -91 1784 -91 
Q 1150 -91 751 415 
Q 353 922 353 1747 
Q 353 2572 751 3078 
Q 1150 3584 1784 3584 
Q 2172 3584 2448 3432 
Q 2725 3281 2906 2969 
z
M 947 1747 
Q 947 1113 1208 752 
Q 1469 391 1925 391 
Q 2381 391 2643 752 
Q 2906 1113 2906 1747 
Q 2906 2381 2643 2742 
Q 2381 3103 1925 3103 
Q 1469 3103 1208 2742 
Q 947 2381 947 1747 
z
" transform="scale(0.015625)"/>
       <path id="DejaVuSans-65" d="M 3597 1894 
L 3597 1613 
L 953 1613 
Q 991 1019 1311 708 
Q 1631 397 2203 397 
Q 2534 397 2845 478 
Q 3156 559 3463 722 
L 3463 178 
Q 3153 47 2828 -22 
Q 2503 -91 2169 -91 
Q 1331 -91 842 396 
Q 353 884 353 1716 
Q 353 2575 817 3079 
Q 1281 3584 2069 3584 
Q 2775 3584 3186 3129 
Q 3597 2675 3597 1894 
z
M 3022 2063 
Q 3016 2534 2758 2815 
Q 2500 3097 2075 3097 
Q 1594 3097 1305 2825 
Q 1016 2553 972 2059 
L 3022 2063 
z
" transform="scale(0.015625)"/>
       <path id="DejaVuSans-78" d="M 3513 3500 
L 2247 1797 
L 3578 0 
L 2900 0 
L 1881 1375 
L 863 0 
L 184 0 
L 1544 1831 
L 300 3500 
L 978 3500 
L 1906 2253 
L 2834 3500 
L 3513 3500 
z
" transform="scale(0.015625)"/>
       <path id="DejaVuSans-20" transform="scale(0.015625)"/>
       <path id="DejaVuSans-5b" d="M 550 4863 
L 1875 4863 
L 1875 4416 
L 1125 4416 
L 1125 -397 
L 1875 -397 
L 1875 -844 
L 550 -844 
L 550 4863 
z
" transform="scale(0.015625)"/>
       <path id="DejaVuSans-2d" d="M 313 2009 
L 1997 2009 
L 1997 1497 
L 313 1497 
L 313 2009 
z
" transform="scale(0.015625)"/>
       <path id="DejaVuSans-5d" d="M 1947 4863 
L 1947 -844 
L 622 -844 
L 622 -397 
L 1369 -397 
L 1369 4416 
L 622 4416 
L 622 4863 
L 1947 4863 
z
" transform="scale(0.015625)"/>
      </defs>
      <use xlink:href="#DejaVuSans-69"/>
      <use xlink:href="#DejaVuSans-6e" transform="translate(27.783203 0)"/>
      <use xlink:href="#DejaVuSans-64" transform="translate(91.162109 0)"/>
      <use xlink:href="#DejaVuSans-65" transform="translate(154.638672 0)"/>
      <use xlink:href="#DejaVuSans-78" transform="translate(214.412109 0)"/>
      <use xlink:href="#DejaVuSans-20" transform="translate(273.591797 0)"/>
      <use xlink:href="#DejaVuSans-5b" transform="translate(305.378906 0)"/>
      <use xlink:href="#DejaVuSans-2d" transform="translate(344.392578 0)"/>
      <use xlink:href="#DejaVuSans-5d" transform="translate(380.476562 0)"/>
     </g>
    </g>
   </g>
   <g id="matplotlib.axis_2">
    <g id="ytick_1">
     <g id="line2d_9">
      <defs>
       <path id="mc3317fc5d7" d="M 0 0 
L -3.5 0 
" style="stroke: #000000; stroke-width: 0.8"/>
      </defs>
      <g>
       <use xlink:href="#mc3317fc5d7" x="37.44875" y="339.838125" style="stroke: #000000; stroke-width: 0.8"/>
      </g>
     </g>
     <g id="text_10">
      <!-- 0 -->
      <g transform="translate(22.81375 344.397187) scale(0.12 -0.12)">
       <use xlink:href="#DejaVuSans-30"/>
      </g>
     </g>
    </g>
    <g id="ytick_2">
     <g id="line2d_10">
      <g>
       <use xlink:href="#mc3317fc5d7" x="37.44875" y="289.586165" style="stroke: #000000; stroke-width: 0.8"/>
      </g>
     </g>
     <g id="text_11">
      <!-- 1 -->
      <g transform="translate(22.81375 294.145227) scale(0.12 -0.12)">
       <use xlink:href="#DejaVuSans-31"/>
      </g>
     </g>
    </g>
    <g id="ytick_3">
     <g id="line2d_11">
      <g>
       <use xlink:href="#mc3317fc5d7" x="37.44875" y="239.334204" style="stroke: #000000; stroke-width: 0.8"/>
      </g>
     </g>
     <g id="text_12">
      <!-- 2 -->
      <g transform="translate(22.81375 243.893267) scale(0.12 -0.12)">
       <use xlink:href="#DejaVuSans-32"/>
      </g>
     </g>
    </g>
    <g id="ytick_4">
     <g id="line2d_12">
      <g>
       <use xlink:href="#mc3317fc5d7" x="37.44875" y="189.082244" style="stroke: #000000; stroke-width: 0.8"/>
      </g>
     </g>
     <g id="text_13">
      <!-- 3 -->
      <g transform="translate(22.81375 193.641307) scale(0.12 -0.12)">
       <use xlink:href="#DejaVuSans-33"/>
      </g>
     </g>
    </g>
    <g id="ytick_5">
     <g id="line2d_13">
      <g>
       <use xlink:href="#mc3317fc5d7" x="37.44875" y="138.830284" style="stroke: #000000; stroke-width: 0.8"/>
      </g>
     </g>
     <g id="text_14">
      <!-- 4 -->
      <g transform="translate(22.81375 143.389346) scale(0.12 -0.12)">
       <defs>
        <path id="DejaVuSans-34" d="M 2419 4116 
L 825 1625 
L 2419 1625 
L 2419 4116 
z
M 2253 4666 
L 3047 4666 
L 3047 1625 
L 3713 1625 
L 3713 1100 
L 3047 1100 
L 3047 0 
L 2419 0 
L 2419 1100 
L 313 1100 
L 313 1709 
L 2253 4666 
z
" transform="scale(0.015625)"/>
       </defs>
       <use xlink:href="#DejaVuSans-34"/>
      </g>
     </g>
    </g>
    <g id="ytick_6">
     <g id="line2d_14">
      <g>
       <use xlink:href="#mc3317fc5d7" x="37.44875" y="88.578324" style="stroke: #000000; stroke-width: 0.8"/>
      </g>
     </g>
     <g id="text_15">
      <!-- 5 -->
      <g transform="translate(22.81375 93.137386) scale(0.12 -0.12)">
       <use xlink:href="#DejaVuSans-35"/>
      </g>
     </g>
    </g>
    <g id="ytick_7">
     <g id="line2d_15">
      <g>
       <use xlink:href="#mc3317fc5d7" x="37.44875" y="38.326363" style="stroke: #000000; stroke-width: 0.8"/>
      </g>
     </g>
     <g id="text_16">
      <!-- 6 -->
      <g transform="translate(22.81375 42.885426) scale(0.12 -0.12)">
       <defs>
        <path id="DejaVuSans-36" d="M 2113 2584 
Q 1688 2584 1439 2293 
Q 1191 2003 1191 1497 
Q 1191 994 1439 701 
Q 1688 409 2113 409 
Q 2538 409 2786 701 
Q 3034 994 3034 1497 
Q 3034 2003 2786 2293 
Q 2538 2584 2113 2584 
z
M 3366 4563 
L 3366 3988 
Q 3128 4100 2886 4159 
Q 2644 4219 2406 4219 
Q 1781 4219 1451 3797 
Q 1122 3375 1075 2522 
Q 1259 2794 1537 2939 
Q 1816 3084 2150 3084 
Q 2853 3084 3261 2657 
Q 3669 2231 3669 1497 
Q 3669 778 3244 343 
Q 2819 -91 2113 -91 
Q 1303 -91 875 529 
Q 447 1150 447 2328 
Q 447 3434 972 4092 
Q 1497 4750 2381 4750 
Q 2619 4750 2861 4703 
Q 3103 4656 3366 4563 
z
" transform="scale(0.015625)"/>
       </defs>
       <use xlink:href="#DejaVuSans-36"/>
      </g>
     </g>
    </g>
    <g id="text_17">
     <!-- intensity [a.u.] -->
     <g transform="translate(16.318125 232.531875) rotate(-90) scale(0.12 -0.12)">
      <defs>
       <path id="DejaVuSans-74" d="M 1172 4494 
L 1172 3500 
L 2356 3500 
L 2356 3053 
L 1172 3053 
L 1172 1153 
Q 1172 725 1289 603 
Q 1406 481 1766 481 
L 2356 481 
L 2356 0 
L 1766 0 
Q 1100 0 847 248 
Q 594 497 594 1153 
L 594 3053 
L 172 3053 
L 172 3500 
L 594 3500 
L 594 4494 
L 1172 4494 
z
" transform="scale(0.015625)"/>
       <path id="DejaVuSans-73" d="M 2834 3397 
L 2834 2853 
Q 2591 2978 2328 3040 
Q 2066 3103 1784 3103 
Q 1356 3103 1142 2972 
Q 928 2841 928 2578 
Q 928 2378 1081 2264 
Q 1234 2150 1697 2047 
L 1894 2003 
Q 2506 1872 2764 1633 
Q 3022 1394 3022 966 
Q 3022 478 2636 193 
Q 2250 -91 1575 -91 
Q 1294 -91 989 -36 
Q 684 19 347 128 
L 347 722 
Q 666 556 975 473 
Q 1284 391 1588 391 
Q 1994 391 2212 530 
Q 2431 669 2431 922 
Q 2431 1156 2273 1281 
Q 2116 1406 1581 1522 
L 1381 1569 
Q 847 1681 609 1914 
Q 372 2147 372 2553 
Q 372 3047 722 3315 
Q 1072 3584 1716 3584 
Q 2034 3584 2315 3537 
Q 2597 3491 2834 3397 
z
" transform="scale(0.015625)"/>
       <path id="DejaVuSans-79" d="M 2059 -325 
Q 1816 -950 1584 -1140 
Q 1353 -1331 966 -1331 
L 506 -1331 
L 506 -850 
L 844 -850 
Q 1081 -850 1212 -737 
Q 1344 -625 1503 -206 
L 1606 56 
L 191 3500 
L 800 3500 
L 1894 763 
L 2988 3500 
L 3597 3500 
L 2059 -325 
z
" transform="scale(0.015625)"/>
       <path id="DejaVuSans-61" d="M 2194 1759 
Q 1497 1759 1228 1600 
Q 959 1441 959 1056 
Q 959 750 1161 570 
Q 1363 391 1709 391 
Q 2188 391 2477 730 
Q 2766 1069 2766 1631 
L 2766 1759 
L 2194 1759 
z
M 3341 1997 
L 3341 0 
L 2766 0 
L 2766 531 
Q 2569 213 2275 61 
Q 1981 -91 1556 -91 
Q 1019 -91 701 211 
Q 384 513 384 1019 
Q 384 1609 779 1909 
Q 1175 2209 1959 2209 
L 2766 2209 
L 2766 2266 
Q 2766 2663 2505 2880 
Q 2244 3097 1772 3097 
Q 1472 3097 1187 3025 
Q 903 2953 641 2809 
L 641 3341 
Q 956 3463 1253 3523 
Q 1550 3584 1831 3584 
Q 2591 3584 2966 3190 
Q 3341 2797 3341 1997 
z
" transform="scale(0.015625)"/>
       <path id="DejaVuSans-2e" d="M 684 794 
L 1344 794 
L 1344 0 
L 684 0 
L 684 794 
z
" transform="scale(0.015625)"/>
       <path id="DejaVuSans-75" d="M 544 1381 
L 544 3500 
L 1119 3500 
L 1119 1403 
Q 1119 906 1312 657 
Q 1506 409 1894 409 
Q 2359 409 2629 706 
Q 2900 1003 2900 1516 
L 2900 3500 
L 3475 3500 
L 3475 0 
L 2900 0 
L 2900 538 
Q 2691 219 2414 64 
Q 2138 -91 1772 -91 
Q 1169 -91 856 284 
Q 544 659 544 1381 
z
M 1991 3584 
L 1991 3584 
z
" transform="scale(0.015625)"/>
      </defs>
      <use xlink:href="#DejaVuSans-69"/>
      <use xlink:href="#DejaVuSans-6e" transform="translate(27.783203 0)"/>
      <use xlink:href="#DejaVuSans-74" transform="translate(91.162109 0)"/>
      <use xlink:href="#DejaVuSans-65" transform="translate(130.371094 0)"/>
      <use xlink:href="#DejaVuSans-6e" transform="translate(191.894531 0)"/>
      <use xlink:href="#DejaVuSans-73" transform="translate(255.273438 0)"/>
      <use xlink:href="#DejaVuSans-69" transform="translate(307.373047 0)"/>
      <use xlink:href="#DejaVuSans-74" transform="translate(335.15625 0)"/>
      <use xlink:href="#DejaVuSans-79" transform="translate(374.365234 0)"/>
      <use xlink:href="#DejaVuSans-20" transform="translate(433.544922 0)"/>
      <use xlink:href="#DejaVuSans-5b" transform="translate(465.332031 0)"/>
      <use xlink:href="#DejaVuSans-61" transform="translate(504.345703 0)"/>
      <use xlink:href="#DejaVuSans-2e" transform="translate(565.625 0)"/>
      <use xlink:href="#DejaVuSans-75" transform="translate(597.412109 0)"/>
      <use xlink:href="#DejaVuSans-2e" transform="translate(660.791016 0)"/>
      <use xlink:href="#DejaVuSans-5d" transform="translate(692.578125 0)"/>
     </g>
    </g>
   </g>
   <g id="line2d_16">
    <path d="M 57.739659 339.838125 
L 136.953418 339.728269 
L 140.203214 339.497913 
L 142.64056 339.101727 
L 144.265458 338.649476 
L 145.890355 337.973951 
L 147.109028 337.274509 
L 148.327702 336.369289 
L 149.546375 335.219857 
L 150.765048 333.788355 
L 151.983721 332.040487 
L 153.202395 329.949142 
L 154.421068 327.498424 
L 156.045965 323.673547 
L 157.670863 319.264236 
L 160.108209 311.848794 
L 163.764229 300.50669 
L 165.389127 296.178478 
L 166.6078 293.506518 
L 167.826473 291.461126 
L 168.638922 290.493713 
L 169.451371 289.868039 
L 170.26382 289.59747 
L 171.076268 289.687822 
L 171.888717 290.137151 
L 172.701166 290.935822 
L 173.513615 292.066853 
L 174.732288 294.333027 
L 175.950961 297.188255 
L 177.575859 301.692007 
L 180.013205 309.26799 
L 183.263001 319.264236 
L 184.887898 323.673547 
L 186.512796 327.498424 
L 188.137693 330.685679 
L 189.356367 332.660126 
L 190.57504 334.299091 
L 191.793713 335.632514 
L 193.012386 336.696252 
L 194.23106 337.528654 
L 195.855957 338.344184 
L 197.480855 338.899166 
L 199.511977 339.333523 
L 201.949323 339.612433 
L 205.605343 339.778339 
L 213.323607 339.835883 
L 248.66513 339.762764 
L 252.32115 339.560466 
L 254.758496 339.227309 
L 256.789618 338.716765 
L 258.414516 338.073139 
L 260.039413 337.138957 
L 261.258087 336.19572 
L 262.47676 335.00185 
L 263.695433 333.519855 
L 264.914106 331.716373 
L 266.132779 329.565872 
L 267.757677 326.137425 
L 269.382575 322.083475 
L 271.413697 316.264039 
L 277.913287 296.67661 
L 279.13196 293.9113 
L 280.350634 291.754126 
L 281.163083 290.704211 
L 281.975531 289.991562 
L 282.78798 289.631371 
L 283.600429 289.631371 
L 284.412878 289.991562 
L 285.225327 290.704211 
L 286.037775 291.754126 
L 286.850224 293.119196 
L 288.068897 295.694466 
L 289.287571 298.798045 
L 290.912468 303.526102 
L 297.005834 322.083475 
L 298.630732 326.137425 
L 300.25563 329.565872 
L 301.474303 331.716373 
L 302.692976 333.519855 
L 303.911649 335.00185 
L 305.130322 336.19572 
L 306.348996 337.138957 
L 307.973893 338.073139 
L 309.598791 338.716765 
L 311.629913 339.227309 
L 314.067259 339.560466 
L 317.317055 339.750384 
L 323.410421 339.830707 
L 357.533271 339.821884 
L 363.626637 339.667994 
L 366.470208 339.394859 
L 368.50133 339.005843 
L 370.126227 338.504345 
L 371.751125 337.761346 
L 372.969798 336.997515 
L 374.188472 336.015186 
L 375.407145 334.77583 
L 376.625818 333.242408 
L 377.844491 331.382592 
L 379.063164 329.172548 
L 380.688062 325.663945 
L 382.31296 321.535902 
L 384.344082 315.646099 
L 390.437448 297.188255 
L 391.656121 294.333027 
L 392.874794 292.066853 
L 393.687243 290.935822 
L 394.499692 290.137151 
L 395.312141 289.687822 
L 396.124589 289.59747 
L 396.937038 289.868039 
L 397.749487 290.493713 
L 398.561936 291.461126 
L 399.374385 292.749831 
L 400.593058 295.225169 
L 401.811731 298.249605 
L 403.436629 302.908136 
L 410.342444 323.673547 
L 411.967341 327.498424 
L 413.592239 330.685679 
L 414.810912 332.660126 
L 416.029585 334.299091 
L 417.248259 335.632514 
L 418.466932 336.696252 
L 419.685605 337.528654 
L 421.310503 338.344184 
L 422.9354 338.899166 
L 424.966522 339.333523 
L 427.403869 339.612433 
L 431.059888 339.778339 
L 438.778152 339.835883 
L 463.557841 339.838125 
L 463.557841 339.838125 
" clip-path="url(#p90f3d429c7)" style="fill: none; stroke: #1f77b4; stroke-width: 2; stroke-linecap: square"/>
   </g>
   <g id="line2d_17">
    <path d="M 57.739659 88.567917 
L 58.145883 87.299364 
L 58.552108 87.865678 
L 58.958332 88.639303 
L 59.364557 87.015135 
L 59.770781 88.276528 
L 60.177006 88.530414 
L 60.989454 89.622026 
L 61.395679 87.848989 
L 61.801903 89.078925 
L 62.208128 89.048562 
L 62.614352 88.521026 
L 63.020576 88.335677 
L 63.426801 87.943042 
L 63.833025 87.853663 
L 64.23925 89.04179 
L 64.645474 88.434602 
L 65.457923 87.975159 
L 65.864147 89.281786 
L 66.270372 89.423295 
L 66.676596 88.425936 
L 67.08282 88.644458 
L 67.895269 88.013348 
L 68.301494 89.221923 
L 68.707718 88.746045 
L 69.113942 87.785768 
L 69.520167 88.879258 
L 69.926391 89.190065 
L 70.332616 88.830897 
L 70.73884 87.900301 
L 71.145064 87.971337 
L 71.551289 88.768662 
L 71.957513 89.255772 
L 72.363738 88.52819 
L 72.769962 88.49219 
L 73.176187 88.715238 
L 73.582411 88.715711 
L 73.988635 88.041176 
L 74.39486 89.342456 
L 74.801084 88.234196 
L 75.207309 89.128195 
L 75.613533 88.123168 
L 76.019757 88.088564 
L 76.425982 89.025346 
L 76.832206 88.177691 
L 77.238431 89.028153 
L 77.644655 88.796758 
L 78.050879 89.278581 
L 78.457104 88.87602 
L 78.863328 88.892561 
L 79.269553 88.242991 
L 79.675777 89.130716 
L 80.082001 88.716032 
L 80.89445 88.45764 
L 81.300675 87.989785 
L 81.706899 88.430085 
L 82.113123 88.200807 
L 82.519348 88.754253 
L 82.925572 88.956435 
L 83.331797 88.678089 
L 83.738021 89.338564 
L 84.144245 88.22656 
L 84.55047 88.097418 
L 85.362919 88.426512 
L 85.769143 88.327493 
L 86.175368 88.942832 
L 86.581592 89.204292 
L 86.987816 89.086388 
L 88.20649 88.167004 
L 88.612714 88.279766 
L 89.018938 88.629755 
L 89.425163 88.106206 
L 89.831387 88.334169 
L 90.237612 88.93819 
L 90.643836 88.909366 
L 91.05006 88.297442 
L 91.456285 88.555721 
L 91.862509 88.584875 
L 92.268734 89.256838 
L 92.674958 87.530189 
L 93.081182 88.392156 
L 93.487407 88.493621 
L 94.299856 89.175097 
L 94.70608 88.806688 
L 95.112304 88.284787 
L 95.518529 88.436867 
L 95.924753 88.351474 
L 96.330978 88.662348 
L 96.737202 88.062668 
L 97.143426 88.051219 
L 97.549651 88.518829 
L 97.955875 88.305435 
L 98.3621 88.904209 
L 98.768324 88.328978 
L 99.174549 89.381692 
L 99.986997 88.630669 
L 100.393222 89.131362 
L 100.799446 88.21275 
L 101.205671 88.900323 
L 101.611895 88.612794 
L 102.018119 89.031993 
L 102.424344 88.773136 
L 102.830568 88.203037 
L 103.236793 89.239888 
L 103.643017 87.886076 
L 104.049241 88.453446 
L 104.455466 88.404371 
L 104.86169 88.767804 
L 105.674139 88.849055 
L 106.080363 88.176723 
L 106.486588 88.080511 
L 107.299037 88.774609 
L 107.705261 88.14327 
L 108.111485 89.296935 
L 108.51771 88.510545 
L 109.330159 88.531313 
L 109.736383 88.310529 
L 110.142607 88.747464 
L 110.548832 88.278004 
L 110.955056 88.909682 
L 111.361281 88.347904 
L 111.767505 88.361641 
L 112.17373 88.6092 
L 112.579954 88.63627 
L 112.986178 88.350305 
L 113.392403 88.264676 
L 113.798627 88.548456 
L 114.204852 88.997729 
L 115.0173 87.491987 
L 115.423525 88.245222 
L 115.829749 89.448618 
L 116.235974 88.283554 
L 116.642198 87.910457 
L 117.048422 89.364736 
L 117.454647 88.235388 
L 117.860871 87.783552 
L 118.267096 88.349495 
L 118.67332 88.382136 
L 119.079544 89.092794 
L 119.485769 88.536632 
L 119.891993 88.977353 
L 120.298218 88.542185 
L 120.704442 88.938635 
L 121.110666 87.396359 
L 121.516891 88.417913 
L 121.923115 88.59074 
L 122.32934 88.247625 
L 123.141788 88.847648 
L 123.548013 88.422203 
L 124.360462 88.861165 
L 124.766686 88.408008 
L 125.172911 88.653237 
L 125.579135 89.380778 
L 126.391584 88.419104 
L 126.797808 89.252604 
L 127.204033 89.756544 
L 127.610257 87.211243 
L 128.016481 88.753211 
L 128.422706 88.18265 
L 128.82893 87.911779 
L 129.235155 88.744656 
L 129.641379 88.603295 
L 130.047603 87.927408 
L 130.453828 88.777709 
L 130.860052 88.788061 
L 131.266277 88.558107 
L 131.672501 88.515818 
L 132.078725 88.880168 
L 132.891174 88.318145 
L 134.109847 88.764135 
L 134.516072 88.214492 
L 134.922296 88.263048 
L 135.328521 88.821717 
L 135.734745 88.483904 
L 136.140969 87.997541 
L 136.547194 89.167201 
L 136.953418 89.198063 
L 137.359643 88.491725 
L 137.765867 88.32241 
L 138.172092 88.854839 
L 138.578316 88.418158 
L 138.98454 88.90975 
L 139.390765 88.700389 
L 140.203214 87.792467 
L 140.609438 88.179901 
L 141.015662 88.758857 
L 141.421887 87.467 
L 141.828111 88.602311 
L 142.234336 87.757468 
L 143.046784 88.062079 
L 143.453009 86.587987 
L 143.859233 88.23756 
L 144.265458 87.657806 
L 144.671682 86.669952 
L 145.077906 86.500588 
L 145.484131 87.176356 
L 145.890355 86.531386 
L 146.29658 86.185691 
L 146.702804 86.248871 
L 147.109028 85.574001 
L 147.515253 85.307804 
L 147.921477 84.829894 
L 148.733926 85.751047 
L 149.14015 85.828681 
L 149.546375 83.430812 
L 149.952599 84.52647 
L 150.358824 82.544087 
L 150.765048 82.618143 
L 151.171273 82.387239 
L 151.577497 82.385524 
L 151.983721 80.715034 
L 152.389946 80.874627 
L 152.79617 78.461321 
L 153.202395 78.227881 
L 153.608619 77.21258 
L 154.421068 76.563178 
L 155.233517 73.962788 
L 155.639741 73.542436 
L 156.045965 72.211697 
L 156.45219 71.467449 
L 156.858414 70.062384 
L 157.264639 68.229757 
L 157.670863 68.402593 
L 158.077087 66.106887 
L 158.483312 65.792689 
L 158.889536 64.756206 
L 159.295761 64.517161 
L 159.701985 61.905911 
L 160.108209 60.30836 
L 160.514434 60.09349 
L 160.920658 57.348493 
L 161.733107 55.888338 
L 162.139331 53.38299 
L 162.545556 52.018668 
L 162.95178 52.079635 
L 163.764229 48.666079 
L 164.170454 48.061809 
L 164.576678 46.472614 
L 164.982902 45.856057 
L 165.389127 44.369224 
L 165.795351 43.881323 
L 166.201576 42.655837 
L 167.014024 41.112521 
L 167.420249 40.723559 
L 167.826473 40.611048 
L 168.232698 39.047443 
L 168.638922 39.712609 
L 169.045146 38.984801 
L 169.451371 39.505089 
L 169.857595 38.579666 
L 170.26382 38.07847 
L 170.670044 38.140415 
L 171.076268 38.010346 
L 172.294942 39.915589 
L 172.701166 38.900316 
L 173.10739 40.642669 
L 173.919839 42.007624 
L 174.326064 42.263442 
L 174.732288 43.665687 
L 175.138512 43.937154 
L 175.544737 44.434267 
L 175.950961 45.817895 
L 176.357186 48.295404 
L 176.76341 47.791921 
L 177.169635 49.165591 
L 177.982083 50.760824 
L 178.388308 53.516152 
L 179.606981 56.562856 
L 180.013205 58.326986 
L 180.41943 58.977166 
L 180.825654 59.974623 
L 181.638103 63.333345 
L 182.044327 63.896294 
L 182.450552 65.777672 
L 182.856776 66.736293 
L 183.263001 68.472581 
L 183.669225 69.577068 
L 184.075449 70.106925 
L 184.481674 71.471289 
L 184.887898 72.288071 
L 185.294123 73.544786 
L 185.700347 74.086224 
L 186.106571 75.969087 
L 186.512796 75.508173 
L 186.91902 76.652945 
L 187.325245 78.41425 
L 187.731469 77.544735 
L 188.137693 80.435941 
L 188.543918 80.273224 
L 188.950142 80.75868 
L 190.168816 83.259155 
L 190.57504 83.45736 
L 190.981264 84.273305 
L 191.387489 83.112241 
L 192.199938 85.233505 
L 192.606162 85.588831 
L 193.012386 84.694906 
L 193.418611 85.698375 
L 193.824835 85.650663 
L 194.23106 86.013277 
L 194.637284 87.559006 
L 195.043508 86.467403 
L 195.449733 87.106774 
L 195.855957 88.140237 
L 196.262182 86.619441 
L 196.668406 86.852202 
L 197.07463 87.63502 
L 197.480855 87.065398 
L 197.887079 87.792913 
L 198.293304 87.230269 
L 198.699528 87.429055 
L 199.105752 88.156859 
L 199.511977 88.272012 
L 199.918201 88.989601 
L 200.73065 87.768949 
L 201.543099 88.235567 
L 201.949323 88.016401 
L 202.761772 88.758443 
L 203.167997 88.334137 
L 203.574221 88.271855 
L 203.980445 88.629337 
L 204.38667 88.714653 
L 204.792894 88.662775 
L 205.605343 87.396445 
L 206.011567 88.139254 
L 206.417792 88.106978 
L 206.824016 87.904735 
L 207.230241 89.443179 
L 207.636465 88.339163 
L 208.042689 88.886832 
L 208.448914 88.411468 
L 208.855138 88.967316 
L 209.261363 89.089714 
L 209.667587 88.822643 
L 210.073811 88.857859 
L 210.480036 88.312219 
L 210.88626 89.111419 
L 211.292485 88.960383 
L 212.104933 87.941458 
L 212.511158 89.410462 
L 212.917382 89.4652 
L 213.323607 89.207962 
L 213.729831 88.23957 
L 214.54228 87.854237 
L 214.948504 89.139952 
L 215.354729 87.980923 
L 216.167178 89.220045 
L 216.573402 89.120809 
L 216.979626 88.048575 
L 217.385851 88.665639 
L 217.792075 87.852346 
L 218.1983 89.202806 
L 218.604524 88.430488 
L 219.416973 88.903924 
L 219.823197 88.811826 
L 220.229422 88.089728 
L 220.635646 88.230747 
L 221.04187 88.201618 
L 221.448095 87.86438 
L 221.854319 89.51296 
L 222.666768 89.070421 
L 223.072992 89.362719 
L 223.479217 89.129962 
L 224.291666 87.692746 
L 225.510339 88.400265 
L 225.916563 89.034838 
L 226.322788 88.682158 
L 226.729012 89.451655 
L 227.541461 88.040245 
L 228.35391 88.786973 
L 228.760134 89.032852 
L 229.166359 87.753598 
L 229.572583 88.52989 
L 229.978807 88.978549 
L 230.385032 88.241123 
L 230.791256 88.877789 
L 231.197481 88.258599 
L 231.603705 89.03819 
L 232.009929 88.620618 
L 232.416154 89.390008 
L 232.822378 87.464968 
L 233.228603 88.002758 
L 233.634827 88.99013 
L 234.041051 88.265802 
L 234.447276 88.936757 
L 234.8535 89.111128 
L 235.259725 88.307448 
L 235.665949 88.668872 
L 236.072173 88.756851 
L 236.478398 87.647145 
L 236.884622 88.914017 
L 237.290847 87.967498 
L 237.697071 88.481701 
L 238.103295 88.581115 
L 238.50952 88.563493 
L 238.915744 88.267248 
L 239.321969 88.572974 
L 239.728193 88.135264 
L 240.134417 89.458618 
L 240.540642 88.302291 
L 240.946866 89.118781 
L 241.353091 88.742238 
L 241.759315 88.034036 
L 242.16554 88.849067 
L 242.571764 88.800375 
L 242.977988 88.991705 
L 243.790437 88.549743 
L 244.196662 88.852323 
L 244.602886 88.669882 
L 245.00911 88.808584 
L 245.415335 87.531222 
L 245.821559 88.843102 
L 246.227784 88.59378 
L 246.634008 88.498745 
L 247.040232 88.787834 
L 247.446457 88.808934 
L 247.852681 88.218 
L 248.258906 88.454617 
L 248.66513 88.279916 
L 249.071354 88.682894 
L 249.477579 88.893407 
L 249.883803 87.987222 
L 250.290028 88.232447 
L 250.696252 89.040899 
L 251.102476 88.734073 
L 251.508701 88.035714 
L 251.914925 88.64858 
L 252.32115 88.103852 
L 252.727374 88.371912 
L 253.133598 88.972933 
L 253.946047 87.947099 
L 254.352272 88.504386 
L 254.758496 87.76801 
L 255.164721 88.486697 
L 255.570945 87.635029 
L 256.383394 87.341809 
L 256.789618 87.678344 
L 257.195843 87.07216 
L 257.602067 86.201274 
L 258.008291 86.916279 
L 258.414516 86.569107 
L 258.82074 87.237821 
L 259.226965 85.808534 
L 260.039413 85.765803 
L 260.445638 86.127924 
L 261.258087 84.408307 
L 261.664311 83.954644 
L 262.47676 84.119649 
L 263.289209 82.10083 
L 263.695433 82.419062 
L 264.101657 81.749799 
L 264.507882 80.704972 
L 264.914106 81.25765 
L 265.320331 79.785455 
L 265.726555 79.679476 
L 266.132779 77.403129 
L 266.539004 78.467788 
L 266.945228 76.727839 
L 267.351453 76.211458 
L 267.757677 75.417139 
L 268.163902 73.266957 
L 268.570126 73.416481 
L 268.97635 71.539455 
L 269.382575 70.829815 
L 269.788799 69.538891 
L 270.195024 69.31091 
L 270.601248 68.09208 
L 271.007472 65.660355 
L 271.413697 65.27481 
L 271.819921 64.203401 
L 272.226146 62.673133 
L 272.63237 62.510927 
L 273.444819 58.360909 
L 273.851043 57.352156 
L 274.257268 56.702022 
L 274.663492 53.820711 
L 275.069716 53.005503 
L 275.475941 52.647303 
L 275.882165 50.768796 
L 276.28839 50.153859 
L 276.694614 48.43851 
L 277.507063 47.183987 
L 277.913287 46.036608 
L 278.319512 44.075065 
L 278.725736 43.723666 
L 279.13196 42.599646 
L 279.538185 42.561032 
L 279.944409 40.311734 
L 280.350634 41.013355 
L 280.756858 38.664456 
L 281.163083 40.28964 
L 281.569307 38.195151 
L 281.975531 38.42198 
L 282.381756 38.962042 
L 282.78798 38.621929 
L 283.600429 38.828597 
L 284.006653 38.806693 
L 284.412878 38.953724 
L 284.819102 39.612526 
L 285.225327 39.637944 
L 285.631551 39.367652 
L 286.037775 40.519215 
L 286.444 40.630296 
L 287.662673 42.991682 
L 288.475122 44.771923 
L 289.287571 47.543554 
L 289.693795 49.043769 
L 290.100019 49.853211 
L 290.912468 52.482763 
L 291.318693 54.475078 
L 291.724917 54.471849 
L 292.131141 56.157698 
L 292.94359 58.738909 
L 294.162264 63.126202 
L 294.568488 63.543642 
L 294.974712 64.520111 
L 295.380937 65.16111 
L 296.193386 68.588429 
L 296.59961 68.782403 
L 297.412059 72.10113 
L 298.224508 72.795527 
L 298.630732 74.644045 
L 299.036956 75.074272 
L 299.443181 77.314099 
L 300.25563 77.158358 
L 300.661854 78.272209 
L 301.068078 78.706197 
L 301.474303 79.667894 
L 301.880527 81.049884 
L 303.505425 83.386279 
L 303.911649 84.238247 
L 304.317874 83.844961 
L 304.724098 84.462732 
L 305.130322 85.427173 
L 305.536547 85.484662 
L 305.942771 85.679786 
L 306.348996 84.874613 
L 306.75522 85.939663 
L 307.161445 87.543978 
L 307.567669 86.244774 
L 307.973893 86.287289 
L 308.380118 87.002314 
L 308.786342 86.153974 
L 309.192567 87.471586 
L 309.598791 88.378365 
L 310.005015 87.222402 
L 310.41124 87.389534 
L 310.817464 87.273411 
L 311.223689 88.478475 
L 311.629913 88.485525 
L 312.036137 87.835966 
L 312.442362 87.725119 
L 312.848586 88.522409 
L 313.254811 87.763446 
L 313.661035 88.602658 
L 314.067259 88.780689 
L 314.473484 88.145929 
L 314.879708 86.983101 
L 315.285933 88.556731 
L 315.692157 88.545839 
L 316.098381 87.728458 
L 316.504606 88.700685 
L 316.91083 88.297904 
L 317.723279 88.66861 
L 318.129503 88.090551 
L 318.535728 88.35705 
L 318.941952 89.669473 
L 319.348177 87.842788 
L 319.754401 89.396284 
L 320.160626 88.086796 
L 320.56685 88.946329 
L 320.973074 88.376989 
L 321.379299 89.448402 
L 321.785523 88.317346 
L 322.191748 89.848556 
L 322.597972 87.773938 
L 323.004196 88.616837 
L 323.410421 87.649611 
L 323.816645 88.288327 
L 324.629094 88.833399 
L 325.035318 87.508976 
L 325.441543 88.689498 
L 325.847767 88.237124 
L 326.253992 88.439652 
L 326.660216 88.909657 
L 327.472665 88.069988 
L 327.878889 88.385164 
L 328.285114 88.040528 
L 328.691338 89.966079 
L 329.097562 89.383508 
L 329.503787 88.480114 
L 329.910011 88.331534 
L 330.316236 87.993117 
L 330.72246 88.435282 
L 331.128684 89.088978 
L 331.534909 88.715138 
L 331.941133 88.817957 
L 332.347358 88.489933 
L 332.753582 88.436089 
L 333.159807 88.218909 
L 333.566031 88.827099 
L 333.972255 88.726842 
L 334.37848 88.310722 
L 334.784704 88.248773 
L 335.190929 88.666051 
L 335.597153 89.681096 
L 336.409602 87.983229 
L 336.815826 88.770923 
L 337.222051 88.965 
L 337.628275 88.044483 
L 338.034499 89.204857 
L 338.440724 89.327612 
L 338.846948 88.414331 
L 339.253173 88.763159 
L 339.659397 88.206775 
L 340.065621 89.380977 
L 340.471846 89.473622 
L 340.87807 88.702666 
L 341.284295 88.666255 
L 341.690519 88.388698 
L 342.096743 88.982604 
L 342.502968 88.826653 
L 342.909192 87.479184 
L 343.721641 88.455316 
L 344.127865 88.575551 
L 344.53409 89.288628 
L 344.940314 88.591854 
L 345.346539 88.899648 
L 345.752763 88.521615 
L 346.158988 88.732173 
L 346.565212 88.196764 
L 347.377661 89.623608 
L 347.783885 88.348711 
L 348.19011 88.455745 
L 348.596334 88.293668 
L 349.002558 88.449216 
L 349.408783 88.336487 
L 349.815007 88.026423 
L 350.221232 88.253725 
L 350.627456 89.293154 
L 351.03368 89.212269 
L 351.439905 87.773051 
L 351.846129 88.638767 
L 352.252354 88.64441 
L 352.658578 88.496529 
L 353.064802 88.579358 
L 353.877251 88.243764 
L 354.283476 88.802657 
L 355.095924 88.283946 
L 355.502149 88.896913 
L 355.908373 88.770658 
L 356.314598 88.386835 
L 356.720822 88.744826 
L 357.127046 88.358076 
L 357.533271 89.423155 
L 357.939495 88.754888 
L 358.751944 89.069038 
L 359.158169 88.930436 
L 359.564393 89.257623 
L 359.970617 88.16997 
L 360.376842 89.094412 
L 360.783066 88.385857 
L 361.189291 89.124402 
L 361.595515 88.63881 
L 362.001739 89.009794 
L 362.407964 87.720943 
L 362.814188 88.128261 
L 363.220413 88.983284 
L 363.626637 88.188633 
L 364.032861 88.865314 
L 364.439086 88.407157 
L 364.84531 88.515696 
L 365.657759 87.668364 
L 366.063983 88.393218 
L 366.470208 88.090834 
L 367.282657 87.914154 
L 367.688881 87.846898 
L 368.095105 87.34036 
L 368.50133 88.686412 
L 368.907554 87.53661 
L 369.313779 87.691059 
L 369.720003 86.668432 
L 370.126227 87.491747 
L 370.938676 87.429635 
L 371.344901 86.200831 
L 371.751125 87.294021 
L 372.15735 86.463131 
L 372.563574 86.277429 
L 372.969798 85.713339 
L 373.376023 86.083978 
L 373.782247 84.841602 
L 374.594696 83.828148 
L 375.00092 82.815564 
L 375.407145 83.567529 
L 376.219594 82.660686 
L 377.438267 81.367706 
L 377.844491 79.7807 
L 378.250716 79.572912 
L 378.65694 78.643325 
L 379.063164 77.287618 
L 379.469389 77.431219 
L 379.875613 75.701802 
L 380.281838 74.952201 
L 380.688062 73.888257 
L 381.094286 73.406447 
L 381.500511 71.068981 
L 381.906735 71.983705 
L 382.31296 71.013602 
L 382.719184 68.543496 
L 383.125408 68.627987 
L 383.937857 64.772373 
L 384.344082 64.362005 
L 384.750306 64.27443 
L 385.156531 62.129553 
L 385.562755 60.820512 
L 385.968979 58.826989 
L 386.375204 57.8239 
L 386.781428 56.455699 
L 387.187653 55.809367 
L 387.593877 54.930293 
L 388.000101 52.63597 
L 388.406326 51.70154 
L 388.81255 51.265921 
L 389.218775 49.657169 
L 389.624999 48.731675 
L 390.031223 48.431258 
L 390.437448 46.179592 
L 391.249897 43.324978 
L 391.656121 43.837441 
L 392.062345 41.679419 
L 392.874794 41.229261 
L 393.281019 39.271414 
L 393.687243 39.6761 
L 394.093467 39.78731 
L 394.499692 39.470262 
L 394.905916 38.440659 
L 395.312141 38.605643 
L 396.124589 37.65219 
L 396.530814 37.438125 
L 396.937038 38.171856 
L 397.343263 38.342251 
L 397.749487 39.600526 
L 398.155712 39.417249 
L 398.561936 40.270126 
L 398.96816 40.719876 
L 399.374385 42.093463 
L 399.780609 42.305006 
L 400.186834 42.208152 
L 400.593058 44.42126 
L 400.999282 44.831212 
L 401.811731 46.409472 
L 402.217956 47.295813 
L 403.436629 52.304307 
L 403.842853 52.916694 
L 404.249078 54.287473 
L 404.655302 55.238692 
L 405.061526 56.691016 
L 405.467751 57.206804 
L 405.873975 58.435796 
L 406.2802 61.140426 
L 406.686424 61.340465 
L 407.092648 62.34709 
L 407.905097 66.661135 
L 408.311322 66.462013 
L 408.717546 68.625754 
L 409.12377 69.255943 
L 409.529995 70.385862 
L 409.936219 72.056427 
L 410.342444 71.967657 
L 410.748668 73.960064 
L 411.154893 73.877804 
L 411.561117 76.755041 
L 411.967341 76.148358 
L 412.373566 77.864862 
L 412.77979 78.286686 
L 413.186015 77.423024 
L 414.404688 80.788874 
L 414.810912 82.80548 
L 415.217137 81.506819 
L 415.623361 82.984621 
L 416.029585 82.559049 
L 416.43581 84.894779 
L 416.842034 83.920309 
L 417.248259 83.976381 
L 417.654483 86.112102 
L 418.060707 85.463548 
L 418.466932 85.308829 
L 418.873156 85.41868 
L 419.279381 86.414343 
L 419.685605 86.069462 
L 420.091829 86.580323 
L 420.498054 86.025225 
L 420.904278 87.525965 
L 421.310503 86.734623 
L 421.716727 87.80256 
L 422.122951 86.978765 
L 422.529176 88.132717 
L 422.9354 87.932761 
L 423.341625 87.985844 
L 423.747849 87.271022 
L 424.154074 88.296772 
L 424.560298 88.954308 
L 424.966522 88.820064 
L 425.372747 87.796742 
L 425.778971 88.066479 
L 426.997644 88.442574 
L 427.403869 86.986585 
L 427.810093 88.792131 
L 428.216318 88.777775 
L 428.622542 87.970232 
L 429.028766 88.119851 
L 429.841215 88.678186 
L 430.24744 88.777945 
L 430.653664 87.718535 
L 431.059888 88.219678 
L 431.466113 88.262269 
L 431.872337 89.429089 
L 432.278562 88.531934 
L 432.684786 88.326206 
L 433.09101 87.52563 
L 433.497235 88.661084 
L 433.903459 88.082618 
L 434.309684 89.253293 
L 434.715908 88.27449 
L 435.122132 89.046738 
L 435.934581 87.658262 
L 436.340806 89.23676 
L 436.74703 88.509693 
L 437.559479 88.769034 
L 437.965703 88.674221 
L 438.371928 88.856762 
L 438.778152 89.855218 
L 439.184377 88.827832 
L 439.590601 88.561302 
L 439.996825 89.177302 
L 440.40305 88.30409 
L 440.809274 87.993592 
L 441.215499 88.198322 
L 441.621723 89.790185 
L 442.027947 87.973915 
L 443.246621 88.624644 
L 443.652845 88.32016 
L 444.059069 88.381516 
L 444.465294 89.193814 
L 444.871518 89.30321 
L 445.277743 88.601698 
L 445.683967 88.763081 
L 446.090191 88.737004 
L 446.496416 89.026855 
L 446.90264 87.941357 
L 447.715089 89.364516 
L 448.121313 87.942986 
L 448.527538 88.338163 
L 449.339987 87.701466 
L 449.746211 88.06122 
L 450.152436 90.26095 
L 450.55866 88.426067 
L 450.964884 88.98464 
L 451.371109 88.281823 
L 451.777333 88.752285 
L 452.183558 89.605694 
L 452.589782 88.477502 
L 453.402231 88.422263 
L 453.808455 88.098166 
L 454.21468 88.538851 
L 454.620904 87.282649 
L 455.027128 88.766185 
L 455.433353 88.766388 
L 455.839577 88.089591 
L 456.245802 89.069751 
L 457.05825 88.37025 
L 457.464475 88.691274 
L 457.870699 88.65012 
L 458.276924 89.667562 
L 458.683148 88.030924 
L 459.089372 87.436526 
L 459.495597 88.352886 
L 459.901821 88.603543 
L 460.308046 88.523649 
L 460.71427 88.69253 
L 461.526719 89.430868 
L 461.932943 88.428295 
L 462.339168 88.322255 
L 462.745392 89.287025 
L 463.151617 87.937579 
L 463.557841 87.220663 
L 463.557841 87.220663 
" clip-path="url(#p90f3d429c7)" style="fill: none; stroke: #ff7f0e; stroke-width: 2; stroke-linecap: square"/>
   </g>
   <g id="line2d_18">
    <path d="M 57.739659 339.838125 
L 67.895269 339.838125 
L 68.301494 334.812929 
L 68.707718 339.838125 
L 69.113942 334.812929 
L 69.520167 339.838125 
L 70.73884 339.838125 
L 71.145064 334.812929 
L 71.551289 339.838125 
L 72.363738 339.838125 
L 72.769962 334.812929 
L 73.176187 334.812929 
L 73.582411 339.838125 
L 73.988635 339.838125 
L 74.39486 334.812929 
L 74.801084 334.812929 
L 75.207309 339.838125 
L 75.613533 339.838125 
L 76.425982 329.787733 
L 76.832206 339.838125 
L 77.238431 334.812929 
L 77.644655 339.838125 
L 78.050879 334.812929 
L 78.457104 339.838125 
L 78.863328 339.838125 
L 79.269553 329.787733 
L 79.675777 329.787733 
L 80.082001 339.838125 
L 80.488226 334.812929 
L 80.89445 334.812929 
L 81.300675 339.838125 
L 81.706899 334.812929 
L 82.113123 334.812929 
L 82.519348 324.762537 
L 82.925572 339.838125 
L 83.331797 334.812929 
L 83.738021 334.812929 
L 84.144245 339.838125 
L 84.55047 329.787733 
L 85.362919 339.838125 
L 86.175368 339.838125 
L 86.581592 334.812929 
L 86.987816 324.762537 
L 87.394041 339.838125 
L 87.800265 334.812929 
L 88.612714 334.812929 
L 89.018938 339.838125 
L 89.831387 329.787733 
L 90.237612 334.812929 
L 90.643836 329.787733 
L 91.05006 339.838125 
L 91.456285 334.812929 
L 91.862509 339.838125 
L 92.268734 339.838125 
L 92.674958 334.812929 
L 93.487407 334.812929 
L 93.893631 329.787733 
L 94.299856 339.838125 
L 94.70608 324.762537 
L 95.112304 339.838125 
L 95.518529 329.787733 
L 95.924753 334.812929 
L 96.330978 334.812929 
L 96.737202 329.787733 
L 97.143426 334.812929 
L 97.549651 334.812929 
L 97.955875 329.787733 
L 98.3621 334.812929 
L 98.768324 329.787733 
L 99.174549 329.787733 
L 99.580773 339.838125 
L 99.986997 339.838125 
L 100.393222 334.812929 
L 101.611895 334.812929 
L 102.018119 339.838125 
L 102.424344 329.787733 
L 102.830568 339.838125 
L 103.236793 339.838125 
L 103.643017 329.787733 
L 104.049241 339.838125 
L 104.455466 329.787733 
L 104.86169 334.812929 
L 105.674139 334.812929 
L 106.080363 339.838125 
L 106.892812 339.838125 
L 107.299037 329.787733 
L 108.51771 329.787733 
L 108.923934 339.838125 
L 109.736383 329.787733 
L 110.142607 339.838125 
L 110.548832 339.838125 
L 110.955056 324.762537 
L 111.361281 324.762537 
L 112.579954 339.838125 
L 113.798627 339.838125 
L 114.204852 324.762537 
L 115.0173 334.812929 
L 115.423525 329.787733 
L 115.829749 339.838125 
L 116.235974 329.787733 
L 116.642198 339.838125 
L 117.454647 329.787733 
L 117.860871 334.812929 
L 118.267096 329.787733 
L 118.67332 339.838125 
L 119.079544 329.787733 
L 119.485769 334.812929 
L 119.891993 334.812929 
L 120.704442 324.762537 
L 121.110666 334.812929 
L 121.516891 334.812929 
L 121.923115 329.787733 
L 122.32934 319.737341 
L 122.735564 329.787733 
L 123.141788 324.762537 
L 123.548013 334.812929 
L 123.954237 324.762537 
L 124.360462 334.812929 
L 124.766686 334.812929 
L 125.172911 324.762537 
L 125.579135 334.812929 
L 125.985359 334.812929 
L 126.391584 329.787733 
L 126.797808 329.787733 
L 127.204033 339.838125 
L 127.610257 329.787733 
L 128.016481 324.762537 
L 128.82893 324.762537 
L 129.235155 334.812929 
L 129.641379 339.838125 
L 130.047603 339.838125 
L 130.453828 329.787733 
L 130.860052 334.812929 
L 131.266277 329.787733 
L 131.672501 334.812929 
L 132.078725 334.812929 
L 132.48495 339.838125 
L 133.297399 309.686949 
L 133.703623 334.812929 
L 134.109847 324.762537 
L 134.516072 334.812929 
L 134.922296 324.762537 
L 135.328521 339.838125 
L 135.734745 329.787733 
L 136.140969 314.712145 
L 136.547194 329.787733 
L 136.953418 339.838125 
L 137.359643 339.838125 
L 137.765867 319.737341 
L 138.578316 339.838125 
L 138.98454 334.812929 
L 139.390765 334.812929 
L 139.796989 324.762537 
L 140.203214 334.812929 
L 140.609438 329.787733 
L 141.015662 329.787733 
L 141.828111 319.737341 
L 142.234336 319.737341 
L 142.64056 324.762537 
L 143.046784 334.812929 
L 143.453009 314.712145 
L 143.859233 319.737341 
L 144.265458 319.737341 
L 144.671682 329.787733 
L 145.077906 334.812929 
L 145.484131 309.686949 
L 145.890355 319.737341 
L 146.29658 319.737341 
L 146.702804 334.812929 
L 147.109028 329.787733 
L 147.515253 319.737341 
L 147.921477 324.762537 
L 148.733926 324.762537 
L 149.14015 314.712145 
L 149.546375 329.787733 
L 149.952599 329.787733 
L 150.358824 324.762537 
L 150.765048 334.812929 
L 151.577497 314.712145 
L 151.983721 334.812929 
L 152.79617 334.812929 
L 153.202395 329.787733 
L 153.608619 309.686949 
L 154.014843 319.737341 
L 154.421068 304.661753 
L 154.827292 314.712145 
L 155.233517 304.661753 
L 155.639741 309.686949 
L 156.045965 319.737341 
L 156.45219 289.586165 
L 156.858414 294.611361 
L 157.670863 294.611361 
L 158.077087 319.737341 
L 158.483312 294.611361 
L 158.889536 289.586165 
L 159.295761 309.686949 
L 159.701985 309.686949 
L 160.514434 279.535773 
L 160.920658 289.586165 
L 161.326883 289.586165 
L 161.733107 334.812929 
L 162.139331 279.535773 
L 162.545556 299.636557 
L 162.95178 294.611361 
L 163.358005 319.737341 
L 163.764229 299.636557 
L 164.170454 289.586165 
L 164.576678 309.686949 
L 164.982902 269.485381 
L 165.389127 264.460185 
L 165.795351 269.485381 
L 166.201576 299.636557 
L 166.6078 299.636557 
L 167.014024 244.359401 
L 167.420249 264.460185 
L 167.826473 294.611361 
L 168.232698 249.384597 
L 168.638922 264.460185 
L 169.045146 269.485381 
L 169.451371 279.535773 
L 169.857595 274.510577 
L 170.26382 259.434989 
L 170.670044 294.611361 
L 171.076268 284.560969 
L 171.482493 279.535773 
L 171.888717 284.560969 
L 172.701166 264.460185 
L 173.10739 299.636557 
L 173.513615 289.586165 
L 173.919839 249.384597 
L 174.326064 254.409793 
L 175.138512 284.560969 
L 175.544737 274.510577 
L 175.950961 254.409793 
L 176.357186 279.535773 
L 176.76341 284.560969 
L 177.169635 264.460185 
L 177.575859 299.636557 
L 177.982083 274.510577 
L 178.388308 274.510577 
L 178.794532 289.586165 
L 179.200757 289.586165 
L 179.606981 284.560969 
L 180.013205 304.661753 
L 180.41943 314.712145 
L 180.825654 289.586165 
L 181.231879 284.560969 
L 181.638103 314.712145 
L 182.044327 299.636557 
L 182.450552 294.611361 
L 182.856776 279.535773 
L 183.263001 309.686949 
L 184.075449 309.686949 
L 184.481674 294.611361 
L 184.887898 289.586165 
L 185.294123 304.661753 
L 185.700347 309.686949 
L 186.106571 299.636557 
L 186.512796 299.636557 
L 186.91902 309.686949 
L 187.325245 314.712145 
L 187.731469 304.661753 
L 188.137693 314.712145 
L 188.543918 309.686949 
L 188.950142 289.586165 
L 189.356367 314.712145 
L 189.762591 314.712145 
L 190.168816 329.787733 
L 190.57504 314.712145 
L 190.981264 314.712145 
L 191.387489 319.737341 
L 191.793713 329.787733 
L 192.199938 309.686949 
L 192.606162 324.762537 
L 193.418611 324.762537 
L 193.824835 319.737341 
L 194.23106 334.812929 
L 195.043508 314.712145 
L 195.449733 329.787733 
L 195.855957 329.787733 
L 196.262182 324.762537 
L 196.668406 314.712145 
L 197.07463 324.762537 
L 197.480855 324.762537 
L 197.887079 329.787733 
L 198.293304 319.737341 
L 198.699528 304.661753 
L 199.105752 319.737341 
L 199.511977 329.787733 
L 200.324426 309.686949 
L 200.73065 329.787733 
L 201.543099 329.787733 
L 201.949323 309.686949 
L 202.355548 304.661753 
L 202.761772 324.762537 
L 203.167997 329.787733 
L 203.574221 309.686949 
L 203.980445 309.686949 
L 204.38667 334.812929 
L 204.792894 324.762537 
L 205.199119 329.787733 
L 205.605343 319.737341 
L 206.011567 329.787733 
L 206.417792 329.787733 
L 206.824016 324.762537 
L 207.230241 314.712145 
L 207.636465 334.812929 
L 208.042689 314.712145 
L 208.448914 309.686949 
L 208.855138 314.712145 
L 209.261363 334.812929 
L 209.667587 324.762537 
L 210.073811 329.787733 
L 210.88626 319.737341 
L 211.292485 319.737341 
L 211.698709 329.787733 
L 212.104933 329.787733 
L 212.511158 319.737341 
L 212.917382 324.762537 
L 213.323607 324.762537 
L 214.136055 334.812929 
L 214.54228 329.787733 
L 214.948504 329.787733 
L 215.760953 309.686949 
L 216.167178 324.762537 
L 216.979626 304.661753 
L 217.385851 324.762537 
L 217.792075 324.762537 
L 218.1983 309.686949 
L 218.604524 319.737341 
L 219.010748 304.661753 
L 219.416973 334.812929 
L 219.823197 314.712145 
L 220.229422 339.838125 
L 220.635646 324.762537 
L 221.04187 324.762537 
L 221.448095 339.838125 
L 221.854319 324.762537 
L 222.260544 329.787733 
L 222.666768 319.737341 
L 223.072992 314.712145 
L 223.479217 324.762537 
L 223.885441 324.762537 
L 224.291666 304.661753 
L 224.69789 324.762537 
L 225.104114 314.712145 
L 225.510339 314.712145 
L 226.322788 324.762537 
L 226.729012 324.762537 
L 227.135236 319.737341 
L 227.541461 324.762537 
L 227.947685 319.737341 
L 228.35391 319.737341 
L 228.760134 314.712145 
L 229.166359 334.812929 
L 229.572583 329.787733 
L 229.978807 314.712145 
L 230.385032 304.661753 
L 230.791256 309.686949 
L 231.197481 319.737341 
L 231.603705 314.712145 
L 232.822378 314.712145 
L 233.228603 304.661753 
L 233.634827 334.812929 
L 234.041051 304.661753 
L 234.8535 334.812929 
L 235.259725 284.560969 
L 235.665949 329.787733 
L 236.072173 329.787733 
L 236.478398 314.712145 
L 236.884622 319.737341 
L 237.290847 309.686949 
L 237.697071 334.812929 
L 238.103295 289.586165 
L 238.50952 334.812929 
L 238.915744 329.787733 
L 239.321969 304.661753 
L 239.728193 314.712145 
L 240.134417 319.737341 
L 240.540642 329.787733 
L 240.946866 329.787733 
L 241.353091 309.686949 
L 241.759315 324.762537 
L 242.16554 309.686949 
L 242.571764 309.686949 
L 242.977988 314.712145 
L 243.384213 324.762537 
L 243.790437 319.737341 
L 244.196662 294.611361 
L 244.602886 329.787733 
L 245.00911 309.686949 
L 245.415335 314.712145 
L 245.821559 334.812929 
L 246.227784 309.686949 
L 247.040232 329.787733 
L 247.446457 319.737341 
L 247.852681 314.712145 
L 248.258906 324.762537 
L 248.66513 319.737341 
L 249.477579 329.787733 
L 249.883803 314.712145 
L 250.290028 309.686949 
L 250.696252 314.712145 
L 251.102476 304.661753 
L 251.508701 324.762537 
L 251.914925 324.762537 
L 252.32115 309.686949 
L 252.727374 329.787733 
L 253.133598 319.737341 
L 253.539823 304.661753 
L 253.946047 334.812929 
L 254.352272 304.661753 
L 254.758496 319.737341 
L 255.164721 309.686949 
L 255.570945 314.712145 
L 255.977169 274.510577 
L 256.383394 314.712145 
L 256.789618 314.712145 
L 257.195843 309.686949 
L 257.602067 299.636557 
L 258.414516 329.787733 
L 258.82074 309.686949 
L 259.226965 279.535773 
L 259.633189 309.686949 
L 260.039413 304.661753 
L 260.445638 314.712145 
L 260.851862 319.737341 
L 261.258087 314.712145 
L 261.664311 324.762537 
L 262.070535 309.686949 
L 262.47676 314.712145 
L 262.882984 314.712145 
L 263.289209 309.686949 
L 263.695433 314.712145 
L 264.101657 304.661753 
L 264.507882 304.661753 
L 264.914106 334.812929 
L 265.320331 289.586165 
L 266.132779 329.787733 
L 266.539004 319.737341 
L 266.945228 294.611361 
L 267.351453 309.686949 
L 267.757677 314.712145 
L 268.163902 314.712145 
L 268.570126 319.737341 
L 268.97635 309.686949 
L 269.382575 314.712145 
L 269.788799 299.636557 
L 270.195024 279.535773 
L 270.601248 294.611361 
L 271.007472 284.560969 
L 271.413697 284.560969 
L 271.819921 294.611361 
L 272.226146 269.485381 
L 272.63237 279.535773 
L 273.038594 264.460185 
L 273.444819 269.485381 
L 273.851043 269.485381 
L 274.257268 284.560969 
L 274.663492 279.535773 
L 275.069716 269.485381 
L 275.475941 279.535773 
L 275.882165 269.485381 
L 276.28839 269.485381 
L 276.694614 294.611361 
L 277.100838 284.560969 
L 277.507063 234.309008 
L 277.913287 259.434989 
L 278.319512 274.510577 
L 278.725736 284.560969 
L 279.13196 269.485381 
L 279.538185 239.334204 
L 279.944409 244.359401 
L 280.350634 284.560969 
L 280.756858 259.434989 
L 281.163083 264.460185 
L 281.569307 259.434989 
L 281.975531 249.384597 
L 282.381756 264.460185 
L 282.78798 239.334204 
L 283.194205 269.485381 
L 283.600429 269.485381 
L 284.006653 289.586165 
L 284.412878 234.309008 
L 284.819102 284.560969 
L 285.225327 259.434989 
L 285.631551 259.434989 
L 286.037775 269.485381 
L 286.444 264.460185 
L 286.850224 264.460185 
L 287.256449 284.560969 
L 287.662673 294.611361 
L 288.068897 264.460185 
L 288.475122 259.434989 
L 288.881346 269.485381 
L 289.287571 274.510577 
L 289.693795 269.485381 
L 290.100019 289.586165 
L 290.506244 289.586165 
L 290.912468 304.661753 
L 291.318693 239.334204 
L 291.724917 274.510577 
L 292.131141 264.460185 
L 292.537366 274.510577 
L 293.349815 284.560969 
L 293.756039 319.737341 
L 294.162264 294.611361 
L 294.568488 289.586165 
L 294.974712 294.611361 
L 295.380937 279.535773 
L 295.787161 304.661753 
L 296.193386 239.334204 
L 296.59961 254.409793 
L 297.005834 299.636557 
L 297.412059 299.636557 
L 297.818283 284.560969 
L 298.224508 274.510577 
L 298.630732 284.560969 
L 299.036956 289.586165 
L 299.443181 309.686949 
L 299.849405 299.636557 
L 300.25563 309.686949 
L 300.661854 309.686949 
L 301.068078 304.661753 
L 301.474303 294.611361 
L 301.880527 289.586165 
L 302.286752 309.686949 
L 302.692976 289.586165 
L 303.0992 304.661753 
L 303.505425 304.661753 
L 303.911649 324.762537 
L 304.317874 299.636557 
L 304.724098 314.712145 
L 305.130322 279.535773 
L 305.536547 304.661753 
L 305.942771 299.636557 
L 306.348996 289.586165 
L 306.75522 319.737341 
L 307.161445 299.636557 
L 307.567669 299.636557 
L 307.973893 309.686949 
L 308.380118 309.686949 
L 308.786342 314.712145 
L 309.192567 299.636557 
L 309.598791 324.762537 
L 310.005015 319.737341 
L 310.41124 309.686949 
L 311.223689 309.686949 
L 311.629913 314.712145 
L 312.036137 314.712145 
L 312.442362 304.661753 
L 312.848586 324.762537 
L 313.254811 284.560969 
L 313.661035 314.712145 
L 314.067259 299.636557 
L 314.473484 289.586165 
L 314.879708 289.586165 
L 315.285933 294.611361 
L 315.692157 314.712145 
L 316.098381 299.636557 
L 316.504606 304.661753 
L 316.91083 304.661753 
L 317.723279 314.712145 
L 318.129503 284.560969 
L 318.535728 309.686949 
L 318.941952 299.636557 
L 319.348177 299.636557 
L 319.754401 309.686949 
L 320.160626 304.661753 
L 320.56685 319.737341 
L 320.973074 304.661753 
L 321.379299 279.535773 
L 321.785523 319.737341 
L 322.191748 309.686949 
L 322.597972 319.737341 
L 323.004196 324.762537 
L 323.410421 309.686949 
L 323.816645 324.762537 
L 324.22287 314.712145 
L 324.629094 294.611361 
L 325.441543 294.611361 
L 325.847767 289.586165 
L 326.253992 304.661753 
L 327.06644 294.611361 
L 327.472665 299.636557 
L 327.878889 329.787733 
L 328.285114 319.737341 
L 328.691338 314.712145 
L 329.097562 279.535773 
L 329.503787 289.586165 
L 329.910011 309.686949 
L 330.72246 309.686949 
L 331.128684 294.611361 
L 331.534909 294.611361 
L 331.941133 314.712145 
L 332.347358 269.485381 
L 332.753582 319.737341 
L 333.566031 319.737341 
L 333.972255 304.661753 
L 334.784704 304.661753 
L 335.190929 294.611361 
L 336.003377 294.611361 
L 336.409602 304.661753 
L 336.815826 289.586165 
L 337.222051 304.661753 
L 337.628275 274.510577 
L 338.034499 309.686949 
L 338.440724 309.686949 
L 338.846948 334.812929 
L 339.659397 304.661753 
L 340.065621 314.712145 
L 340.471846 314.712145 
L 340.87807 309.686949 
L 341.284295 299.636557 
L 341.690519 274.510577 
L 342.502968 329.787733 
L 342.909192 309.686949 
L 343.315417 319.737341 
L 343.721641 284.560969 
L 344.127865 324.762537 
L 344.940314 289.586165 
L 345.346539 319.737341 
L 345.752763 309.686949 
L 346.158988 294.611361 
L 346.565212 309.686949 
L 346.971436 294.611361 
L 347.377661 329.787733 
L 347.783885 299.636557 
L 348.19011 299.636557 
L 348.596334 304.661753 
L 349.002558 299.636557 
L 349.408783 289.586165 
L 349.815007 294.611361 
L 350.221232 309.686949 
L 350.627456 329.787733 
L 351.03368 299.636557 
L 351.439905 319.737341 
L 351.846129 299.636557 
L 352.252354 299.636557 
L 352.658578 309.686949 
L 353.064802 304.661753 
L 353.471027 304.661753 
L 353.877251 289.586165 
L 354.283476 299.636557 
L 354.6897 304.661753 
L 355.095924 319.737341 
L 355.502149 324.762537 
L 355.908373 309.686949 
L 356.314598 309.686949 
L 357.127046 289.586165 
L 357.533271 299.636557 
L 357.939495 299.636557 
L 358.751944 319.737341 
L 359.158169 299.636557 
L 359.564393 299.636557 
L 359.970617 304.661753 
L 360.783066 304.661753 
L 361.189291 269.485381 
L 361.595515 299.636557 
L 362.001739 279.535773 
L 362.407964 299.636557 
L 362.814188 304.661753 
L 363.220413 294.611361 
L 363.626637 294.611361 
L 364.032861 304.661753 
L 364.439086 284.560969 
L 364.84531 309.686949 
L 365.251535 274.510577 
L 365.657759 274.510577 
L 366.063983 289.586165 
L 366.470208 299.636557 
L 367.282657 279.535773 
L 367.688881 304.661753 
L 368.095105 319.737341 
L 368.50133 324.762537 
L 368.907554 299.636557 
L 369.313779 259.434989 
L 369.720003 309.686949 
L 370.126227 319.737341 
L 370.532452 274.510577 
L 370.938676 304.661753 
L 371.344901 289.586165 
L 371.751125 289.586165 
L 372.15735 284.560969 
L 372.563574 304.661753 
L 372.969798 279.535773 
L 373.376023 284.560969 
L 373.782247 314.712145 
L 374.188472 304.661753 
L 374.594696 279.535773 
L 375.00092 304.661753 
L 375.407145 289.586165 
L 375.813369 294.611361 
L 376.219594 294.611361 
L 376.625818 289.586165 
L 377.032042 304.661753 
L 377.438267 274.510577 
L 377.844491 294.611361 
L 378.250716 284.560969 
L 379.063164 284.560969 
L 379.469389 279.535773 
L 379.875613 279.535773 
L 380.281838 314.712145 
L 380.688062 259.434989 
L 381.094286 289.586165 
L 381.500511 279.535773 
L 381.906735 259.434989 
L 382.31296 274.510577 
L 382.719184 269.485381 
L 383.125408 279.535773 
L 383.531633 254.409793 
L 383.937857 304.661753 
L 384.750306 259.434989 
L 385.156531 274.510577 
L 385.562755 284.560969 
L 385.968979 264.460185 
L 386.375204 259.434989 
L 386.781428 264.460185 
L 387.187653 279.535773 
L 387.593877 259.434989 
L 388.000101 254.409793 
L 388.406326 259.434989 
L 388.81255 284.560969 
L 389.218775 254.409793 
L 389.624999 259.434989 
L 390.031223 219.23342 
L 390.437448 264.460185 
L 390.843672 234.309008 
L 391.249897 264.460185 
L 391.656121 264.460185 
L 392.062345 249.384597 
L 392.46857 289.586165 
L 392.874794 259.434989 
L 393.281019 244.359401 
L 393.687243 234.309008 
L 394.093467 244.359401 
L 394.499692 244.359401 
L 394.905916 264.460185 
L 395.312141 249.384597 
L 395.718365 264.460185 
L 396.124589 244.359401 
L 396.530814 239.334204 
L 396.937038 279.535773 
L 397.343263 234.309008 
L 397.749487 294.611361 
L 398.155712 264.460185 
L 398.561936 219.23342 
L 399.374385 269.485381 
L 399.780609 254.409793 
L 400.186834 249.384597 
L 400.593058 259.434989 
L 400.999282 274.510577 
L 401.405507 199.132636 
L 401.811731 264.460185 
L 402.217956 229.283812 
L 402.62418 229.283812 
L 403.436629 274.510577 
L 403.842853 274.510577 
L 404.249078 244.359401 
L 404.655302 284.560969 
L 405.061526 259.434989 
L 405.467751 289.586165 
L 405.873975 279.535773 
L 406.2802 244.359401 
L 406.686424 284.560969 
L 407.092648 284.560969 
L 407.498873 274.510577 
L 407.905097 254.409793 
L 408.311322 264.460185 
L 408.717546 304.661753 
L 409.12377 309.686949 
L 409.529995 249.384597 
L 409.936219 259.434989 
L 410.342444 279.535773 
L 410.748668 269.485381 
L 411.154893 249.384597 
L 411.561117 309.686949 
L 411.967341 279.535773 
L 412.373566 314.712145 
L 412.77979 249.384597 
L 413.186015 299.636557 
L 413.998463 289.586165 
L 414.404688 289.586165 
L 414.810912 269.485381 
L 415.217137 284.560969 
L 416.029585 294.611361 
L 416.43581 324.762537 
L 416.842034 274.510577 
L 417.248259 299.636557 
L 417.654483 289.586165 
L 418.060707 294.611361 
L 418.466932 294.611361 
L 418.873156 254.409793 
L 419.279381 294.611361 
L 419.685605 294.611361 
L 420.498054 304.661753 
L 420.904278 294.611361 
L 421.310503 294.611361 
L 421.716727 299.636557 
L 422.122951 289.586165 
L 422.529176 314.712145 
L 422.9354 284.560969 
L 423.341625 269.485381 
L 423.747849 314.712145 
L 424.154074 274.510577 
L 424.560298 284.560969 
L 424.966522 274.510577 
L 425.372747 299.636557 
L 426.185196 289.586165 
L 426.59142 289.586165 
L 426.997644 279.535773 
L 427.403869 279.535773 
L 427.810093 294.611361 
L 428.216318 314.712145 
L 428.622542 289.586165 
L 429.028766 289.586165 
L 429.434991 264.460185 
L 429.841215 284.560969 
L 430.24744 294.611361 
L 431.059888 264.460185 
L 431.466113 299.636557 
L 431.872337 274.510577 
L 432.684786 284.560969 
L 433.09101 284.560969 
L 433.497235 294.611361 
L 433.903459 279.535773 
L 434.309684 319.737341 
L 434.715908 284.560969 
L 435.122132 309.686949 
L 435.528357 319.737341 
L 435.934581 309.686949 
L 436.340806 304.661753 
L 436.74703 294.611361 
L 437.153255 309.686949 
L 437.559479 279.535773 
L 437.965703 289.586165 
L 438.371928 304.661753 
L 438.778152 294.611361 
L 439.184377 304.661753 
L 439.590601 294.611361 
L 439.996825 274.510577 
L 440.40305 304.661753 
L 440.809274 284.560969 
L 441.215499 299.636557 
L 441.621723 274.510577 
L 442.027947 299.636557 
L 442.434172 279.535773 
L 442.840396 294.611361 
L 443.246621 299.636557 
L 443.652845 294.611361 
L 444.059069 284.560969 
L 444.465294 299.636557 
L 444.871518 289.586165 
L 445.277743 319.737341 
L 445.683967 279.535773 
L 446.090191 304.661753 
L 446.496416 304.661753 
L 446.90264 324.762537 
L 447.308865 279.535773 
L 447.715089 299.636557 
L 448.121313 289.586165 
L 448.527538 269.485381 
L 448.933762 269.485381 
L 449.339987 289.586165 
L 449.746211 294.611361 
L 450.152436 309.686949 
L 450.964884 279.535773 
L 451.371109 294.611361 
L 451.777333 294.611361 
L 452.183558 289.586165 
L 452.996006 249.384597 
L 453.402231 294.611361 
L 454.21468 284.560969 
L 454.620904 289.586165 
L 455.027128 284.560969 
L 455.433353 269.485381 
L 455.839577 274.510577 
L 456.245802 254.409793 
L 456.652026 304.661753 
L 457.05825 319.737341 
L 457.464475 294.611361 
L 457.870699 299.636557 
L 458.276924 274.510577 
L 458.683148 309.686949 
L 459.089372 304.661753 
L 459.495597 289.586165 
L 460.308046 279.535773 
L 460.71427 289.586165 
L 461.120494 269.485381 
L 461.526719 284.560969 
L 461.932943 269.485381 
L 462.339168 289.586165 
L 462.745392 269.485381 
L 463.151617 309.686949 
L 463.557841 274.510577 
L 463.557841 274.510577 
" clip-path="url(#p90f3d429c7)" style="fill: none; stroke: #2ca02c; stroke-width: 2; stroke-linecap: square"/>
   </g>
   <g id="line2d_19">
    <path d="M 57.739659 339.838125 
L 138.578316 339.740061 
L 142.234336 339.51293 
L 144.671682 339.171235 
L 146.702804 338.68339 
L 148.327702 338.103707 
L 149.952599 337.306977 
L 151.577497 336.249125 
L 153.202395 334.893634 
L 154.827292 333.219586 
L 156.45219 331.230269 
L 158.483312 328.357328 
L 162.139331 322.624923 
L 164.576678 319.043865 
L 166.201576 317.085576 
L 167.420249 315.952489 
L 168.638922 315.165919 
L 169.451371 314.853082 
L 170.26382 314.717798 
L 171.076268 314.762974 
L 171.888717 314.987638 
L 172.701166 315.386973 
L 173.919839 316.293978 
L 175.138512 317.531647 
L 176.76341 319.597799 
L 178.794532 322.624923 
L 183.669225 330.126968 
L 185.700347 332.751035 
L 187.325245 334.505336 
L 188.950142 335.939306 
L 190.57504 337.068608 
L 192.199938 337.926656 
L 193.824835 338.556317 
L 195.855957 339.091155 
L 198.293304 339.469926 
L 201.543099 339.708503 
L 206.824016 339.819539 
L 225.510339 339.838123 
L 251.508701 339.732906 
L 255.164721 339.492018 
L 257.602067 339.132171 
L 259.633189 338.621238 
L 261.258087 338.016922 
L 262.882984 337.189878 
L 264.507882 336.09658 
L 266.132779 334.701998 
L 267.757677 332.987775 
L 269.382575 330.9608 
L 271.413697 328.051082 
L 277.913287 318.257367 
L 279.13196 316.874712 
L 280.350634 315.796125 
L 281.569307 315.071367 
L 282.381756 314.802436 
L 283.194205 314.712145 
L 284.006653 314.802436 
L 284.819102 315.071367 
L 285.631551 315.513181 
L 286.850224 316.478661 
L 288.068897 317.766295 
L 289.693795 319.882682 
L 291.724917 322.943398 
L 296.193386 329.84097 
L 298.224508 332.509412 
L 299.849405 334.303635 
L 301.474303 335.777249 
L 303.0992 336.943088 
L 304.724098 337.832818 
L 306.348996 338.488541 
L 308.380118 339.048111 
L 310.817464 339.4466 
L 314.067259 339.699295 
L 318.941952 339.814506 
L 334.37848 339.838109 
L 364.032861 339.740061 
L 367.688881 339.51293 
L 370.126227 339.171235 
L 372.15735 338.68339 
L 373.782247 338.103707 
L 375.407145 337.306977 
L 377.032042 336.249125 
L 378.65694 334.893634 
L 380.281838 333.219586 
L 381.906735 331.230269 
L 383.937857 328.357328 
L 387.593877 322.624923 
L 390.031223 319.043865 
L 391.656121 317.085576 
L 392.874794 315.952489 
L 394.093467 315.165919 
L 394.905916 314.853082 
L 395.718365 314.717798 
L 396.530814 314.762974 
L 397.343263 314.987638 
L 398.155712 315.386973 
L 399.374385 316.293978 
L 400.593058 317.531647 
L 402.217956 319.597799 
L 404.249078 322.624923 
L 409.12377 330.126968 
L 411.154893 332.751035 
L 412.77979 334.505336 
L 414.404688 335.939306 
L 416.029585 337.068608 
L 417.654483 337.926656 
L 419.279381 338.556317 
L 421.310503 339.091155 
L 423.747849 339.469926 
L 426.997644 339.708503 
L 432.278562 339.819539 
L 450.964884 339.838123 
L 463.557841 339.838125 
L 463.557841 339.838125 
" clip-path="url(#p90f3d429c7)" style="fill: none; stroke: #d62728; stroke-width: 2; stroke-linecap: square"/>
   </g>
   <g id="patch_3">
    <path d="M 37.44875 354.958125 
L 37.44875 22.318125 
" style="fill: none; stroke: #000000; stroke-width: 0.8; stroke-linejoin: miter; stroke-linecap: square"/>
   </g>
   <g id="patch_4">
    <path d="M 483.84875 354.958125 
L 483.84875 22.318125 
" style="fill: none; stroke: #000000; stroke-width: 0.8; stroke-linejoin: miter; stroke-linecap: square"/>
   </g>
   <g id="patch_5">
    <path d="M 37.44875 354.958125 
L 483.84875 354.958125 
" style="fill: none; stroke: #000000; stroke-width: 0.8; stroke-linejoin: miter; stroke-linecap: square"/>
   </g>
   <g id="patch_6">
    <path d="M 37.44875 22.318125 
L 483.84875 22.318125 
" style="fill: none; stroke: #000000; stroke-width: 0.8; stroke-linejoin: miter; stroke-linecap: square"/>
   </g>
   <g id="text_18">
    <!-- Signal Collection -->
    <g transform="translate(210.632188 16.318125) scale(0.12 -0.12)">
     <defs>
      <path id="DejaVuSans-53" d="M 3425 4513 
L 3425 3897 
Q 3066 4069 2747 4153 
Q 2428 4238 2131 4238 
Q 1616 4238 1336 4038 
Q 1056 3838 1056 3469 
Q 1056 3159 1242 3001 
Q 1428 2844 1947 2747 
L 2328 2669 
Q 3034 2534 3370 2195 
Q 3706 1856 3706 1288 
Q 3706 609 3251 259 
Q 2797 -91 1919 -91 
Q 1588 -91 1214 -16 
Q 841 59 441 206 
L 441 856 
Q 825 641 1194 531 
Q 1563 422 1919 422 
Q 2459 422 2753 634 
Q 3047 847 3047 1241 
Q 3047 1584 2836 1778 
Q 2625 1972 2144 2069 
L 1759 2144 
Q 1053 2284 737 2584 
Q 422 2884 422 3419 
Q 422 4038 858 4394 
Q 1294 4750 2059 4750 
Q 2388 4750 2728 4690 
Q 3069 4631 3425 4513 
z
" transform="scale(0.015625)"/>
      <path id="DejaVuSans-67" d="M 2906 1791 
Q 2906 2416 2648 2759 
Q 2391 3103 1925 3103 
Q 1463 3103 1205 2759 
Q 947 2416 947 1791 
Q 947 1169 1205 825 
Q 1463 481 1925 481 
Q 2391 481 2648 825 
Q 2906 1169 2906 1791 
z
M 3481 434 
Q 3481 -459 3084 -895 
Q 2688 -1331 1869 -1331 
Q 1566 -1331 1297 -1286 
Q 1028 -1241 775 -1147 
L 775 -588 
Q 1028 -725 1275 -790 
Q 1522 -856 1778 -856 
Q 2344 -856 2625 -561 
Q 2906 -266 2906 331 
L 2906 616 
Q 2728 306 2450 153 
Q 2172 0 1784 0 
Q 1141 0 747 490 
Q 353 981 353 1791 
Q 353 2603 747 3093 
Q 1141 3584 1784 3584 
Q 2172 3584 2450 3431 
Q 2728 3278 2906 2969 
L 2906 3500 
L 3481 3500 
L 3481 434 
z
" transform="scale(0.015625)"/>
      <path id="DejaVuSans-6c" d="M 603 4863 
L 1178 4863 
L 1178 0 
L 603 0 
L 603 4863 
z
" transform="scale(0.015625)"/>
      <path id="DejaVuSans-43" d="M 4122 4306 
L 4122 3641 
Q 3803 3938 3442 4084 
Q 3081 4231 2675 4231 
Q 1875 4231 1450 3742 
Q 1025 3253 1025 2328 
Q 1025 1406 1450 917 
Q 1875 428 2675 428 
Q 3081 428 3442 575 
Q 3803 722 4122 1019 
L 4122 359 
Q 3791 134 3420 21 
Q 3050 -91 2638 -91 
Q 1578 -91 968 557 
Q 359 1206 359 2328 
Q 359 3453 968 4101 
Q 1578 4750 2638 4750 
Q 3056 4750 3426 4639 
Q 3797 4528 4122 4306 
z
" transform="scale(0.015625)"/>
      <path id="DejaVuSans-6f" d="M 1959 3097 
Q 1497 3097 1228 2736 
Q 959 2375 959 1747 
Q 959 1119 1226 758 
Q 1494 397 1959 397 
Q 2419 397 2687 759 
Q 2956 1122 2956 1747 
Q 2956 2369 2687 2733 
Q 2419 3097 1959 3097 
z
M 1959 3584 
Q 2709 3584 3137 3096 
Q 3566 2609 3566 1747 
Q 3566 888 3137 398 
Q 2709 -91 1959 -91 
Q 1206 -91 779 398 
Q 353 888 353 1747 
Q 353 2609 779 3096 
Q 1206 3584 1959 3584 
z
" transform="scale(0.015625)"/>
      <path id="DejaVuSans-63" d="M 3122 3366 
L 3122 2828 
Q 2878 2963 2633 3030 
Q 2388 3097 2138 3097 
Q 1578 3097 1268 2742 
Q 959 2388 959 1747 
Q 959 1106 1268 751 
Q 1578 397 2138 397 
Q 2388 397 2633 464 
Q 2878 531 3122 666 
L 3122 134 
Q 2881 22 2623 -34 
Q 2366 -91 2075 -91 
Q 1284 -91 818 406 
Q 353 903 353 1747 
Q 353 2603 823 3093 
Q 1294 3584 2113 3584 
Q 2378 3584 2631 3529 
Q 2884 3475 3122 3366 
z
" transform="scale(0.015625)"/>
     </defs>
     <use xlink:href="#DejaVuSans-53"/>
     <use xlink:href="#DejaVuSans-69" transform="translate(63.476562 0)"/>
     <use xlink:href="#DejaVuSans-67" transform="translate(91.259766 0)"/>
     <use xlink:href="#DejaVuSans-6e" transform="translate(154.736328 0)"/>
     <use xlink:href="#DejaVuSans-61" transform="translate(218.115234 0)"/>
     <use xlink:href="#DejaVuSans-6c" transform="translate(279.394531 0)"/>
     <use xlink:href="#DejaVuSans-20" transform="translate(307.177734 0)"/>
     <use xlink:href="#DejaVuSans-43" transform="translate(338.964844 0)"/>
     <use xlink:href="#DejaVuSans-6f" transform="translate(408.789062 0)"/>
     <use xlink:href="#DejaVuSans-6c" transform="translate(469.970703 0)"/>
     <use xlink:href="#DejaVuSans-6c" transform="translate(497.753906 0)"/>
     <use xlink:href="#DejaVuSans-65" transform="translate(525.537109 0)"/>
     <use xlink:href="#DejaVuSans-63" transform="translate(587.060547 0)"/>
     <use xlink:href="#DejaVuSans-74" transform="translate(642.041016 0)"/>
     <use xlink:href="#DejaVuSans-69" transform="translate(681.25 0)"/>
     <use xlink:href="#DejaVuSans-6f" transform="translate(709.033203 0)"/>
     <use xlink:href="#DejaVuSans-6e" transform="translate(770.214844 0)"/>
    </g>
   </g>
   <g id="legend_1">
    <g id="patch_7">
     <path d="M 45.84875 226.333125 
L 195.695 226.333125 
Q 198.095 226.333125 198.095 223.933125 
L 198.095 153.343125 
Q 198.095 150.943125 195.695 150.943125 
L 45.84875 150.943125 
Q 43.44875 150.943125 43.44875 153.343125 
L 43.44875 223.933125 
Q 43.44875 226.333125 45.84875 226.333125 
z
" style="fill: #ffffff; opacity: 0.8; stroke: #cccccc; stroke-linejoin: miter"/>
    </g>
    <g id="line2d_20">
     <path d="M 48.24875 160.66125 
L 60.24875 160.66125 
L 72.24875 160.66125 
" style="fill: none; stroke: #1f77b4; stroke-width: 2; stroke-linecap: square"/>
    </g>
    <g id="text_19">
     <!-- from_peaks -->
     <g transform="translate(81.84875 164.86125) scale(0.12 -0.12)">
      <defs>
       <path id="DejaVuSans-66" d="M 2375 4863 
L 2375 4384 
L 1825 4384 
Q 1516 4384 1395 4259 
Q 1275 4134 1275 3809 
L 1275 3500 
L 2222 3500 
L 2222 3053 
L 1275 3053 
L 1275 0 
L 697 0 
L 697 3053 
L 147 3053 
L 147 3500 
L 697 3500 
L 697 3744 
Q 697 4328 969 4595 
Q 1241 4863 1831 4863 
L 2375 4863 
z
" transform="scale(0.015625)"/>
       <path id="DejaVuSans-72" d="M 2631 2963 
Q 2534 3019 2420 3045 
Q 2306 3072 2169 3072 
Q 1681 3072 1420 2755 
Q 1159 2438 1159 1844 
L 1159 0 
L 581 0 
L 581 3500 
L 1159 3500 
L 1159 2956 
Q 1341 3275 1631 3429 
Q 1922 3584 2338 3584 
Q 2397 3584 2469 3576 
Q 2541 3569 2628 3553 
L 2631 2963 
z
" transform="scale(0.015625)"/>
       <path id="DejaVuSans-6d" d="M 3328 2828 
Q 3544 3216 3844 3400 
Q 4144 3584 4550 3584 
Q 5097 3584 5394 3201 
Q 5691 2819 5691 2113 
L 5691 0 
L 5113 0 
L 5113 2094 
Q 5113 2597 4934 2840 
Q 4756 3084 4391 3084 
Q 3944 3084 3684 2787 
Q 3425 2491 3425 1978 
L 3425 0 
L 2847 0 
L 2847 2094 
Q 2847 2600 2669 2842 
Q 2491 3084 2119 3084 
Q 1678 3084 1418 2786 
Q 1159 2488 1159 1978 
L 1159 0 
L 581 0 
L 581 3500 
L 1159 3500 
L 1159 2956 
Q 1356 3278 1631 3431 
Q 1906 3584 2284 3584 
Q 2666 3584 2933 3390 
Q 3200 3197 3328 2828 
z
" transform="scale(0.015625)"/>
       <path id="DejaVuSans-5f" d="M 3263 -1063 
L 3263 -1509 
L -63 -1509 
L -63 -1063 
L 3263 -1063 
z
" transform="scale(0.015625)"/>
       <path id="DejaVuSans-70" d="M 1159 525 
L 1159 -1331 
L 581 -1331 
L 581 3500 
L 1159 3500 
L 1159 2969 
Q 1341 3281 1617 3432 
Q 1894 3584 2278 3584 
Q 2916 3584 3314 3078 
Q 3713 2572 3713 1747 
Q 3713 922 3314 415 
Q 2916 -91 2278 -91 
Q 1894 -91 1617 61 
Q 1341 213 1159 525 
z
M 3116 1747 
Q 3116 2381 2855 2742 
Q 2594 3103 2138 3103 
Q 1681 3103 1420 2742 
Q 1159 2381 1159 1747 
Q 1159 1113 1420 752 
Q 1681 391 2138 391 
Q 2594 391 2855 752 
Q 3116 1113 3116 1747 
z
" transform="scale(0.015625)"/>
       <path id="DejaVuSans-6b" d="M 581 4863 
L 1159 4863 
L 1159 1991 
L 2875 3500 
L 3609 3500 
L 1753 1863 
L 3688 0 
L 2938 0 
L 1159 1709 
L 1159 0 
L 581 0 
L 581 4863 
z
" transform="scale(0.015625)"/>
      </defs>
      <use xlink:href="#DejaVuSans-66"/>
      <use xlink:href="#DejaVuSans-72" transform="translate(35.205078 0)"/>
      <use xlink:href="#DejaVuSans-6f" transform="translate(74.068359 0)"/>
      <use xlink:href="#DejaVuSans-6d" transform="translate(135.25 0)"/>
      <use xlink:href="#DejaVuSans-5f" transform="translate(232.662109 0)"/>
      <use xlink:href="#DejaVuSans-70" transform="translate(282.662109 0)"/>
      <use xlink:href="#DejaVuSans-65" transform="translate(346.138672 0)"/>
      <use xlink:href="#DejaVuSans-61" transform="translate(407.662109 0)"/>
      <use xlink:href="#DejaVuSans-6b" transform="translate(468.941406 0)"/>
      <use xlink:href="#DejaVuSans-73" transform="translate(526.851562 0)"/>
     </g>
    </g>
    <g id="line2d_21">
     <path d="M 48.24875 178.60875 
L 60.24875 178.60875 
L 72.24875 178.60875 
" style="fill: none; stroke: #ff7f0e; stroke-width: 2; stroke-linecap: square"/>
    </g>
    <g id="text_20">
     <!-- from_peaks+noise -->
     <g transform="translate(81.84875 182.80875) scale(0.12 -0.12)">
      <defs>
       <path id="DejaVuSans-2b" d="M 2944 4013 
L 2944 2272 
L 4684 2272 
L 4684 1741 
L 2944 1741 
L 2944 0 
L 2419 0 
L 2419 1741 
L 678 1741 
L 678 2272 
L 2419 2272 
L 2419 4013 
L 2944 4013 
z
" transform="scale(0.015625)"/>
      </defs>
      <use xlink:href="#DejaVuSans-66"/>
      <use xlink:href="#DejaVuSans-72" transform="translate(35.205078 0)"/>
      <use xlink:href="#DejaVuSans-6f" transform="translate(74.068359 0)"/>
      <use xlink:href="#DejaVuSans-6d" transform="translate(135.25 0)"/>
      <use xlink:href="#DejaVuSans-5f" transform="translate(232.662109 0)"/>
      <use xlink:href="#DejaVuSans-70" transform="translate(282.662109 0)"/>
      <use xlink:href="#DejaVuSans-65" transform="translate(346.138672 0)"/>
      <use xlink:href="#DejaVuSans-61" transform="translate(407.662109 0)"/>
      <use xlink:href="#DejaVuSans-6b" transform="translate(468.941406 0)"/>
      <use xlink:href="#DejaVuSans-73" transform="translate(526.851562 0)"/>
      <use xlink:href="#DejaVuSans-2b" transform="translate(578.951172 0)"/>
      <use xlink:href="#DejaVuSans-6e" transform="translate(662.740234 0)"/>
      <use xlink:href="#DejaVuSans-6f" transform="translate(726.119141 0)"/>
      <use xlink:href="#DejaVuSans-69" transform="translate(787.300781 0)"/>
      <use xlink:href="#DejaVuSans-73" transform="translate(815.083984 0)"/>
      <use xlink:href="#DejaVuSans-65" transform="translate(867.183594 0)"/>
     </g>
    </g>
    <g id="line2d_22">
     <path d="M 48.24875 196.55625 
L 60.24875 196.55625 
L 72.24875 196.55625 
" style="fill: none; stroke: #2ca02c; stroke-width: 2; stroke-linecap: square"/>
    </g>
    <g id="text_21">
     <!-- from_peaks+noise -->
     <g transform="translate(81.84875 200.75625) scale(0.12 -0.12)">
      <use xlink:href="#DejaVuSans-66"/>
      <use xlink:href="#DejaVuSans-72" transform="translate(35.205078 0)"/>
      <use xlink:href="#DejaVuSans-6f" transform="translate(74.068359 0)"/>
      <use xlink:href="#DejaVuSans-6d" transform="translate(135.25 0)"/>
      <use xlink:href="#DejaVuSans-5f" transform="translate(232.662109 0)"/>
      <use xlink:href="#DejaVuSans-70" transform="translate(282.662109 0)"/>
      <use xlink:href="#DejaVuSans-65" transform="translate(346.138672 0)"/>
      <use xlink:href="#DejaVuSans-61" transform="translate(407.662109 0)"/>
      <use xlink:href="#DejaVuSans-6b" transform="translate(468.941406 0)"/>
      <use xlink:href="#DejaVuSans-73" transform="translate(526.851562 0)"/>
      <use xlink:href="#DejaVuSans-2b" transform="translate(578.951172 0)"/>
      <use xlink:href="#DejaVuSans-6e" transform="translate(662.740234 0)"/>
      <use xlink:href="#DejaVuSans-6f" transform="translate(726.119141 0)"/>
      <use xlink:href="#DejaVuSans-69" transform="translate(787.300781 0)"/>
      <use xlink:href="#DejaVuSans-73" transform="translate(815.083984 0)"/>
      <use xlink:href="#DejaVuSans-65" transform="translate(867.183594 0)"/>
     </g>
    </g>
    <g id="line2d_23">
     <path d="M 48.24875 214.50375 
L 60.24875 214.50375 
L 72.24875 214.50375 
" style="fill: none; stroke: #d62728; stroke-width: 2; stroke-linecap: square"/>
    </g>
    <g id="text_22">
     <!-- from_peaks -->
     <g transform="translate(81.84875 218.70375) scale(0.12 -0.12)">
      <use xlink:href="#DejaVuSans-66"/>
      <use xlink:href="#DejaVuSans-72" transform="translate(35.205078 0)"/>
      <use xlink:href="#DejaVuSans-6f" transform="translate(74.068359 0)"/>
      <use xlink:href="#DejaVuSans-6d" transform="translate(135.25 0)"/>
      <use xlink:href="#DejaVuSans-5f" transform="translate(232.662109 0)"/>
      <use xlink:href="#DejaVuSans-70" transform="translate(282.662109 0)"/>
      <use xlink:href="#DejaVuSans-65" transform="translate(346.138672 0)"/>
      <use xlink:href="#DejaVuSans-61" transform="translate(407.662109 0)"/>
      <use xlink:href="#DejaVuSans-6b" transform="translate(468.941406 0)"/>
      <use xlink:href="#DejaVuSans-73" transform="translate(526.851562 0)"/>
     </g>
    </g>
   </g>
  </g>
 </g>
 <defs>
  <clipPath id="p90f3d429c7">
   <rect x="37.44875" y="22.318125" width="446.4" height="332.64"/>
  </clipPath>
 </defs>
</svg>
