<?xml version="1.0" encoding="utf-8" standalone="no"?>
<!DOCTYPE svg PUBLIC "-//W3C//DTD SVG 1.1//EN"
  "http://www.w3.org/Graphics/SVG/1.1/DTD/svg11.dtd">
<svg xmlns:xlink="http://www.w3.org/1999/xlink" width="558.792923pt" height="569.278125pt" viewBox="0 0 558.792923 569.278125" xmlns="http://www.w3.org/2000/svg" version="1.1">
 <metadata>
  <rdf:RDF xmlns:dc="http://purl.org/dc/elements/1.1/" xmlns:cc="http://creativecommons.org/ns#" xmlns:rdf="http://www.w3.org/1999/02/22-rdf-syntax-ns#">
   <cc:Work>
    <dc:type rdf:resource="http://purl.org/dc/dcmitype/StillImage"/>
    <dc:date>2025-05-21T15:15:38.977870</dc:date>
    <dc:format>image/svg+xml</dc:format>
    <dc:creator>
     <cc:Agent>
      <dc:title>Matplotlib v3.10.0, https://matplotlib.org/</dc:title>
     </cc:Agent>
    </dc:creator>
   </cc:Work>
  </rdf:RDF>
 </metadata>
 <defs>
  <style type="text/css">*{stroke-linejoin: round; stroke-linecap: butt}</style>
 </defs>
 <g id="figure_1">
  <g id="patch_1">
   <path d="M 0 569.278125 
L 558.792923 569.278125 
L 558.792923 0 
L 0 0 
z
" style="fill: #ffffff"/>
  </g>
  <g id="patch_2">
   <path d="M 7.2 562.078125 
L 546.96 562.078125 
L 546.96 22.318125 
L 7.2 22.318125 
z
" style="fill: #ffffff"/>
  </g>
  <g id="pane3d_1">
   <g id="patch_3">
    <path d="M 47.955602 428.990607 
L 226.201982 279.580957 
L 223.724187 64.105533 
L 36.947799 200.406433 
" style="fill: #f2f2f2; opacity: 0.5; stroke: #f2f2f2; stroke-linejoin: miter"/>
   </g>
  </g>
  <g id="pane3d_2">
   <g id="patch_4">
    <path d="M 226.201982 279.580957 
L 512.223823 362.716214 
L 522.430934 139.818986 
L 223.724187 64.105533 
" style="fill: #e6e6e6; opacity: 0.5; stroke: #e6e6e6; stroke-linejoin: miter"/>
   </g>
  </g>
  <g id="pane3d_3">
   <g id="patch_5">
    <path d="M 47.955602 428.990607 
L 351.152724 528.014786 
L 512.223823 362.716214 
L 226.201982 279.580957 
" style="fill: #ececec; opacity: 0.5; stroke: #ececec; stroke-linejoin: miter"/>
   </g>
  </g>
  <g id="grid3d_1">
   <g id="Line3DCollection_1">
    <path d="M 64.146618 434.278593 
L 241.539781 284.039049 
L 239.710236 68.15753 
" style="fill: none; stroke: #b0b0b0; stroke-width: 0.8"/>
    <path d="M 100.655707 446.202461 
L 276.098374 294.083868 
L 275.742703 77.29071 
" style="fill: none; stroke: #b0b0b0; stroke-width: 0.8"/>
    <path d="M 137.642671 458.282404 
L 311.071809 304.249265 
L 312.226409 86.538266 
" style="fill: none; stroke: #b0b0b0; stroke-width: 0.8"/>
    <path d="M 175.116955 470.521504 
L 346.4676 314.537424 
L 349.169883 95.90236 
" style="fill: none; stroke: #b0b0b0; stroke-width: 0.8"/>
    <path d="M 213.088252 482.92293 
L 382.293444 324.950582 
L 386.581873 105.385209 
" style="fill: none; stroke: #b0b0b0; stroke-width: 0.8"/>
    <path d="M 251.566517 495.489931 
L 418.557226 335.491032 
L 424.471348 114.989086 
" style="fill: none; stroke: #b0b0b0; stroke-width: 0.8"/>
    <path d="M 290.56197 508.225846 
L 455.267027 346.161122 
L 462.847506 124.716324 
" style="fill: none; stroke: #b0b0b0; stroke-width: 0.8"/>
    <path d="M 330.08511 521.134104 
L 492.431125 356.963258 
L 501.719787 134.569314 
" style="fill: none; stroke: #b0b0b0; stroke-width: 0.8"/>
   </g>
  </g>
  <g id="grid3d_2">
   <g id="Line3DCollection_2">
    <path d="M 54.757239 187.409915 
L 64.893399 414.79301 
L 366.519709 512.244479 
" style="fill: none; stroke: #b0b0b0; stroke-width: 0.8"/>
    <path d="M 80.237443 168.815623 
L 89.147834 394.462461 
L 388.50231 489.684923 
" style="fill: none; stroke: #b0b0b0; stroke-width: 0.8"/>
    <path d="M 105.127475 150.652011 
L 112.86474 374.582481 
L 409.972172 467.651562 
" style="fill: none; stroke: #b0b0b0; stroke-width: 0.8"/>
    <path d="M 129.447605 132.904288 
L 136.061788 355.138255 
L 430.947029 446.126199 
" style="fill: none; stroke: #b0b0b0; stroke-width: 0.8"/>
    <path d="M 153.217186 115.55833 
L 158.755886 336.115612 
L 451.443804 425.091465 
" style="fill: none; stroke: #b0b0b0; stroke-width: 0.8"/>
    <path d="M 176.454703 98.600649 
L 180.963216 317.500988 
L 471.478659 404.530776 
" style="fill: none; stroke: #b0b0b0; stroke-width: 0.8"/>
    <path d="M 199.177822 82.018351 
L 202.699273 299.281394 
L 491.067034 384.428284 
" style="fill: none; stroke: #b0b0b0; stroke-width: 0.8"/>
    <path d="M 221.403438 65.799109 
L 223.9789 281.444388 
L 510.22369 364.768842 
" style="fill: none; stroke: #b0b0b0; stroke-width: 0.8"/>
   </g>
  </g>
  <g id="grid3d_3">
   <g id="Line3DCollection_3">
    <path d="M 512.236432 362.440861 
L 226.198915 279.314211 
L 47.942027 428.708704 
" style="fill: none; stroke: #b0b0b0; stroke-width: 0.8"/>
    <path d="M 513.509678 334.63643 
L 225.889262 252.38602 
L 46.570921 400.236813 
" style="fill: none; stroke: #b0b0b0; stroke-width: 0.8"/>
    <path d="M 514.797233 306.519523 
L 225.576295 225.169631 
L 45.183821 371.43277 
" style="fill: none; stroke: #b0b0b0; stroke-width: 0.8"/>
    <path d="M 516.099339 278.084842 
L 225.259961 197.660391 
L 43.780443 342.290728 
" style="fill: none; stroke: #b0b0b0; stroke-width: 0.8"/>
    <path d="M 517.416246 249.32697 
L 224.940205 169.853548 
L 42.360501 312.804704 
" style="fill: none; stroke: #b0b0b0; stroke-width: 0.8"/>
    <path d="M 518.748206 220.240364 
L 224.61697 141.744247 
L 40.923699 282.968571 
" style="fill: none; stroke: #b0b0b0; stroke-width: 0.8"/>
    <path d="M 520.095479 190.819357 
L 224.2902 113.327526 
L 39.469734 252.776055 
" style="fill: none; stroke: #b0b0b0; stroke-width: 0.8"/>
    <path d="M 521.458331 161.058147 
L 223.959837 84.598313 
L 37.998298 222.220734 
" style="fill: none; stroke: #b0b0b0; stroke-width: 0.8"/>
   </g>
  </g>
  <g id="axis3d_1">
   <g id="line2d_1">
    <path d="M 47.955602 428.990607 
L 351.152724 528.014786 
" style="fill: none; stroke: #000000; stroke-width: 0.8; stroke-linecap: square"/>
   </g>
   <g id="xtick_1">
    <g id="line2d_2">
     <path d="M 65.691299 432.970356 
L 61.05063 436.900677 
" style="fill: none; stroke: #000000; stroke-width: 0.8; stroke-linecap: square"/>
    </g>
    <g id="text_1">
     <!-- −0.20 -->
     <g transform="translate(41.308014 457.550817) scale(0.1 -0.1)">
      <defs>
       <path id="DejaVuSans-2212" d="M 678 2272 
L 4684 2272 
L 4684 1741 
L 678 1741 
L 678 2272 
z
" transform="scale(0.015625)"/>
       <path id="DejaVuSans-30" d="M 2034 4250 
Q 1547 4250 1301 3770 
Q 1056 3291 1056 2328 
Q 1056 1369 1301 889 
Q 1547 409 2034 409 
Q 2525 409 2770 889 
Q 3016 1369 3016 2328 
Q 3016 3291 2770 3770 
Q 2525 4250 2034 4250 
z
M 2034 4750 
Q 2819 4750 3233 4129 
Q 3647 3509 3647 2328 
Q 3647 1150 3233 529 
Q 2819 -91 2034 -91 
Q 1250 -91 836 529 
Q 422 1150 422 2328 
Q 422 3509 836 4129 
Q 1250 4750 2034 4750 
z
" transform="scale(0.015625)"/>
       <path id="DejaVuSans-2e" d="M 684 794 
L 1344 794 
L 1344 0 
L 684 0 
L 684 794 
z
" transform="scale(0.015625)"/>
       <path id="DejaVuSans-32" d="M 1228 531 
L 3431 531 
L 3431 0 
L 469 0 
L 469 531 
Q 828 903 1448 1529 
Q 2069 2156 2228 2338 
Q 2531 2678 2651 2914 
Q 2772 3150 2772 3378 
Q 2772 3750 2511 3984 
Q 2250 4219 1831 4219 
Q 1534 4219 1204 4116 
Q 875 4013 500 3803 
L 500 4441 
Q 881 4594 1212 4672 
Q 1544 4750 1819 4750 
Q 2544 4750 2975 4387 
Q 3406 4025 3406 3419 
Q 3406 3131 3298 2873 
Q 3191 2616 2906 2266 
Q 2828 2175 2409 1742 
Q 1991 1309 1228 531 
z
" transform="scale(0.015625)"/>
      </defs>
      <use xlink:href="#DejaVuSans-2212"/>
      <use xlink:href="#DejaVuSans-30" transform="translate(83.789062 0)"/>
      <use xlink:href="#DejaVuSans-2e" transform="translate(147.412109 0)"/>
      <use xlink:href="#DejaVuSans-32" transform="translate(179.199219 0)"/>
      <use xlink:href="#DejaVuSans-30" transform="translate(242.822266 0)"/>
     </g>
    </g>
   </g>
   <g id="xtick_2">
    <g id="line2d_3">
     <path d="M 102.184211 444.877163 
L 97.592101 448.858779 
" style="fill: none; stroke: #000000; stroke-width: 0.8; stroke-linecap: square"/>
    </g>
    <g id="text_2">
     <!-- −0.15 -->
     <g transform="translate(77.835337 469.59873) scale(0.1 -0.1)">
      <defs>
       <path id="DejaVuSans-31" d="M 794 531 
L 1825 531 
L 1825 4091 
L 703 3866 
L 703 4441 
L 1819 4666 
L 2450 4666 
L 2450 531 
L 3481 531 
L 3481 0 
L 794 0 
L 794 531 
z
" transform="scale(0.015625)"/>
       <path id="DejaVuSans-35" d="M 691 4666 
L 3169 4666 
L 3169 4134 
L 1269 4134 
L 1269 2991 
Q 1406 3038 1543 3061 
Q 1681 3084 1819 3084 
Q 2600 3084 3056 2656 
Q 3513 2228 3513 1497 
Q 3513 744 3044 326 
Q 2575 -91 1722 -91 
Q 1428 -91 1123 -41 
Q 819 9 494 109 
L 494 744 
Q 775 591 1075 516 
Q 1375 441 1709 441 
Q 2250 441 2565 725 
Q 2881 1009 2881 1497 
Q 2881 1984 2565 2268 
Q 2250 2553 1709 2553 
Q 1456 2553 1204 2497 
Q 953 2441 691 2322 
L 691 4666 
z
" transform="scale(0.015625)"/>
      </defs>
      <use xlink:href="#DejaVuSans-2212"/>
      <use xlink:href="#DejaVuSans-30" transform="translate(83.789062 0)"/>
      <use xlink:href="#DejaVuSans-2e" transform="translate(147.412109 0)"/>
      <use xlink:href="#DejaVuSans-31" transform="translate(179.199219 0)"/>
      <use xlink:href="#DejaVuSans-35" transform="translate(242.822266 0)"/>
     </g>
    </g>
   </g>
   <g id="xtick_3">
    <g id="line2d_4">
     <path d="M 139.15444 456.939708 
L 134.612564 460.973629 
" style="fill: none; stroke: #000000; stroke-width: 0.8; stroke-linecap: square"/>
    </g>
    <g id="text_3">
     <!-- −0.10 -->
     <g transform="translate(114.841659 481.804632) scale(0.1 -0.1)">
      <use xlink:href="#DejaVuSans-2212"/>
      <use xlink:href="#DejaVuSans-30" transform="translate(83.789062 0)"/>
      <use xlink:href="#DejaVuSans-2e" transform="translate(147.412109 0)"/>
      <use xlink:href="#DejaVuSans-31" transform="translate(179.199219 0)"/>
      <use xlink:href="#DejaVuSans-30" transform="translate(242.822266 0)"/>
     </g>
    </g>
   </g>
   <g id="xtick_4">
    <g id="line2d_5">
     <path d="M 176.611414 469.161067 
L 172.121498 473.248331 
" style="fill: none; stroke: #000000; stroke-width: 0.8; stroke-linecap: square"/>
    </g>
    <g id="text_4">
     <!-- −0.05 -->
     <g transform="translate(152.336465 494.171653) scale(0.1 -0.1)">
      <use xlink:href="#DejaVuSans-2212"/>
      <use xlink:href="#DejaVuSans-30" transform="translate(83.789062 0)"/>
      <use xlink:href="#DejaVuSans-2e" transform="translate(147.412109 0)"/>
      <use xlink:href="#DejaVuSans-30" transform="translate(179.199219 0)"/>
      <use xlink:href="#DejaVuSans-35" transform="translate(242.822266 0)"/>
     </g>
    </g>
   </g>
   <g id="xtick_5">
    <g id="line2d_6">
     <path d="M 214.564809 481.544396 
L 210.128636 485.686069 
" style="fill: none; stroke: #000000; stroke-width: 0.8; stroke-linecap: square"/>
    </g>
    <g id="text_5">
     <!-- 0.00 -->
     <g transform="translate(194.519334 506.703002) scale(0.1 -0.1)">
      <use xlink:href="#DejaVuSans-30"/>
      <use xlink:href="#DejaVuSans-2e" transform="translate(63.623047 0)"/>
      <use xlink:href="#DejaVuSans-30" transform="translate(95.410156 0)"/>
      <use xlink:href="#DejaVuSans-30" transform="translate(159.033203 0)"/>
     </g>
    </g>
   </g>
   <g id="xtick_6">
    <g id="line2d_7">
     <path d="M 253.024558 494.092937 
L 248.64397 498.290112 
" style="fill: none; stroke: #000000; stroke-width: 0.8; stroke-linecap: square"/>
    </g>
    <g id="text_6">
     <!-- 0.05 -->
     <g transform="translate(233.020575 519.401978) scale(0.1 -0.1)">
      <use xlink:href="#DejaVuSans-30"/>
      <use xlink:href="#DejaVuSans-2e" transform="translate(63.623047 0)"/>
      <use xlink:href="#DejaVuSans-30" transform="translate(95.410156 0)"/>
      <use xlink:href="#DejaVuSans-35" transform="translate(159.033203 0)"/>
     </g>
    </g>
   </g>
   <g id="xtick_7">
    <g id="line2d_8">
     <path d="M 292.000864 506.810019 
L 287.677761 511.063819 
" style="fill: none; stroke: #000000; stroke-width: 0.8; stroke-linecap: square"/>
    </g>
    <g id="text_7">
     <!-- 0.10 -->
     <g transform="translate(272.040298 532.271967) scale(0.1 -0.1)">
      <use xlink:href="#DejaVuSans-30"/>
      <use xlink:href="#DejaVuSans-2e" transform="translate(63.623047 0)"/>
      <use xlink:href="#DejaVuSans-31" transform="translate(95.410156 0)"/>
      <use xlink:href="#DejaVuSans-30" transform="translate(159.033203 0)"/>
     </g>
    </g>
   </g>
   <g id="xtick_8">
    <g id="line2d_9">
     <path d="M 331.504203 519.69906 
L 327.240549 524.010639 
" style="fill: none; stroke: #000000; stroke-width: 0.8; stroke-linecap: square"/>
    </g>
    <g id="text_8">
     <!-- 0.15 -->
     <g transform="translate(311.589048 545.316446) scale(0.1 -0.1)">
      <use xlink:href="#DejaVuSans-30"/>
      <use xlink:href="#DejaVuSans-2e" transform="translate(63.623047 0)"/>
      <use xlink:href="#DejaVuSans-31" transform="translate(95.410156 0)"/>
      <use xlink:href="#DejaVuSans-35" transform="translate(159.033203 0)"/>
     </g>
    </g>
   </g>
   <g id="text_9">
    <!-- Dim 1 -->
    <g transform="translate(164.333316 510.32501) rotate(-341.912962) scale(0.1 -0.1)">
     <defs>
      <path id="DejaVuSans-44" d="M 1259 4147 
L 1259 519 
L 2022 519 
Q 2988 519 3436 956 
Q 3884 1394 3884 2338 
Q 3884 3275 3436 3711 
Q 2988 4147 2022 4147 
L 1259 4147 
z
M 628 4666 
L 1925 4666 
Q 3281 4666 3915 4102 
Q 4550 3538 4550 2338 
Q 4550 1131 3912 565 
Q 3275 0 1925 0 
L 628 0 
L 628 4666 
z
" transform="scale(0.015625)"/>
      <path id="DejaVuSans-69" d="M 603 3500 
L 1178 3500 
L 1178 0 
L 603 0 
L 603 3500 
z
M 603 4863 
L 1178 4863 
L 1178 4134 
L 603 4134 
L 603 4863 
z
" transform="scale(0.015625)"/>
      <path id="DejaVuSans-6d" d="M 3328 2828 
Q 3544 3216 3844 3400 
Q 4144 3584 4550 3584 
Q 5097 3584 5394 3201 
Q 5691 2819 5691 2113 
L 5691 0 
L 5113 0 
L 5113 2094 
Q 5113 2597 4934 2840 
Q 4756 3084 4391 3084 
Q 3944 3084 3684 2787 
Q 3425 2491 3425 1978 
L 3425 0 
L 2847 0 
L 2847 2094 
Q 2847 2600 2669 2842 
Q 2491 3084 2119 3084 
Q 1678 3084 1418 2786 
Q 1159 2488 1159 1978 
L 1159 0 
L 581 0 
L 581 3500 
L 1159 3500 
L 1159 2956 
Q 1356 3278 1631 3431 
Q 1906 3584 2284 3584 
Q 2666 3584 2933 3390 
Q 3200 3197 3328 2828 
z
" transform="scale(0.015625)"/>
      <path id="DejaVuSans-20" transform="scale(0.015625)"/>
     </defs>
     <use xlink:href="#DejaVuSans-44"/>
     <use xlink:href="#DejaVuSans-69" transform="translate(77.001953 0)"/>
     <use xlink:href="#DejaVuSans-6d" transform="translate(104.785156 0)"/>
     <use xlink:href="#DejaVuSans-20" transform="translate(202.197266 0)"/>
     <use xlink:href="#DejaVuSans-31" transform="translate(233.984375 0)"/>
    </g>
   </g>
  </g>
  <g id="axis3d_2">
   <g id="line2d_10">
    <path d="M 512.223823 362.716214 
L 351.152724 528.014786 
" style="fill: none; stroke: #000000; stroke-width: 0.8; stroke-linecap: square"/>
   </g>
   <g id="xtick_9">
    <g id="line2d_11">
     <path d="M 363.978186 511.423347 
L 371.609312 513.888863 
" style="fill: none; stroke: #000000; stroke-width: 0.8; stroke-linecap: square"/>
    </g>
    <g id="text_10">
     <!-- −0.20 -->
     <g transform="translate(364.045895 533.230506) scale(0.1 -0.1)">
      <use xlink:href="#DejaVuSans-2212"/>
      <use xlink:href="#DejaVuSans-30" transform="translate(83.789062 0)"/>
      <use xlink:href="#DejaVuSans-2e" transform="translate(147.412109 0)"/>
      <use xlink:href="#DejaVuSans-32" transform="translate(179.199219 0)"/>
      <use xlink:href="#DejaVuSans-30" transform="translate(242.822266 0)"/>
     </g>
    </g>
   </g>
   <g id="xtick_10">
    <g id="line2d_12">
     <path d="M 385.981434 488.883051 
L 393.550489 491.290711 
" style="fill: none; stroke: #000000; stroke-width: 0.8; stroke-linecap: square"/>
    </g>
    <g id="text_11">
     <!-- −0.15 -->
     <g transform="translate(385.883232 510.506366) scale(0.1 -0.1)">
      <use xlink:href="#DejaVuSans-2212"/>
      <use xlink:href="#DejaVuSans-30" transform="translate(83.789062 0)"/>
      <use xlink:href="#DejaVuSans-2e" transform="translate(147.412109 0)"/>
      <use xlink:href="#DejaVuSans-31" transform="translate(179.199219 0)"/>
      <use xlink:href="#DejaVuSans-35" transform="translate(242.822266 0)"/>
     </g>
    </g>
   </g>
   <g id="xtick_11">
    <g id="line2d_13">
     <path d="M 407.471677 466.86828 
L 414.979464 469.220099 
" style="fill: none; stroke: #000000; stroke-width: 0.8; stroke-linecap: square"/>
    </g>
    <g id="text_12">
     <!-- −0.10 -->
     <g transform="translate(407.211072 488.312414) scale(0.1 -0.1)">
      <use xlink:href="#DejaVuSans-2212"/>
      <use xlink:href="#DejaVuSans-30" transform="translate(83.789062 0)"/>
      <use xlink:href="#DejaVuSans-2e" transform="translate(147.412109 0)"/>
      <use xlink:href="#DejaVuSans-31" transform="translate(179.199219 0)"/>
      <use xlink:href="#DejaVuSans-30" transform="translate(242.822266 0)"/>
     </g>
    </g>
   </g>
   <g id="xtick_12">
    <g id="line2d_14">
     <path d="M 428.46665 445.360869 
L 435.913966 447.658766 
" style="fill: none; stroke: #000000; stroke-width: 0.8; stroke-linecap: square"/>
    </g>
    <g id="text_13">
     <!-- −0.05 -->
     <g transform="translate(428.047042 466.630306) scale(0.1 -0.1)">
      <use xlink:href="#DejaVuSans-2212"/>
      <use xlink:href="#DejaVuSans-30" transform="translate(83.789062 0)"/>
      <use xlink:href="#DejaVuSans-2e" transform="translate(147.412109 0)"/>
      <use xlink:href="#DejaVuSans-30" transform="translate(179.199219 0)"/>
      <use xlink:href="#DejaVuSans-35" transform="translate(242.822266 0)"/>
     </g>
    </g>
   </g>
   <g id="xtick_13">
    <g id="line2d_15">
     <path d="M 448.98328 424.343476 
L 456.370914 426.589285 
" style="fill: none; stroke: #000000; stroke-width: 0.8; stroke-linecap: square"/>
    </g>
    <g id="text_14">
     <!-- 0.00 -->
     <g transform="translate(452.597806 445.44254) scale(0.1 -0.1)">
      <use xlink:href="#DejaVuSans-30"/>
      <use xlink:href="#DejaVuSans-2e" transform="translate(63.623047 0)"/>
      <use xlink:href="#DejaVuSans-30" transform="translate(95.410156 0)"/>
      <use xlink:href="#DejaVuSans-30" transform="translate(159.033203 0)"/>
     </g>
    </g>
   </g>
   <g id="xtick_14">
    <g id="line2d_16">
     <path d="M 469.037728 403.799545 
L 476.366464 405.995017 
" style="fill: none; stroke: #000000; stroke-width: 0.8; stroke-linecap: square"/>
    </g>
    <g id="text_15">
     <!-- 0.05 -->
     <g transform="translate(472.499739 424.732399) scale(0.1 -0.1)">
      <use xlink:href="#DejaVuSans-30"/>
      <use xlink:href="#DejaVuSans-2e" transform="translate(63.623047 0)"/>
      <use xlink:href="#DejaVuSans-30" transform="translate(95.410156 0)"/>
      <use xlink:href="#DejaVuSans-35" transform="translate(159.033203 0)"/>
     </g>
    </g>
   </g>
   <g id="xtick_15">
    <g id="line2d_17">
     <path d="M 488.64544 383.713255 
L 495.916054 385.860063 
" style="fill: none; stroke: #000000; stroke-width: 0.8; stroke-linecap: square"/>
    </g>
    <g id="text_16">
     <!-- 0.10 -->
     <g transform="translate(491.958034 404.483914) scale(0.1 -0.1)">
      <use xlink:href="#DejaVuSans-30"/>
      <use xlink:href="#DejaVuSans-2e" transform="translate(63.623047 0)"/>
      <use xlink:href="#DejaVuSans-31" transform="translate(95.410156 0)"/>
      <use xlink:href="#DejaVuSans-30" transform="translate(159.033203 0)"/>
     </g>
    </g>
   </g>
   <g id="xtick_16">
    <g id="line2d_18">
     <path d="M 507.821177 364.069482 
L 515.034437 366.169227 
" style="fill: none; stroke: #000000; stroke-width: 0.8; stroke-linecap: square"/>
    </g>
    <g id="text_17">
     <!-- 0.15 -->
     <g transform="translate(510.987359 384.681817) scale(0.1 -0.1)">
      <use xlink:href="#DejaVuSans-30"/>
      <use xlink:href="#DejaVuSans-2e" transform="translate(63.623047 0)"/>
      <use xlink:href="#DejaVuSans-31" transform="translate(95.410156 0)"/>
      <use xlink:href="#DejaVuSans-35" transform="translate(159.033203 0)"/>
     </g>
    </g>
   </g>
   <g id="text_18">
    <!-- Dim 2 -->
    <g transform="translate(453.840111 482.240182) rotate(-45.742112) scale(0.1 -0.1)">
     <use xlink:href="#DejaVuSans-44"/>
     <use xlink:href="#DejaVuSans-69" transform="translate(77.001953 0)"/>
     <use xlink:href="#DejaVuSans-6d" transform="translate(104.785156 0)"/>
     <use xlink:href="#DejaVuSans-20" transform="translate(202.197266 0)"/>
     <use xlink:href="#DejaVuSans-32" transform="translate(233.984375 0)"/>
    </g>
   </g>
  </g>
  <g id="axis3d_3">
   <g id="line2d_19">
    <path d="M 512.223823 362.716214 
L 522.430934 139.818986 
" style="fill: none; stroke: #000000; stroke-width: 0.8; stroke-linecap: square"/>
   </g>
   <g id="xtick_17">
    <g id="line2d_20">
     <path d="M 509.835783 361.743198 
L 517.04344 363.837848 
" style="fill: none; stroke: #000000; stroke-width: 0.8; stroke-linecap: square"/>
    </g>
    <g id="text_19">
     <!-- −0.20 -->
     <g transform="translate(515.191187 367.430599) scale(0.1 -0.1)">
      <use xlink:href="#DejaVuSans-2212"/>
      <use xlink:href="#DejaVuSans-30" transform="translate(83.789062 0)"/>
      <use xlink:href="#DejaVuSans-2e" transform="translate(147.412109 0)"/>
      <use xlink:href="#DejaVuSans-32" transform="translate(179.199219 0)"/>
      <use xlink:href="#DejaVuSans-30" transform="translate(242.822266 0)"/>
     </g>
    </g>
   </g>
   <g id="xtick_18">
    <g id="line2d_21">
     <path d="M 511.095113 333.945941 
L 518.344582 336.019061 
" style="fill: none; stroke: #000000; stroke-width: 0.8; stroke-linecap: square"/>
    </g>
    <g id="text_20">
     <!-- −0.15 -->
     <g transform="translate(516.564515 339.653008) scale(0.1 -0.1)">
      <use xlink:href="#DejaVuSans-2212"/>
      <use xlink:href="#DejaVuSans-30" transform="translate(83.789062 0)"/>
      <use xlink:href="#DejaVuSans-2e" transform="translate(147.412109 0)"/>
      <use xlink:href="#DejaVuSans-31" transform="translate(179.199219 0)"/>
      <use xlink:href="#DejaVuSans-35" transform="translate(242.822266 0)"/>
     </g>
    </g>
   </g>
   <g id="xtick_19">
    <g id="line2d_22">
     <path d="M 512.36859 305.836413 
L 519.66036 307.887387 
" style="fill: none; stroke: #000000; stroke-width: 0.8; stroke-linecap: square"/>
    </g>
    <g id="text_21">
     <!-- −0.10 -->
     <g transform="translate(517.953255 311.563709) scale(0.1 -0.1)">
      <use xlink:href="#DejaVuSans-2212"/>
      <use xlink:href="#DejaVuSans-30" transform="translate(83.789062 0)"/>
      <use xlink:href="#DejaVuSans-2e" transform="translate(147.412109 0)"/>
      <use xlink:href="#DejaVuSans-31" transform="translate(179.199219 0)"/>
      <use xlink:href="#DejaVuSans-30" transform="translate(242.822266 0)"/>
     </g>
    </g>
   </g>
   <g id="xtick_20">
    <g id="line2d_23">
     <path d="M 513.656454 277.409323 
L 520.991019 279.437516 
" style="fill: none; stroke: #000000; stroke-width: 0.8; stroke-linecap: square"/>
    </g>
    <g id="text_22">
     <!-- −0.05 -->
     <g transform="translate(519.357665 283.157426) scale(0.1 -0.1)">
      <use xlink:href="#DejaVuSans-2212"/>
      <use xlink:href="#DejaVuSans-30" transform="translate(83.789062 0)"/>
      <use xlink:href="#DejaVuSans-2e" transform="translate(147.412109 0)"/>
      <use xlink:href="#DejaVuSans-30" transform="translate(179.199219 0)"/>
      <use xlink:href="#DejaVuSans-35" transform="translate(242.822266 0)"/>
     </g>
    </g>
   </g>
   <g id="xtick_21">
    <g id="line2d_24">
     <path d="M 514.958949 248.659258 
L 522.336816 250.664018 
" style="fill: none; stroke: #000000; stroke-width: 0.8; stroke-linecap: square"/>
    </g>
    <g id="text_23">
     <!-- 0.00 -->
     <g transform="translate(524.967858 254.428764) scale(0.1 -0.1)">
      <use xlink:href="#DejaVuSans-30"/>
      <use xlink:href="#DejaVuSans-2e" transform="translate(63.623047 0)"/>
      <use xlink:href="#DejaVuSans-30" transform="translate(95.410156 0)"/>
      <use xlink:href="#DejaVuSans-30" transform="translate(159.033203 0)"/>
     </g>
    </g>
   </g>
   <g id="xtick_22">
    <g id="line2d_25">
     <path d="M 516.276328 219.580683 
L 523.698009 221.56134 
" style="fill: none; stroke: #000000; stroke-width: 0.8; stroke-linecap: square"/>
    </g>
    <g id="text_24">
     <!-- 0.05 -->
     <g transform="translate(526.404419 225.372202) scale(0.1 -0.1)">
      <use xlink:href="#DejaVuSans-30"/>
      <use xlink:href="#DejaVuSans-2e" transform="translate(63.623047 0)"/>
      <use xlink:href="#DejaVuSans-30" transform="translate(95.410156 0)"/>
      <use xlink:href="#DejaVuSans-35" transform="translate(159.033203 0)"/>
     </g>
    </g>
   </g>
   <g id="xtick_23">
    <g id="line2d_26">
     <path d="M 517.608846 190.167936 
L 525.074864 192.123802 
" style="fill: none; stroke: #000000; stroke-width: 0.8; stroke-linecap: square"/>
    </g>
    <g id="text_25">
     <!-- 0.10 -->
     <g transform="translate(527.85747 195.982095) scale(0.1 -0.1)">
      <use xlink:href="#DejaVuSans-30"/>
      <use xlink:href="#DejaVuSans-2e" transform="translate(63.623047 0)"/>
      <use xlink:href="#DejaVuSans-31" transform="translate(95.410156 0)"/>
      <use xlink:href="#DejaVuSans-30" transform="translate(159.033203 0)"/>
     </g>
    </g>
   </g>
   <g id="xtick_24">
    <g id="line2d_27">
     <path d="M 518.956766 160.415222 
L 526.467653 162.345588 
" style="fill: none; stroke: #000000; stroke-width: 0.8; stroke-linecap: square"/>
    </g>
    <g id="text_26">
     <!-- 0.15 -->
     <g transform="translate(529.327298 166.252667) scale(0.1 -0.1)">
      <use xlink:href="#DejaVuSans-30"/>
      <use xlink:href="#DejaVuSans-2e" transform="translate(63.623047 0)"/>
      <use xlink:href="#DejaVuSans-31" transform="translate(95.410156 0)"/>
      <use xlink:href="#DejaVuSans-35" transform="translate(159.033203 0)"/>
     </g>
    </g>
   </g>
   <g id="text_27">
    <!-- Dim 3 -->
    <g transform="translate(559.803491 263.271968) rotate(-87.378092) scale(0.1 -0.1)">
     <defs>
      <path id="DejaVuSans-33" d="M 2597 2516 
Q 3050 2419 3304 2112 
Q 3559 1806 3559 1356 
Q 3559 666 3084 287 
Q 2609 -91 1734 -91 
Q 1441 -91 1130 -33 
Q 819 25 488 141 
L 488 750 
Q 750 597 1062 519 
Q 1375 441 1716 441 
Q 2309 441 2620 675 
Q 2931 909 2931 1356 
Q 2931 1769 2642 2001 
Q 2353 2234 1838 2234 
L 1294 2234 
L 1294 2753 
L 1863 2753 
Q 2328 2753 2575 2939 
Q 2822 3125 2822 3475 
Q 2822 3834 2567 4026 
Q 2313 4219 1838 4219 
Q 1578 4219 1281 4162 
Q 984 4106 628 3988 
L 628 4550 
Q 988 4650 1302 4700 
Q 1616 4750 1894 4750 
Q 2613 4750 3031 4423 
Q 3450 4097 3450 3541 
Q 3450 3153 3228 2886 
Q 3006 2619 2597 2516 
z
" transform="scale(0.015625)"/>
     </defs>
     <use xlink:href="#DejaVuSans-44"/>
     <use xlink:href="#DejaVuSans-69" transform="translate(77.001953 0)"/>
     <use xlink:href="#DejaVuSans-6d" transform="translate(104.785156 0)"/>
     <use xlink:href="#DejaVuSans-20" transform="translate(202.197266 0)"/>
     <use xlink:href="#DejaVuSans-33" transform="translate(233.984375 0)"/>
    </g>
   </g>
  </g>
  <g id="axes_1">
   <g id="Path3DCollection_1">
    <defs>
     <path id="C0_0_a5ad4c0a72" d="M 0 3.535534 
C 0.937635 3.535534 1.836992 3.163008 2.5 2.5 
C 3.163008 1.836992 3.535534 0.937635 3.535534 -0 
C 3.535534 -0.937635 3.163008 -1.836992 2.5 -2.5 
C 1.836992 -3.163008 0.937635 -3.535534 0 -3.535534 
C -0.937635 -3.535534 -1.836992 -3.163008 -2.5 -2.5 
C -3.163008 -1.836992 -3.535534 -0.937635 -3.535534 0 
C -3.535534 0.937635 -3.163008 1.836992 -2.5 2.5 
C -1.836992 3.163008 -0.937635 3.535534 0 3.535534 
z
"/>
    </defs>
    <g clip-path="url(#p0f973c050d)">
     <use xlink:href="#C0_0_a5ad4c0a72" x="228.313608" y="189.354754" style="fill: #7f7f7f; fill-opacity: 0.3; stroke: #7f7f7f; stroke-opacity: 0.3"/>
    </g>
    <g clip-path="url(#p0f973c050d)">
     <use xlink:href="#C0_0_a5ad4c0a72" x="307.071565" y="339.012958" style="fill: #2ca02c; fill-opacity: 0.389462; stroke: #2ca02c; stroke-opacity: 0.389462"/>
    </g>
    <g clip-path="url(#p0f973c050d)">
     <use xlink:href="#C0_0_a5ad4c0a72" x="302.202374" y="148.215166" style="fill: #17becf; fill-opacity: 0.438568; stroke: #17becf; stroke-opacity: 0.438568"/>
    </g>
    <g clip-path="url(#p0f973c050d)">
     <use xlink:href="#C0_0_a5ad4c0a72" x="462.034005" y="322.304695" style="fill: #1f77b4; fill-opacity: 0.447769; stroke: #1f77b4; stroke-opacity: 0.447769"/>
    </g>
    <g clip-path="url(#p0f973c050d)">
     <use xlink:href="#C0_0_a5ad4c0a72" x="329.138253" y="253.333201" style="fill: #2ca02c; fill-opacity: 0.486329; stroke: #2ca02c; stroke-opacity: 0.486329"/>
    </g>
    <g clip-path="url(#p0f973c050d)">
     <use xlink:href="#C0_0_a5ad4c0a72" x="448.922599" y="292.099776" style="fill: #2ca02c; fill-opacity: 0.498551; stroke: #2ca02c; stroke-opacity: 0.498551"/>
    </g>
    <g clip-path="url(#p0f973c050d)">
     <use xlink:href="#C0_0_a5ad4c0a72" x="217.558579" y="161.352824" style="fill: #8c564b; fill-opacity: 0.5146; stroke: #8c564b; stroke-opacity: 0.5146"/>
    </g>
    <g clip-path="url(#p0f973c050d)">
     <use xlink:href="#C0_0_a5ad4c0a72" x="305.942578" y="221.016402" style="fill: #17becf; fill-opacity: 0.523018; stroke: #17becf; stroke-opacity: 0.523018"/>
    </g>
    <g clip-path="url(#p0f973c050d)">
     <use xlink:href="#C0_0_a5ad4c0a72" x="313.443288" y="270.826023" style="fill: #17becf; fill-opacity: 0.543518; stroke: #17becf; stroke-opacity: 0.543518"/>
    </g>
    <g clip-path="url(#p0f973c050d)">
     <use xlink:href="#C0_0_a5ad4c0a72" x="337.194011" y="280.723819" style="fill: #7f7f7f; fill-opacity: 0.549713; stroke: #7f7f7f; stroke-opacity: 0.549713"/>
    </g>
    <g clip-path="url(#p0f973c050d)">
     <use xlink:href="#C0_0_a5ad4c0a72" x="356.758402" y="343.147451" style="fill: #2ca02c; fill-opacity: 0.556435; stroke: #2ca02c; stroke-opacity: 0.556435"/>
    </g>
    <g clip-path="url(#p0f973c050d)">
     <use xlink:href="#C0_0_a5ad4c0a72" x="174.934049" y="172.503091" style="fill: #8c564b; fill-opacity: 0.565813; stroke: #8c564b; stroke-opacity: 0.565813"/>
    </g>
    <g clip-path="url(#p0f973c050d)">
     <use xlink:href="#C0_0_a5ad4c0a72" x="320.268552" y="279.903131" style="fill: #2ca02c; fill-opacity: 0.600366; stroke: #2ca02c; stroke-opacity: 0.600366"/>
    </g>
    <g clip-path="url(#p0f973c050d)">
     <use xlink:href="#C0_0_a5ad4c0a72" x="450.779812" y="206.712415" style="fill: #17becf; fill-opacity: 0.602479; stroke: #17becf; stroke-opacity: 0.602479"/>
    </g>
    <g clip-path="url(#p0f973c050d)">
     <use xlink:href="#C0_0_a5ad4c0a72" x="328.202749" y="207.758092" style="fill: #7f7f7f; fill-opacity: 0.625488; stroke: #7f7f7f; stroke-opacity: 0.625488"/>
    </g>
    <g clip-path="url(#p0f973c050d)">
     <use xlink:href="#C0_0_a5ad4c0a72" x="316.111406" y="268.536639" style="fill: #17becf; fill-opacity: 0.633464; stroke: #17becf; stroke-opacity: 0.633464"/>
    </g>
    <g clip-path="url(#p0f973c050d)">
     <use xlink:href="#C0_0_a5ad4c0a72" x="312.211713" y="281.529032" style="fill: #17becf; fill-opacity: 0.647215; stroke: #17becf; stroke-opacity: 0.647215"/>
    </g>
    <g clip-path="url(#p0f973c050d)">
     <use xlink:href="#C0_0_a5ad4c0a72" x="409.520733" y="342.610304" style="fill: #7f7f7f; fill-opacity: 0.668359; stroke: #7f7f7f; stroke-opacity: 0.668359"/>
    </g>
    <g clip-path="url(#p0f973c050d)">
     <use xlink:href="#C0_0_a5ad4c0a72" x="452.575856" y="221.240892" style="fill: #7f7f7f; fill-opacity: 0.669752; stroke: #7f7f7f; stroke-opacity: 0.669752"/>
    </g>
    <g clip-path="url(#p0f973c050d)">
     <use xlink:href="#C0_0_a5ad4c0a72" x="203.675723" y="269.924783" style="fill: #17becf; fill-opacity: 0.685426; stroke: #17becf; stroke-opacity: 0.685426"/>
    </g>
    <g clip-path="url(#p0f973c050d)">
     <use xlink:href="#C0_0_a5ad4c0a72" x="296.663341" y="290.917069" style="fill: #17becf; fill-opacity: 0.724869; stroke: #17becf; stroke-opacity: 0.724869"/>
    </g>
    <g clip-path="url(#p0f973c050d)">
     <use xlink:href="#C0_0_a5ad4c0a72" x="334.891736" y="231.50316" style="fill: #17becf; fill-opacity: 0.734205; stroke: #17becf; stroke-opacity: 0.734205"/>
    </g>
    <g clip-path="url(#p0f973c050d)">
     <use xlink:href="#C0_0_a5ad4c0a72" x="275.948151" y="430.37394" style="fill: #1f77b4; fill-opacity: 0.738215; stroke: #1f77b4; stroke-opacity: 0.738215"/>
    </g>
    <g clip-path="url(#p0f973c050d)">
     <use xlink:href="#C0_0_a5ad4c0a72" x="367.409559" y="298.891545" style="fill: #17becf; fill-opacity: 0.756313; stroke: #17becf; stroke-opacity: 0.756313"/>
    </g>
    <g clip-path="url(#p0f973c050d)">
     <use xlink:href="#C0_0_a5ad4c0a72" x="326.537151" y="397.057937" style="fill: #2ca02c; fill-opacity: 0.811729; stroke: #2ca02c; stroke-opacity: 0.811729"/>
    </g>
    <g clip-path="url(#p0f973c050d)">
     <use xlink:href="#C0_0_a5ad4c0a72" x="331.897423" y="216.299652" style="fill: #17becf; fill-opacity: 0.826087; stroke: #17becf; stroke-opacity: 0.826087"/>
    </g>
    <g clip-path="url(#p0f973c050d)">
     <use xlink:href="#C0_0_a5ad4c0a72" x="415.595102" y="319.68014" style="fill: #7f7f7f; fill-opacity: 0.847496; stroke: #7f7f7f; stroke-opacity: 0.847496"/>
    </g>
    <g clip-path="url(#p0f973c050d)">
     <use xlink:href="#C0_0_a5ad4c0a72" x="317.44367" y="405.243325" style="fill: #1f77b4; fill-opacity: 0.89535; stroke: #1f77b4; stroke-opacity: 0.89535"/>
    </g>
    <g clip-path="url(#p0f973c050d)">
     <use xlink:href="#C0_0_a5ad4c0a72" x="180.940479" y="225.852217" style="fill: #17becf; fill-opacity: 0.982001; stroke: #17becf; stroke-opacity: 0.982001"/>
    </g>
    <g clip-path="url(#p0f973c050d)">
     <use xlink:href="#C0_0_a5ad4c0a72" x="138.92249" y="235.607366" style="fill: #8c564b; stroke: #8c564b"/>
    </g>
   </g>
   <g id="text_28">
    <!-- 0 -->
    <g transform="translate(302.202374 148.215166) scale(0.09 -0.09)">
     <use xlink:href="#DejaVuSans-30"/>
    </g>
   </g>
   <g id="text_29">
    <!-- 1 -->
    <g transform="translate(275.948151 430.37394) scale(0.09 -0.09)">
     <use xlink:href="#DejaVuSans-31"/>
    </g>
   </g>
   <g id="text_30">
    <!-- 2 -->
    <g transform="translate(180.940479 225.852217) scale(0.09 -0.09)">
     <use xlink:href="#DejaVuSans-32"/>
    </g>
   </g>
   <g id="text_31">
    <!-- 3 -->
    <g transform="translate(217.558579 161.352824) scale(0.09 -0.09)">
     <use xlink:href="#DejaVuSans-33"/>
    </g>
   </g>
   <g id="text_32">
    <!-- 4 -->
    <g transform="translate(448.922599 292.099776) scale(0.09 -0.09)">
     <defs>
      <path id="DejaVuSans-34" d="M 2419 4116 
L 825 1625 
L 2419 1625 
L 2419 4116 
z
M 2253 4666 
L 3047 4666 
L 3047 1625 
L 3713 1625 
L 3713 1100 
L 3047 1100 
L 3047 0 
L 2419 0 
L 2419 1100 
L 313 1100 
L 313 1709 
L 2253 4666 
z
" transform="scale(0.015625)"/>
     </defs>
     <use xlink:href="#DejaVuSans-34"/>
    </g>
   </g>
   <g id="text_33">
    <!-- 5 -->
    <g transform="translate(317.44367 405.243325) scale(0.09 -0.09)">
     <use xlink:href="#DejaVuSans-35"/>
    </g>
   </g>
   <g id="text_34">
    <!-- 6 -->
    <g transform="translate(138.92249 235.607366) scale(0.09 -0.09)">
     <defs>
      <path id="DejaVuSans-36" d="M 2113 2584 
Q 1688 2584 1439 2293 
Q 1191 2003 1191 1497 
Q 1191 994 1439 701 
Q 1688 409 2113 409 
Q 2538 409 2786 701 
Q 3034 994 3034 1497 
Q 3034 2003 2786 2293 
Q 2538 2584 2113 2584 
z
M 3366 4563 
L 3366 3988 
Q 3128 4100 2886 4159 
Q 2644 4219 2406 4219 
Q 1781 4219 1451 3797 
Q 1122 3375 1075 2522 
Q 1259 2794 1537 2939 
Q 1816 3084 2150 3084 
Q 2853 3084 3261 2657 
Q 3669 2231 3669 1497 
Q 3669 778 3244 343 
Q 2819 -91 2113 -91 
Q 1303 -91 875 529 
Q 447 1150 447 2328 
Q 447 3434 972 4092 
Q 1497 4750 2381 4750 
Q 2619 4750 2861 4703 
Q 3103 4656 3366 4563 
z
" transform="scale(0.015625)"/>
     </defs>
     <use xlink:href="#DejaVuSans-36"/>
    </g>
   </g>
   <g id="text_35">
    <!-- 7 -->
    <g transform="translate(328.202749 207.758092) scale(0.09 -0.09)">
     <defs>
      <path id="DejaVuSans-37" d="M 525 4666 
L 3525 4666 
L 3525 4397 
L 1831 0 
L 1172 0 
L 2766 4134 
L 525 4134 
L 525 4666 
z
" transform="scale(0.015625)"/>
     </defs>
     <use xlink:href="#DejaVuSans-37"/>
    </g>
   </g>
   <g id="text_36">
    <!-- 8 -->
    <g transform="translate(452.575856 221.240892) scale(0.09 -0.09)">
     <defs>
      <path id="DejaVuSans-38" d="M 2034 2216 
Q 1584 2216 1326 1975 
Q 1069 1734 1069 1313 
Q 1069 891 1326 650 
Q 1584 409 2034 409 
Q 2484 409 2743 651 
Q 3003 894 3003 1313 
Q 3003 1734 2745 1975 
Q 2488 2216 2034 2216 
z
M 1403 2484 
Q 997 2584 770 2862 
Q 544 3141 544 3541 
Q 544 4100 942 4425 
Q 1341 4750 2034 4750 
Q 2731 4750 3128 4425 
Q 3525 4100 3525 3541 
Q 3525 3141 3298 2862 
Q 3072 2584 2669 2484 
Q 3125 2378 3379 2068 
Q 3634 1759 3634 1313 
Q 3634 634 3220 271 
Q 2806 -91 2034 -91 
Q 1263 -91 848 271 
Q 434 634 434 1313 
Q 434 1759 690 2068 
Q 947 2378 1403 2484 
z
M 1172 3481 
Q 1172 3119 1398 2916 
Q 1625 2713 2034 2713 
Q 2441 2713 2670 2916 
Q 2900 3119 2900 3481 
Q 2900 3844 2670 4047 
Q 2441 4250 2034 4250 
Q 1625 4250 1398 4047 
Q 1172 3844 1172 3481 
z
" transform="scale(0.015625)"/>
     </defs>
     <use xlink:href="#DejaVuSans-38"/>
    </g>
   </g>
   <g id="text_37">
    <!-- 9 -->
    <g transform="translate(334.891736 231.50316) scale(0.09 -0.09)">
     <defs>
      <path id="DejaVuSans-39" d="M 703 97 
L 703 672 
Q 941 559 1184 500 
Q 1428 441 1663 441 
Q 2288 441 2617 861 
Q 2947 1281 2994 2138 
Q 2813 1869 2534 1725 
Q 2256 1581 1919 1581 
Q 1219 1581 811 2004 
Q 403 2428 403 3163 
Q 403 3881 828 4315 
Q 1253 4750 1959 4750 
Q 2769 4750 3195 4129 
Q 3622 3509 3622 2328 
Q 3622 1225 3098 567 
Q 2575 -91 1691 -91 
Q 1453 -91 1209 -44 
Q 966 3 703 97 
z
M 1959 2075 
Q 2384 2075 2632 2365 
Q 2881 2656 2881 3163 
Q 2881 3666 2632 3958 
Q 2384 4250 1959 4250 
Q 1534 4250 1286 3958 
Q 1038 3666 1038 3163 
Q 1038 2656 1286 2365 
Q 1534 2075 1959 2075 
z
" transform="scale(0.015625)"/>
     </defs>
     <use xlink:href="#DejaVuSans-39"/>
    </g>
   </g>
   <g id="text_38">
    <!-- 10 -->
    <g transform="translate(174.934049 172.503091) scale(0.09 -0.09)">
     <use xlink:href="#DejaVuSans-31"/>
     <use xlink:href="#DejaVuSans-30" transform="translate(63.623047 0)"/>
    </g>
   </g>
   <g id="text_39">
    <!-- 11 -->
    <g transform="translate(307.071565 339.012958) scale(0.09 -0.09)">
     <use xlink:href="#DejaVuSans-31"/>
     <use xlink:href="#DejaVuSans-31" transform="translate(63.623047 0)"/>
    </g>
   </g>
   <g id="text_40">
    <!-- 12 -->
    <g transform="translate(320.268552 279.903131) scale(0.09 -0.09)">
     <use xlink:href="#DejaVuSans-31"/>
     <use xlink:href="#DejaVuSans-32" transform="translate(63.623047 0)"/>
    </g>
   </g>
   <g id="text_41">
    <!-- 13 -->
    <g transform="translate(415.595102 319.68014) scale(0.09 -0.09)">
     <use xlink:href="#DejaVuSans-31"/>
     <use xlink:href="#DejaVuSans-33" transform="translate(63.623047 0)"/>
    </g>
   </g>
   <g id="text_42">
    <!-- 14 -->
    <g transform="translate(356.758402 343.147451) scale(0.09 -0.09)">
     <use xlink:href="#DejaVuSans-31"/>
     <use xlink:href="#DejaVuSans-34" transform="translate(63.623047 0)"/>
    </g>
   </g>
   <g id="text_43">
    <!-- 15 -->
    <g transform="translate(367.409559 298.891545) scale(0.09 -0.09)">
     <use xlink:href="#DejaVuSans-31"/>
     <use xlink:href="#DejaVuSans-35" transform="translate(63.623047 0)"/>
    </g>
   </g>
   <g id="text_44">
    <!-- 16 -->
    <g transform="translate(337.194011 280.723819) scale(0.09 -0.09)">
     <use xlink:href="#DejaVuSans-31"/>
     <use xlink:href="#DejaVuSans-36" transform="translate(63.623047 0)"/>
    </g>
   </g>
   <g id="text_45">
    <!-- 17 -->
    <g transform="translate(331.897423 216.299652) scale(0.09 -0.09)">
     <use xlink:href="#DejaVuSans-31"/>
     <use xlink:href="#DejaVuSans-37" transform="translate(63.623047 0)"/>
    </g>
   </g>
   <g id="text_46">
    <!-- 18 -->
    <g transform="translate(409.520733 342.610304) scale(0.09 -0.09)">
     <use xlink:href="#DejaVuSans-31"/>
     <use xlink:href="#DejaVuSans-38" transform="translate(63.623047 0)"/>
    </g>
   </g>
   <g id="text_47">
    <!-- 19 -->
    <g transform="translate(329.138253 253.333201) scale(0.09 -0.09)">
     <use xlink:href="#DejaVuSans-31"/>
     <use xlink:href="#DejaVuSans-39" transform="translate(63.623047 0)"/>
    </g>
   </g>
   <g id="text_48">
    <!-- 20 -->
    <g transform="translate(312.211713 281.529032) scale(0.09 -0.09)">
     <use xlink:href="#DejaVuSans-32"/>
     <use xlink:href="#DejaVuSans-30" transform="translate(63.623047 0)"/>
    </g>
   </g>
   <g id="text_49">
    <!-- 21 -->
    <g transform="translate(450.779812 206.712415) scale(0.09 -0.09)">
     <use xlink:href="#DejaVuSans-32"/>
     <use xlink:href="#DejaVuSans-31" transform="translate(63.623047 0)"/>
    </g>
   </g>
   <g id="text_50">
    <!-- 22 -->
    <g transform="translate(305.942578 221.016402) scale(0.09 -0.09)">
     <use xlink:href="#DejaVuSans-32"/>
     <use xlink:href="#DejaVuSans-32" transform="translate(63.623047 0)"/>
    </g>
   </g>
   <g id="text_51">
    <!-- 23 -->
    <g transform="translate(203.675723 269.924783) scale(0.09 -0.09)">
     <use xlink:href="#DejaVuSans-32"/>
     <use xlink:href="#DejaVuSans-33" transform="translate(63.623047 0)"/>
    </g>
   </g>
   <g id="text_52">
    <!-- 24 -->
    <g transform="translate(326.537151 397.057937) scale(0.09 -0.09)">
     <use xlink:href="#DejaVuSans-32"/>
     <use xlink:href="#DejaVuSans-34" transform="translate(63.623047 0)"/>
    </g>
   </g>
   <g id="text_53">
    <!-- 25 -->
    <g transform="translate(228.313608 189.354754) scale(0.09 -0.09)">
     <use xlink:href="#DejaVuSans-32"/>
     <use xlink:href="#DejaVuSans-35" transform="translate(63.623047 0)"/>
    </g>
   </g>
   <g id="text_54">
    <!-- 26 -->
    <g transform="translate(316.111406 268.536639) scale(0.09 -0.09)">
     <use xlink:href="#DejaVuSans-32"/>
     <use xlink:href="#DejaVuSans-36" transform="translate(63.623047 0)"/>
    </g>
   </g>
   <g id="text_55">
    <!-- 27 -->
    <g transform="translate(462.034005 322.304695) scale(0.09 -0.09)">
     <use xlink:href="#DejaVuSans-32"/>
     <use xlink:href="#DejaVuSans-37" transform="translate(63.623047 0)"/>
    </g>
   </g>
   <g id="text_56">
    <!-- 28 -->
    <g transform="translate(313.443288 270.826023) scale(0.09 -0.09)">
     <use xlink:href="#DejaVuSans-32"/>
     <use xlink:href="#DejaVuSans-38" transform="translate(63.623047 0)"/>
    </g>
   </g>
   <g id="text_57">
    <!-- 29 -->
    <g transform="translate(296.663341 290.917069) scale(0.09 -0.09)">
     <use xlink:href="#DejaVuSans-32"/>
     <use xlink:href="#DejaVuSans-39" transform="translate(63.623047 0)"/>
    </g>
   </g>
   <g id="text_58">
    <!-- 3D PCoA Scatter Plot — Excess Entropy -->
    <g transform="translate(158.873437 16.318125) scale(0.12 -0.12)">
     <defs>
      <path id="DejaVuSans-50" d="M 1259 4147 
L 1259 2394 
L 2053 2394 
Q 2494 2394 2734 2622 
Q 2975 2850 2975 3272 
Q 2975 3691 2734 3919 
Q 2494 4147 2053 4147 
L 1259 4147 
z
M 628 4666 
L 2053 4666 
Q 2838 4666 3239 4311 
Q 3641 3956 3641 3272 
Q 3641 2581 3239 2228 
Q 2838 1875 2053 1875 
L 1259 1875 
L 1259 0 
L 628 0 
L 628 4666 
z
" transform="scale(0.015625)"/>
      <path id="DejaVuSans-43" d="M 4122 4306 
L 4122 3641 
Q 3803 3938 3442 4084 
Q 3081 4231 2675 4231 
Q 1875 4231 1450 3742 
Q 1025 3253 1025 2328 
Q 1025 1406 1450 917 
Q 1875 428 2675 428 
Q 3081 428 3442 575 
Q 3803 722 4122 1019 
L 4122 359 
Q 3791 134 3420 21 
Q 3050 -91 2638 -91 
Q 1578 -91 968 557 
Q 359 1206 359 2328 
Q 359 3453 968 4101 
Q 1578 4750 2638 4750 
Q 3056 4750 3426 4639 
Q 3797 4528 4122 4306 
z
" transform="scale(0.015625)"/>
      <path id="DejaVuSans-6f" d="M 1959 3097 
Q 1497 3097 1228 2736 
Q 959 2375 959 1747 
Q 959 1119 1226 758 
Q 1494 397 1959 397 
Q 2419 397 2687 759 
Q 2956 1122 2956 1747 
Q 2956 2369 2687 2733 
Q 2419 3097 1959 3097 
z
M 1959 3584 
Q 2709 3584 3137 3096 
Q 3566 2609 3566 1747 
Q 3566 888 3137 398 
Q 2709 -91 1959 -91 
Q 1206 -91 779 398 
Q 353 888 353 1747 
Q 353 2609 779 3096 
Q 1206 3584 1959 3584 
z
" transform="scale(0.015625)"/>
      <path id="DejaVuSans-41" d="M 2188 4044 
L 1331 1722 
L 3047 1722 
L 2188 4044 
z
M 1831 4666 
L 2547 4666 
L 4325 0 
L 3669 0 
L 3244 1197 
L 1141 1197 
L 716 0 
L 50 0 
L 1831 4666 
z
" transform="scale(0.015625)"/>
      <path id="DejaVuSans-53" d="M 3425 4513 
L 3425 3897 
Q 3066 4069 2747 4153 
Q 2428 4238 2131 4238 
Q 1616 4238 1336 4038 
Q 1056 3838 1056 3469 
Q 1056 3159 1242 3001 
Q 1428 2844 1947 2747 
L 2328 2669 
Q 3034 2534 3370 2195 
Q 3706 1856 3706 1288 
Q 3706 609 3251 259 
Q 2797 -91 1919 -91 
Q 1588 -91 1214 -16 
Q 841 59 441 206 
L 441 856 
Q 825 641 1194 531 
Q 1563 422 1919 422 
Q 2459 422 2753 634 
Q 3047 847 3047 1241 
Q 3047 1584 2836 1778 
Q 2625 1972 2144 2069 
L 1759 2144 
Q 1053 2284 737 2584 
Q 422 2884 422 3419 
Q 422 4038 858 4394 
Q 1294 4750 2059 4750 
Q 2388 4750 2728 4690 
Q 3069 4631 3425 4513 
z
" transform="scale(0.015625)"/>
      <path id="DejaVuSans-63" d="M 3122 3366 
L 3122 2828 
Q 2878 2963 2633 3030 
Q 2388 3097 2138 3097 
Q 1578 3097 1268 2742 
Q 959 2388 959 1747 
Q 959 1106 1268 751 
Q 1578 397 2138 397 
Q 2388 397 2633 464 
Q 2878 531 3122 666 
L 3122 134 
Q 2881 22 2623 -34 
Q 2366 -91 2075 -91 
Q 1284 -91 818 406 
Q 353 903 353 1747 
Q 353 2603 823 3093 
Q 1294 3584 2113 3584 
Q 2378 3584 2631 3529 
Q 2884 3475 3122 3366 
z
" transform="scale(0.015625)"/>
      <path id="DejaVuSans-61" d="M 2194 1759 
Q 1497 1759 1228 1600 
Q 959 1441 959 1056 
Q 959 750 1161 570 
Q 1363 391 1709 391 
Q 2188 391 2477 730 
Q 2766 1069 2766 1631 
L 2766 1759 
L 2194 1759 
z
M 3341 1997 
L 3341 0 
L 2766 0 
L 2766 531 
Q 2569 213 2275 61 
Q 1981 -91 1556 -91 
Q 1019 -91 701 211 
Q 384 513 384 1019 
Q 384 1609 779 1909 
Q 1175 2209 1959 2209 
L 2766 2209 
L 2766 2266 
Q 2766 2663 2505 2880 
Q 2244 3097 1772 3097 
Q 1472 3097 1187 3025 
Q 903 2953 641 2809 
L 641 3341 
Q 956 3463 1253 3523 
Q 1550 3584 1831 3584 
Q 2591 3584 2966 3190 
Q 3341 2797 3341 1997 
z
" transform="scale(0.015625)"/>
      <path id="DejaVuSans-74" d="M 1172 4494 
L 1172 3500 
L 2356 3500 
L 2356 3053 
L 1172 3053 
L 1172 1153 
Q 1172 725 1289 603 
Q 1406 481 1766 481 
L 2356 481 
L 2356 0 
L 1766 0 
Q 1100 0 847 248 
Q 594 497 594 1153 
L 594 3053 
L 172 3053 
L 172 3500 
L 594 3500 
L 594 4494 
L 1172 4494 
z
" transform="scale(0.015625)"/>
      <path id="DejaVuSans-65" d="M 3597 1894 
L 3597 1613 
L 953 1613 
Q 991 1019 1311 708 
Q 1631 397 2203 397 
Q 2534 397 2845 478 
Q 3156 559 3463 722 
L 3463 178 
Q 3153 47 2828 -22 
Q 2503 -91 2169 -91 
Q 1331 -91 842 396 
Q 353 884 353 1716 
Q 353 2575 817 3079 
Q 1281 3584 2069 3584 
Q 2775 3584 3186 3129 
Q 3597 2675 3597 1894 
z
M 3022 2063 
Q 3016 2534 2758 2815 
Q 2500 3097 2075 3097 
Q 1594 3097 1305 2825 
Q 1016 2553 972 2059 
L 3022 2063 
z
" transform="scale(0.015625)"/>
      <path id="DejaVuSans-72" d="M 2631 2963 
Q 2534 3019 2420 3045 
Q 2306 3072 2169 3072 
Q 1681 3072 1420 2755 
Q 1159 2438 1159 1844 
L 1159 0 
L 581 0 
L 581 3500 
L 1159 3500 
L 1159 2956 
Q 1341 3275 1631 3429 
Q 1922 3584 2338 3584 
Q 2397 3584 2469 3576 
Q 2541 3569 2628 3553 
L 2631 2963 
z
" transform="scale(0.015625)"/>
      <path id="DejaVuSans-6c" d="M 603 4863 
L 1178 4863 
L 1178 0 
L 603 0 
L 603 4863 
z
" transform="scale(0.015625)"/>
      <path id="DejaVuSans-2014" d="M 313 1978 
L 6088 1978 
L 6088 1528 
L 313 1528 
L 313 1978 
z
" transform="scale(0.015625)"/>
      <path id="DejaVuSans-45" d="M 628 4666 
L 3578 4666 
L 3578 4134 
L 1259 4134 
L 1259 2753 
L 3481 2753 
L 3481 2222 
L 1259 2222 
L 1259 531 
L 3634 531 
L 3634 0 
L 628 0 
L 628 4666 
z
" transform="scale(0.015625)"/>
      <path id="DejaVuSans-78" d="M 3513 3500 
L 2247 1797 
L 3578 0 
L 2900 0 
L 1881 1375 
L 863 0 
L 184 0 
L 1544 1831 
L 300 3500 
L 978 3500 
L 1906 2253 
L 2834 3500 
L 3513 3500 
z
" transform="scale(0.015625)"/>
      <path id="DejaVuSans-73" d="M 2834 3397 
L 2834 2853 
Q 2591 2978 2328 3040 
Q 2066 3103 1784 3103 
Q 1356 3103 1142 2972 
Q 928 2841 928 2578 
Q 928 2378 1081 2264 
Q 1234 2150 1697 2047 
L 1894 2003 
Q 2506 1872 2764 1633 
Q 3022 1394 3022 966 
Q 3022 478 2636 193 
Q 2250 -91 1575 -91 
Q 1294 -91 989 -36 
Q 684 19 347 128 
L 347 722 
Q 666 556 975 473 
Q 1284 391 1588 391 
Q 1994 391 2212 530 
Q 2431 669 2431 922 
Q 2431 1156 2273 1281 
Q 2116 1406 1581 1522 
L 1381 1569 
Q 847 1681 609 1914 
Q 372 2147 372 2553 
Q 372 3047 722 3315 
Q 1072 3584 1716 3584 
Q 2034 3584 2315 3537 
Q 2597 3491 2834 3397 
z
" transform="scale(0.015625)"/>
      <path id="DejaVuSans-6e" d="M 3513 2113 
L 3513 0 
L 2938 0 
L 2938 2094 
Q 2938 2591 2744 2837 
Q 2550 3084 2163 3084 
Q 1697 3084 1428 2787 
Q 1159 2491 1159 1978 
L 1159 0 
L 581 0 
L 581 3500 
L 1159 3500 
L 1159 2956 
Q 1366 3272 1645 3428 
Q 1925 3584 2291 3584 
Q 2894 3584 3203 3211 
Q 3513 2838 3513 2113 
z
" transform="scale(0.015625)"/>
      <path id="DejaVuSans-70" d="M 1159 525 
L 1159 -1331 
L 581 -1331 
L 581 3500 
L 1159 3500 
L 1159 2969 
Q 1341 3281 1617 3432 
Q 1894 3584 2278 3584 
Q 2916 3584 3314 3078 
Q 3713 2572 3713 1747 
Q 3713 922 3314 415 
Q 2916 -91 2278 -91 
Q 1894 -91 1617 61 
Q 1341 213 1159 525 
z
M 3116 1747 
Q 3116 2381 2855 2742 
Q 2594 3103 2138 3103 
Q 1681 3103 1420 2742 
Q 1159 2381 1159 1747 
Q 1159 1113 1420 752 
Q 1681 391 2138 391 
Q 2594 391 2855 752 
Q 3116 1113 3116 1747 
z
" transform="scale(0.015625)"/>
      <path id="DejaVuSans-79" d="M 2059 -325 
Q 1816 -950 1584 -1140 
Q 1353 -1331 966 -1331 
L 506 -1331 
L 506 -850 
L 844 -850 
Q 1081 -850 1212 -737 
Q 1344 -625 1503 -206 
L 1606 56 
L 191 3500 
L 800 3500 
L 1894 763 
L 2988 3500 
L 3597 3500 
L 2059 -325 
z
" transform="scale(0.015625)"/>
     </defs>
     <use xlink:href="#DejaVuSans-33"/>
     <use xlink:href="#DejaVuSans-44" transform="translate(63.623047 0)"/>
     <use xlink:href="#DejaVuSans-20" transform="translate(140.625 0)"/>
     <use xlink:href="#DejaVuSans-50" transform="translate(172.412109 0)"/>
     <use xlink:href="#DejaVuSans-43" transform="translate(232.714844 0)"/>
     <use xlink:href="#DejaVuSans-6f" transform="translate(302.539062 0)"/>
     <use xlink:href="#DejaVuSans-41" transform="translate(363.720703 0)"/>
     <use xlink:href="#DejaVuSans-20" transform="translate(432.128906 0)"/>
     <use xlink:href="#DejaVuSans-53" transform="translate(463.916016 0)"/>
     <use xlink:href="#DejaVuSans-63" transform="translate(527.392578 0)"/>
     <use xlink:href="#DejaVuSans-61" transform="translate(582.373047 0)"/>
     <use xlink:href="#DejaVuSans-74" transform="translate(643.652344 0)"/>
     <use xlink:href="#DejaVuSans-74" transform="translate(682.861328 0)"/>
     <use xlink:href="#DejaVuSans-65" transform="translate(722.070312 0)"/>
     <use xlink:href="#DejaVuSans-72" transform="translate(783.59375 0)"/>
     <use xlink:href="#DejaVuSans-20" transform="translate(824.707031 0)"/>
     <use xlink:href="#DejaVuSans-50" transform="translate(856.494141 0)"/>
     <use xlink:href="#DejaVuSans-6c" transform="translate(916.796875 0)"/>
     <use xlink:href="#DejaVuSans-6f" transform="translate(944.580078 0)"/>
     <use xlink:href="#DejaVuSans-74" transform="translate(1005.761719 0)"/>
     <use xlink:href="#DejaVuSans-20" transform="translate(1044.970703 0)"/>
     <use xlink:href="#DejaVuSans-2014" transform="translate(1076.757812 0)"/>
     <use xlink:href="#DejaVuSans-20" transform="translate(1176.757812 0)"/>
     <use xlink:href="#DejaVuSans-45" transform="translate(1208.544922 0)"/>
     <use xlink:href="#DejaVuSans-78" transform="translate(1271.728516 0)"/>
     <use xlink:href="#DejaVuSans-63" transform="translate(1329.158203 0)"/>
     <use xlink:href="#DejaVuSans-65" transform="translate(1384.138672 0)"/>
     <use xlink:href="#DejaVuSans-73" transform="translate(1445.662109 0)"/>
     <use xlink:href="#DejaVuSans-73" transform="translate(1497.761719 0)"/>
     <use xlink:href="#DejaVuSans-20" transform="translate(1549.861328 0)"/>
     <use xlink:href="#DejaVuSans-45" transform="translate(1581.648438 0)"/>
     <use xlink:href="#DejaVuSans-6e" transform="translate(1644.832031 0)"/>
     <use xlink:href="#DejaVuSans-74" transform="translate(1708.210938 0)"/>
     <use xlink:href="#DejaVuSans-72" transform="translate(1747.419922 0)"/>
     <use xlink:href="#DejaVuSans-6f" transform="translate(1786.283203 0)"/>
     <use xlink:href="#DejaVuSans-70" transform="translate(1847.464844 0)"/>
     <use xlink:href="#DejaVuSans-79" transform="translate(1910.941406 0)"/>
    </g>
   </g>
  </g>
 </g>
 <defs>
  <clipPath id="p0f973c050d">
   <rect x="7.2" y="22.318125" width="539.76" height="539.76"/>
  </clipPath>
 </defs>
</svg>
