<?xml version="1.0" encoding="utf-8" standalone="no"?>
<!DOCTYPE svg PUBLIC "-//W3C//DTD SVG 1.1//EN"
  "http://www.w3.org/Graphics/SVG/1.1/DTD/svg11.dtd">
<svg xmlns:xlink="http://www.w3.org/1999/xlink" width="505.679375pt" height="379.331875pt" viewBox="0 0 505.679375 379.331875" xmlns="http://www.w3.org/2000/svg" version="1.1">
 <metadata>
  <rdf:RDF xmlns:dc="http://purl.org/dc/elements/1.1/" xmlns:cc="http://creativecommons.org/ns#" xmlns:rdf="http://www.w3.org/1999/02/22-rdf-syntax-ns#">
   <cc:Work>
    <dc:type rdf:resource="http://purl.org/dc/dcmitype/StillImage"/>
    <dc:date>2025-05-22T08:02:28.625389</dc:date>
    <dc:format>image/svg+xml</dc:format>
    <dc:creator>
     <cc:Agent>
      <dc:title>Matplotlib v3.10.0, https://matplotlib.org/</dc:title>
     </cc:Agent>
    </dc:creator>
   </cc:Work>
  </rdf:RDF>
 </metadata>
 <defs>
  <style type="text/css">*{stroke-linejoin: round; stroke-linecap: butt}</style>
 </defs>
 <g id="figure_1">
  <g id="patch_1">
   <path d="M 0 379.331875 
L 505.679375 379.331875 
L 505.679375 0 
L 0 0 
z
" style="fill: #ffffff"/>
  </g>
  <g id="axes_1">
   <g id="patch_2">
    <path d="M 52.079375 339.84 
L 498.479375 339.84 
L 498.479375 7.2 
L 52.079375 7.2 
z
" style="fill: #ffffff"/>
   </g>
   <g id="matplotlib.axis_1">
    <g id="xtick_1">
     <g id="line2d_1">
      <defs>
       <path id="m5df5c6a8fc" d="M 0 0 
L 0 3.5 
" style="stroke: #000000; stroke-width: 0.8"/>
      </defs>
      <g>
       <use xlink:href="#m5df5c6a8fc" x="72.370284" y="339.84" style="stroke: #000000; stroke-width: 0.8"/>
      </g>
     </g>
     <g id="text_1">
      <!-- 0 -->
      <g transform="translate(69.189034 354.438437) scale(0.1 -0.1)">
       <defs>
        <path id="DejaVuSans-30" d="M 2034 4250 
Q 1547 4250 1301 3770 
Q 1056 3291 1056 2328 
Q 1056 1369 1301 889 
Q 1547 409 2034 409 
Q 2525 409 2770 889 
Q 3016 1369 3016 2328 
Q 3016 3291 2770 3770 
Q 2525 4250 2034 4250 
z
M 2034 4750 
Q 2819 4750 3233 4129 
Q 3647 3509 3647 2328 
Q 3647 1150 3233 529 
Q 2819 -91 2034 -91 
Q 1250 -91 836 529 
Q 422 1150 422 2328 
Q 422 3509 836 4129 
Q 1250 4750 2034 4750 
z
" transform="scale(0.015625)"/>
       </defs>
       <use xlink:href="#DejaVuSans-30"/>
      </g>
     </g>
    </g>
    <g id="xtick_2">
     <g id="line2d_2">
      <g>
       <use xlink:href="#m5df5c6a8fc" x="153.53392" y="339.84" style="stroke: #000000; stroke-width: 0.8"/>
      </g>
     </g>
     <g id="text_2">
      <!-- 100 -->
      <g transform="translate(143.99017 354.438437) scale(0.1 -0.1)">
       <defs>
        <path id="DejaVuSans-31" d="M 794 531 
L 1825 531 
L 1825 4091 
L 703 3866 
L 703 4441 
L 1819 4666 
L 2450 4666 
L 2450 531 
L 3481 531 
L 3481 0 
L 794 0 
L 794 531 
z
" transform="scale(0.015625)"/>
       </defs>
       <use xlink:href="#DejaVuSans-31"/>
       <use xlink:href="#DejaVuSans-30" transform="translate(63.623047 0)"/>
       <use xlink:href="#DejaVuSans-30" transform="translate(127.246094 0)"/>
      </g>
     </g>
    </g>
    <g id="xtick_3">
     <g id="line2d_3">
      <g>
       <use xlink:href="#m5df5c6a8fc" x="234.697557" y="339.84" style="stroke: #000000; stroke-width: 0.8"/>
      </g>
     </g>
     <g id="text_3">
      <!-- 200 -->
      <g transform="translate(225.153807 354.438437) scale(0.1 -0.1)">
       <defs>
        <path id="DejaVuSans-32" d="M 1228 531 
L 3431 531 
L 3431 0 
L 469 0 
L 469 531 
Q 828 903 1448 1529 
Q 2069 2156 2228 2338 
Q 2531 2678 2651 2914 
Q 2772 3150 2772 3378 
Q 2772 3750 2511 3984 
Q 2250 4219 1831 4219 
Q 1534 4219 1204 4116 
Q 875 4013 500 3803 
L 500 4441 
Q 881 4594 1212 4672 
Q 1544 4750 1819 4750 
Q 2544 4750 2975 4387 
Q 3406 4025 3406 3419 
Q 3406 3131 3298 2873 
Q 3191 2616 2906 2266 
Q 2828 2175 2409 1742 
Q 1991 1309 1228 531 
z
" transform="scale(0.015625)"/>
       </defs>
       <use xlink:href="#DejaVuSans-32"/>
       <use xlink:href="#DejaVuSans-30" transform="translate(63.623047 0)"/>
       <use xlink:href="#DejaVuSans-30" transform="translate(127.246094 0)"/>
      </g>
     </g>
    </g>
    <g id="xtick_4">
     <g id="line2d_4">
      <g>
       <use xlink:href="#m5df5c6a8fc" x="315.861193" y="339.84" style="stroke: #000000; stroke-width: 0.8"/>
      </g>
     </g>
     <g id="text_4">
      <!-- 300 -->
      <g transform="translate(306.317443 354.438437) scale(0.1 -0.1)">
       <defs>
        <path id="DejaVuSans-33" d="M 2597 2516 
Q 3050 2419 3304 2112 
Q 3559 1806 3559 1356 
Q 3559 666 3084 287 
Q 2609 -91 1734 -91 
Q 1441 -91 1130 -33 
Q 819 25 488 141 
L 488 750 
Q 750 597 1062 519 
Q 1375 441 1716 441 
Q 2309 441 2620 675 
Q 2931 909 2931 1356 
Q 2931 1769 2642 2001 
Q 2353 2234 1838 2234 
L 1294 2234 
L 1294 2753 
L 1863 2753 
Q 2328 2753 2575 2939 
Q 2822 3125 2822 3475 
Q 2822 3834 2567 4026 
Q 2313 4219 1838 4219 
Q 1578 4219 1281 4162 
Q 984 4106 628 3988 
L 628 4550 
Q 988 4650 1302 4700 
Q 1616 4750 1894 4750 
Q 2613 4750 3031 4423 
Q 3450 4097 3450 3541 
Q 3450 3153 3228 2886 
Q 3006 2619 2597 2516 
z
" transform="scale(0.015625)"/>
       </defs>
       <use xlink:href="#DejaVuSans-33"/>
       <use xlink:href="#DejaVuSans-30" transform="translate(63.623047 0)"/>
       <use xlink:href="#DejaVuSans-30" transform="translate(127.246094 0)"/>
      </g>
     </g>
    </g>
    <g id="xtick_5">
     <g id="line2d_5">
      <g>
       <use xlink:href="#m5df5c6a8fc" x="397.02483" y="339.84" style="stroke: #000000; stroke-width: 0.8"/>
      </g>
     </g>
     <g id="text_5">
      <!-- 400 -->
      <g transform="translate(387.48108 354.438437) scale(0.1 -0.1)">
       <defs>
        <path id="DejaVuSans-34" d="M 2419 4116 
L 825 1625 
L 2419 1625 
L 2419 4116 
z
M 2253 4666 
L 3047 4666 
L 3047 1625 
L 3713 1625 
L 3713 1100 
L 3047 1100 
L 3047 0 
L 2419 0 
L 2419 1100 
L 313 1100 
L 313 1709 
L 2253 4666 
z
" transform="scale(0.015625)"/>
       </defs>
       <use xlink:href="#DejaVuSans-34"/>
       <use xlink:href="#DejaVuSans-30" transform="translate(63.623047 0)"/>
       <use xlink:href="#DejaVuSans-30" transform="translate(127.246094 0)"/>
      </g>
     </g>
    </g>
    <g id="xtick_6">
     <g id="line2d_6">
      <g>
       <use xlink:href="#m5df5c6a8fc" x="478.188466" y="339.84" style="stroke: #000000; stroke-width: 0.8"/>
      </g>
     </g>
     <g id="text_6">
      <!-- 500 -->
      <g transform="translate(468.644716 354.438437) scale(0.1 -0.1)">
       <defs>
        <path id="DejaVuSans-35" d="M 691 4666 
L 3169 4666 
L 3169 4134 
L 1269 4134 
L 1269 2991 
Q 1406 3038 1543 3061 
Q 1681 3084 1819 3084 
Q 2600 3084 3056 2656 
Q 3513 2228 3513 1497 
Q 3513 744 3044 326 
Q 2575 -91 1722 -91 
Q 1428 -91 1123 -41 
Q 819 9 494 109 
L 494 744 
Q 775 591 1075 516 
Q 1375 441 1709 441 
Q 2250 441 2565 725 
Q 2881 1009 2881 1497 
Q 2881 1984 2565 2268 
Q 2250 2553 1709 2553 
Q 1456 2553 1204 2497 
Q 953 2441 691 2322 
L 691 4666 
z
" transform="scale(0.015625)"/>
       </defs>
       <use xlink:href="#DejaVuSans-35"/>
       <use xlink:href="#DejaVuSans-30" transform="translate(63.623047 0)"/>
       <use xlink:href="#DejaVuSans-30" transform="translate(127.246094 0)"/>
      </g>
     </g>
    </g>
    <g id="text_7">
     <!-- index [-] -->
     <g transform="translate(250.109375 369.63625) scale(0.12 -0.12)">
      <defs>
       <path id="DejaVuSans-69" d="M 603 3500 
L 1178 3500 
L 1178 0 
L 603 0 
L 603 3500 
z
M 603 4863 
L 1178 4863 
L 1178 4134 
L 603 4134 
L 603 4863 
z
" transform="scale(0.015625)"/>
       <path id="DejaVuSans-6e" d="M 3513 2113 
L 3513 0 
L 2938 0 
L 2938 2094 
Q 2938 2591 2744 2837 
Q 2550 3084 2163 3084 
Q 1697 3084 1428 2787 
Q 1159 2491 1159 1978 
L 1159 0 
L 581 0 
L 581 3500 
L 1159 3500 
L 1159 2956 
Q 1366 3272 1645 3428 
Q 1925 3584 2291 3584 
Q 2894 3584 3203 3211 
Q 3513 2838 3513 2113 
z
" transform="scale(0.015625)"/>
       <path id="DejaVuSans-64" d="M 2906 2969 
L 2906 4863 
L 3481 4863 
L 3481 0 
L 2906 0 
L 2906 525 
Q 2725 213 2448 61 
Q 2172 -91 1784 -91 
Q 1150 -91 751 415 
Q 353 922 353 1747 
Q 353 2572 751 3078 
Q 1150 3584 1784 3584 
Q 2172 3584 2448 3432 
Q 2725 3281 2906 2969 
z
M 947 1747 
Q 947 1113 1208 752 
Q 1469 391 1925 391 
Q 2381 391 2643 752 
Q 2906 1113 2906 1747 
Q 2906 2381 2643 2742 
Q 2381 3103 1925 3103 
Q 1469 3103 1208 2742 
Q 947 2381 947 1747 
z
" transform="scale(0.015625)"/>
       <path id="DejaVuSans-65" d="M 3597 1894 
L 3597 1613 
L 953 1613 
Q 991 1019 1311 708 
Q 1631 397 2203 397 
Q 2534 397 2845 478 
Q 3156 559 3463 722 
L 3463 178 
Q 3153 47 2828 -22 
Q 2503 -91 2169 -91 
Q 1331 -91 842 396 
Q 353 884 353 1716 
Q 353 2575 817 3079 
Q 1281 3584 2069 3584 
Q 2775 3584 3186 3129 
Q 3597 2675 3597 1894 
z
M 3022 2063 
Q 3016 2534 2758 2815 
Q 2500 3097 2075 3097 
Q 1594 3097 1305 2825 
Q 1016 2553 972 2059 
L 3022 2063 
z
" transform="scale(0.015625)"/>
       <path id="DejaVuSans-78" d="M 3513 3500 
L 2247 1797 
L 3578 0 
L 2900 0 
L 1881 1375 
L 863 0 
L 184 0 
L 1544 1831 
L 300 3500 
L 978 3500 
L 1906 2253 
L 2834 3500 
L 3513 3500 
z
" transform="scale(0.015625)"/>
       <path id="DejaVuSans-20" transform="scale(0.015625)"/>
       <path id="DejaVuSans-5b" d="M 550 4863 
L 1875 4863 
L 1875 4416 
L 1125 4416 
L 1125 -397 
L 1875 -397 
L 1875 -844 
L 550 -844 
L 550 4863 
z
" transform="scale(0.015625)"/>
       <path id="DejaVuSans-2d" d="M 313 2009 
L 1997 2009 
L 1997 1497 
L 313 1497 
L 313 2009 
z
" transform="scale(0.015625)"/>
       <path id="DejaVuSans-5d" d="M 1947 4863 
L 1947 -844 
L 622 -844 
L 622 -397 
L 1369 -397 
L 1369 4416 
L 622 4416 
L 622 4863 
L 1947 4863 
z
" transform="scale(0.015625)"/>
      </defs>
      <use xlink:href="#DejaVuSans-69"/>
      <use xlink:href="#DejaVuSans-6e" transform="translate(27.783203 0)"/>
      <use xlink:href="#DejaVuSans-64" transform="translate(91.162109 0)"/>
      <use xlink:href="#DejaVuSans-65" transform="translate(154.638672 0)"/>
      <use xlink:href="#DejaVuSans-78" transform="translate(214.412109 0)"/>
      <use xlink:href="#DejaVuSans-20" transform="translate(273.591797 0)"/>
      <use xlink:href="#DejaVuSans-5b" transform="translate(305.378906 0)"/>
      <use xlink:href="#DejaVuSans-2d" transform="translate(344.392578 0)"/>
      <use xlink:href="#DejaVuSans-5d" transform="translate(380.476562 0)"/>
     </g>
    </g>
   </g>
   <g id="matplotlib.axis_2">
    <g id="ytick_1">
     <g id="line2d_7">
      <defs>
       <path id="m6161f387cd" d="M 0 0 
L -3.5 0 
" style="stroke: #000000; stroke-width: 0.8"/>
      </defs>
      <g>
       <use xlink:href="#m6161f387cd" x="52.079375" y="324.72" style="stroke: #000000; stroke-width: 0.8"/>
      </g>
     </g>
     <g id="text_8">
      <!-- 0.00 -->
      <g transform="translate(22.81375 328.519219) scale(0.1 -0.1)">
       <defs>
        <path id="DejaVuSans-2e" d="M 684 794 
L 1344 794 
L 1344 0 
L 684 0 
L 684 794 
z
" transform="scale(0.015625)"/>
       </defs>
       <use xlink:href="#DejaVuSans-30"/>
       <use xlink:href="#DejaVuSans-2e" transform="translate(63.623047 0)"/>
       <use xlink:href="#DejaVuSans-30" transform="translate(95.410156 0)"/>
       <use xlink:href="#DejaVuSans-30" transform="translate(159.033203 0)"/>
      </g>
     </g>
    </g>
    <g id="ytick_2">
     <g id="line2d_8">
      <g>
       <use xlink:href="#m6161f387cd" x="52.079375" y="285.787935" style="stroke: #000000; stroke-width: 0.8"/>
      </g>
     </g>
     <g id="text_9">
      <!-- 0.05 -->
      <g transform="translate(22.81375 289.587154) scale(0.1 -0.1)">
       <use xlink:href="#DejaVuSans-30"/>
       <use xlink:href="#DejaVuSans-2e" transform="translate(63.623047 0)"/>
       <use xlink:href="#DejaVuSans-30" transform="translate(95.410156 0)"/>
       <use xlink:href="#DejaVuSans-35" transform="translate(159.033203 0)"/>
      </g>
     </g>
    </g>
    <g id="ytick_3">
     <g id="line2d_9">
      <g>
       <use xlink:href="#m6161f387cd" x="52.079375" y="246.85587" style="stroke: #000000; stroke-width: 0.8"/>
      </g>
     </g>
     <g id="text_10">
      <!-- 0.10 -->
      <g transform="translate(22.81375 250.655089) scale(0.1 -0.1)">
       <use xlink:href="#DejaVuSans-30"/>
       <use xlink:href="#DejaVuSans-2e" transform="translate(63.623047 0)"/>
       <use xlink:href="#DejaVuSans-31" transform="translate(95.410156 0)"/>
       <use xlink:href="#DejaVuSans-30" transform="translate(159.033203 0)"/>
      </g>
     </g>
    </g>
    <g id="ytick_4">
     <g id="line2d_10">
      <g>
       <use xlink:href="#m6161f387cd" x="52.079375" y="207.923805" style="stroke: #000000; stroke-width: 0.8"/>
      </g>
     </g>
     <g id="text_11">
      <!-- 0.15 -->
      <g transform="translate(22.81375 211.723024) scale(0.1 -0.1)">
       <use xlink:href="#DejaVuSans-30"/>
       <use xlink:href="#DejaVuSans-2e" transform="translate(63.623047 0)"/>
       <use xlink:href="#DejaVuSans-31" transform="translate(95.410156 0)"/>
       <use xlink:href="#DejaVuSans-35" transform="translate(159.033203 0)"/>
      </g>
     </g>
    </g>
    <g id="ytick_5">
     <g id="line2d_11">
      <g>
       <use xlink:href="#m6161f387cd" x="52.079375" y="168.99174" style="stroke: #000000; stroke-width: 0.8"/>
      </g>
     </g>
     <g id="text_12">
      <!-- 0.20 -->
      <g transform="translate(22.81375 172.790959) scale(0.1 -0.1)">
       <use xlink:href="#DejaVuSans-30"/>
       <use xlink:href="#DejaVuSans-2e" transform="translate(63.623047 0)"/>
       <use xlink:href="#DejaVuSans-32" transform="translate(95.410156 0)"/>
       <use xlink:href="#DejaVuSans-30" transform="translate(159.033203 0)"/>
      </g>
     </g>
    </g>
    <g id="ytick_6">
     <g id="line2d_12">
      <g>
       <use xlink:href="#m6161f387cd" x="52.079375" y="130.059675" style="stroke: #000000; stroke-width: 0.8"/>
      </g>
     </g>
     <g id="text_13">
      <!-- 0.25 -->
      <g transform="translate(22.81375 133.858894) scale(0.1 -0.1)">
       <use xlink:href="#DejaVuSans-30"/>
       <use xlink:href="#DejaVuSans-2e" transform="translate(63.623047 0)"/>
       <use xlink:href="#DejaVuSans-32" transform="translate(95.410156 0)"/>
       <use xlink:href="#DejaVuSans-35" transform="translate(159.033203 0)"/>
      </g>
     </g>
    </g>
    <g id="ytick_7">
     <g id="line2d_13">
      <g>
       <use xlink:href="#m6161f387cd" x="52.079375" y="91.127611" style="stroke: #000000; stroke-width: 0.8"/>
      </g>
     </g>
     <g id="text_14">
      <!-- 0.30 -->
      <g transform="translate(22.81375 94.926829) scale(0.1 -0.1)">
       <use xlink:href="#DejaVuSans-30"/>
       <use xlink:href="#DejaVuSans-2e" transform="translate(63.623047 0)"/>
       <use xlink:href="#DejaVuSans-33" transform="translate(95.410156 0)"/>
       <use xlink:href="#DejaVuSans-30" transform="translate(159.033203 0)"/>
      </g>
     </g>
    </g>
    <g id="ytick_8">
     <g id="line2d_14">
      <g>
       <use xlink:href="#m6161f387cd" x="52.079375" y="52.195546" style="stroke: #000000; stroke-width: 0.8"/>
      </g>
     </g>
     <g id="text_15">
      <!-- 0.35 -->
      <g transform="translate(22.81375 55.994764) scale(0.1 -0.1)">
       <use xlink:href="#DejaVuSans-30"/>
       <use xlink:href="#DejaVuSans-2e" transform="translate(63.623047 0)"/>
       <use xlink:href="#DejaVuSans-33" transform="translate(95.410156 0)"/>
       <use xlink:href="#DejaVuSans-35" transform="translate(159.033203 0)"/>
      </g>
     </g>
    </g>
    <g id="ytick_9">
     <g id="line2d_15">
      <g>
       <use xlink:href="#m6161f387cd" x="52.079375" y="13.263481" style="stroke: #000000; stroke-width: 0.8"/>
      </g>
     </g>
     <g id="text_16">
      <!-- 0.40 -->
      <g transform="translate(22.81375 17.062699) scale(0.1 -0.1)">
       <use xlink:href="#DejaVuSans-30"/>
       <use xlink:href="#DejaVuSans-2e" transform="translate(63.623047 0)"/>
       <use xlink:href="#DejaVuSans-34" transform="translate(95.410156 0)"/>
       <use xlink:href="#DejaVuSans-30" transform="translate(159.033203 0)"/>
      </g>
     </g>
    </g>
    <g id="text_17">
     <!-- intensity [a.u.] -->
     <g transform="translate(16.318125 217.41375) rotate(-90) scale(0.12 -0.12)">
      <defs>
       <path id="DejaVuSans-74" d="M 1172 4494 
L 1172 3500 
L 2356 3500 
L 2356 3053 
L 1172 3053 
L 1172 1153 
Q 1172 725 1289 603 
Q 1406 481 1766 481 
L 2356 481 
L 2356 0 
L 1766 0 
Q 1100 0 847 248 
Q 594 497 594 1153 
L 594 3053 
L 172 3053 
L 172 3500 
L 594 3500 
L 594 4494 
L 1172 4494 
z
" transform="scale(0.015625)"/>
       <path id="DejaVuSans-73" d="M 2834 3397 
L 2834 2853 
Q 2591 2978 2328 3040 
Q 2066 3103 1784 3103 
Q 1356 3103 1142 2972 
Q 928 2841 928 2578 
Q 928 2378 1081 2264 
Q 1234 2150 1697 2047 
L 1894 2003 
Q 2506 1872 2764 1633 
Q 3022 1394 3022 966 
Q 3022 478 2636 193 
Q 2250 -91 1575 -91 
Q 1294 -91 989 -36 
Q 684 19 347 128 
L 347 722 
Q 666 556 975 473 
Q 1284 391 1588 391 
Q 1994 391 2212 530 
Q 2431 669 2431 922 
Q 2431 1156 2273 1281 
Q 2116 1406 1581 1522 
L 1381 1569 
Q 847 1681 609 1914 
Q 372 2147 372 2553 
Q 372 3047 722 3315 
Q 1072 3584 1716 3584 
Q 2034 3584 2315 3537 
Q 2597 3491 2834 3397 
z
" transform="scale(0.015625)"/>
       <path id="DejaVuSans-79" d="M 2059 -325 
Q 1816 -950 1584 -1140 
Q 1353 -1331 966 -1331 
L 506 -1331 
L 506 -850 
L 844 -850 
Q 1081 -850 1212 -737 
Q 1344 -625 1503 -206 
L 1606 56 
L 191 3500 
L 800 3500 
L 1894 763 
L 2988 3500 
L 3597 3500 
L 2059 -325 
z
" transform="scale(0.015625)"/>
       <path id="DejaVuSans-61" d="M 2194 1759 
Q 1497 1759 1228 1600 
Q 959 1441 959 1056 
Q 959 750 1161 570 
Q 1363 391 1709 391 
Q 2188 391 2477 730 
Q 2766 1069 2766 1631 
L 2766 1759 
L 2194 1759 
z
M 3341 1997 
L 3341 0 
L 2766 0 
L 2766 531 
Q 2569 213 2275 61 
Q 1981 -91 1556 -91 
Q 1019 -91 701 211 
Q 384 513 384 1019 
Q 384 1609 779 1909 
Q 1175 2209 1959 2209 
L 2766 2209 
L 2766 2266 
Q 2766 2663 2505 2880 
Q 2244 3097 1772 3097 
Q 1472 3097 1187 3025 
Q 903 2953 641 2809 
L 641 3341 
Q 956 3463 1253 3523 
Q 1550 3584 1831 3584 
Q 2591 3584 2966 3190 
Q 3341 2797 3341 1997 
z
" transform="scale(0.015625)"/>
       <path id="DejaVuSans-75" d="M 544 1381 
L 544 3500 
L 1119 3500 
L 1119 1403 
Q 1119 906 1312 657 
Q 1506 409 1894 409 
Q 2359 409 2629 706 
Q 2900 1003 2900 1516 
L 2900 3500 
L 3475 3500 
L 3475 0 
L 2900 0 
L 2900 538 
Q 2691 219 2414 64 
Q 2138 -91 1772 -91 
Q 1169 -91 856 284 
Q 544 659 544 1381 
z
M 1991 3584 
L 1991 3584 
z
" transform="scale(0.015625)"/>
      </defs>
      <use xlink:href="#DejaVuSans-69"/>
      <use xlink:href="#DejaVuSans-6e" transform="translate(27.783203 0)"/>
      <use xlink:href="#DejaVuSans-74" transform="translate(91.162109 0)"/>
      <use xlink:href="#DejaVuSans-65" transform="translate(130.371094 0)"/>
      <use xlink:href="#DejaVuSans-6e" transform="translate(191.894531 0)"/>
      <use xlink:href="#DejaVuSans-73" transform="translate(255.273438 0)"/>
      <use xlink:href="#DejaVuSans-69" transform="translate(307.373047 0)"/>
      <use xlink:href="#DejaVuSans-74" transform="translate(335.15625 0)"/>
      <use xlink:href="#DejaVuSans-79" transform="translate(374.365234 0)"/>
      <use xlink:href="#DejaVuSans-20" transform="translate(433.544922 0)"/>
      <use xlink:href="#DejaVuSans-5b" transform="translate(465.332031 0)"/>
      <use xlink:href="#DejaVuSans-61" transform="translate(504.345703 0)"/>
      <use xlink:href="#DejaVuSans-2e" transform="translate(565.625 0)"/>
      <use xlink:href="#DejaVuSans-75" transform="translate(597.412109 0)"/>
      <use xlink:href="#DejaVuSans-2e" transform="translate(660.791016 0)"/>
      <use xlink:href="#DejaVuSans-5d" transform="translate(692.578125 0)"/>
     </g>
    </g>
   </g>
   <g id="line2d_16">
    <path d="M 72.370284 324.72 
L 86.842549 324.6588 
L 87.0408 324.422619 
L 87.23905 323.538469 
L 87.4373 320.881647 
L 87.63555 314.524398 
L 88.032051 285.396398 
L 88.428551 256.929904 
L 88.626801 258.91257 
L 89.618052 321.950889 
L 89.816303 323.916737 
L 90.014553 324.529479 
L 90.411053 324.714141 
L 94.772558 324.72 
L 124.90659 324.671939 
L 125.10484 324.545772 
L 125.30309 324.153643 
L 125.501341 323.069155 
L 125.699591 320.405141 
L 125.897841 314.607208 
L 126.096091 303.467031 
L 126.492592 257.041765 
L 127.087342 154.964467 
L 127.285593 139.265609 
L 127.483843 143.045318 
L 127.880343 199.018256 
L 128.475094 292.7868 
L 128.871594 317.29442 
L 129.069844 321.679531 
L 129.268095 323.603664 
L 129.466345 324.35247 
L 129.862845 324.691278 
L 131.052347 324.719999 
L 142.947359 324.695448 
L 143.145609 324.514338 
L 143.34386 323.412792 
L 143.54211 318.41525 
L 143.74036 301.646024 
L 143.93861 260.64208 
L 144.533361 62.748028 
L 144.731611 83.526016 
L 145.326362 288.787296 
L 145.524612 313.752006 
L 145.722862 322.179636 
L 145.921112 324.273526 
L 146.119363 324.660457 
L 146.714113 324.719973 
L 161.979379 324.639094 
L 162.17763 324.514257 
L 162.37588 324.231185 
L 162.57413 323.634975 
L 162.77238 322.469856 
L 162.97063 320.360306 
L 163.367131 311.373309 
L 163.763631 293.589024 
L 164.556632 249.810734 
L 164.754882 246.004604 
L 164.953133 247.441406 
L 165.151383 253.838302 
L 166.340884 314.595666 
L 166.737385 321.647818 
L 167.133885 324.009721 
L 167.530385 324.594884 
L 168.125136 324.714445 
L 171.297139 324.678974 
L 171.69364 324.506445 
L 171.89189 324.264267 
L 172.09014 323.789837 
L 172.28839 322.904246 
L 172.486641 321.329967 
L 172.684891 318.66659 
L 173.081391 307.833493 
L 173.477892 285.303683 
L 173.874392 247.734525 
L 174.865643 136.528301 
L 175.063893 127.846987 
L 175.262144 127.740493 
L 175.460394 136.222744 
L 175.856894 173.70489 
L 176.848145 284.939649 
L 177.244646 307.640631 
L 177.641146 318.584195 
L 178.037647 322.875546 
L 178.434147 324.256061 
L 178.830647 324.622355 
L 179.425398 324.71325 
L 183.985153 324.703209 
L 184.381653 324.618362 
L 184.579903 324.486812 
L 184.778154 324.209335 
L 184.976404 323.652563 
L 185.174654 322.590267 
L 185.372904 320.664122 
L 185.571155 317.347389 
L 185.967655 303.535183 
L 186.364155 274.191627 
L 186.760656 224.684732 
L 187.751907 80.494028 
L 187.950157 70.82742 
L 188.148407 72.787046 
L 188.346657 86.105542 
L 188.743158 138.575276 
L 189.536159 259.934119 
L 189.932659 295.816128 
L 190.32916 314.016177 
L 190.72566 321.429749 
L 191.12216 323.880486 
L 191.518661 324.542153 
L 191.915161 324.688183 
L 192.708162 324.677802 
L 193.104663 324.459115 
L 193.302913 324.117333 
L 193.501163 323.399759 
L 193.699413 321.977698 
L 193.897663 319.319229 
L 194.095914 314.635052 
L 194.492414 294.746239 
L 194.888914 252.722444 
L 195.483665 144.931539 
L 196.078416 46.684005 
L 196.276666 35.67293 
L 196.474916 39.806284 
L 196.673166 58.441941 
L 197.069667 126.470935 
L 197.862668 266.71178 
L 198.259168 301.922241 
L 198.655668 317.478913 
L 199.052169 322.861236 
L 199.448669 324.334385 
L 199.84517 324.655346 
L 200.638171 324.719041 
L 233.944206 324.72 
L 262.492236 324.630743 
L 262.690487 324.058287 
L 262.888737 321.291633 
L 263.086987 312.306513 
L 263.681738 256.069304 
L 263.879988 265.426659 
L 264.276488 309.622892 
L 264.474739 320.269379 
L 264.672989 323.80307 
L 264.871239 324.58798 
L 265.267739 324.719066 
L 290.247266 324.72 
L 307.098534 324.707192 
L 307.296784 324.554133 
L 307.495034 323.273428 
L 307.693284 316.223613 
L 307.891535 291.111984 
L 308.486285 130.65127 
L 308.684536 166.805468 
L 309.081036 292.78267 
L 309.279286 316.782046 
L 309.477536 323.391281 
L 309.675787 324.570214 
L 310.072287 324.719419 
L 321.372549 324.689515 
L 321.769049 324.493837 
L 321.9673 324.158209 
L 322.16555 323.407649 
L 322.3638 321.836979 
L 322.56205 318.763814 
L 322.760301 313.147925 
L 322.958551 303.576503 
L 323.355051 266.014929 
L 323.751552 197.233376 
L 324.544552 37.037629 
L 324.742803 22.32 
L 324.941053 25.787678 
L 325.139303 46.821299 
L 325.734054 170.278949 
L 326.328804 275.341039 
L 326.725305 307.73727 
L 327.121805 320.151609 
L 327.518306 323.75881 
L 327.914806 324.561822 
L 328.311306 324.69964 
L 330.095558 324.72 
L 366.771847 324.671155 
L 367.168348 324.459354 
L 367.366598 324.161786 
L 367.564848 323.583318 
L 367.763098 322.519272 
L 367.961349 320.66881 
L 368.357849 312.919999 
L 368.754349 296.630938 
L 369.3491 254.057796 
L 369.943851 211.834622 
L 370.142101 205.4222 
L 370.340351 204.848447 
L 370.538601 210.198038 
L 370.935102 234.873548 
L 371.728103 294.534896 
L 372.124603 311.793759 
L 372.521103 320.196156 
L 372.917604 323.426106 
L 373.314104 324.417555 
L 373.710605 324.662224 
L 374.503606 324.718849 
L 398.888382 324.718808 
L 399.086632 324.702548 
L 399.284882 324.541474 
L 399.483132 323.443665 
L 399.681382 318.342589 
L 399.879633 302.448983 
L 400.474383 214.179075 
L 400.672633 232.615085 
L 401.069134 302.890175 
L 401.267384 318.51048 
L 401.465634 323.485527 
L 401.663884 324.548477 
L 402.060385 324.71887 
L 422.678407 324.72 
L 478.188466 324.72 
L 478.188466 324.72 
" clip-path="url(#p670c7dea4b)" style="fill: none; stroke: #1f77b4; stroke-width: 2; stroke-linecap: square"/>
   </g>
   <g id="patch_3">
    <path d="M 52.079375 339.84 
L 52.079375 7.2 
" style="fill: none; stroke: #000000; stroke-width: 0.8; stroke-linejoin: miter; stroke-linecap: square"/>
   </g>
   <g id="patch_4">
    <path d="M 498.479375 339.84 
L 498.479375 7.2 
" style="fill: none; stroke: #000000; stroke-width: 0.8; stroke-linejoin: miter; stroke-linecap: square"/>
   </g>
   <g id="patch_5">
    <path d="M 52.079375 339.84 
L 498.479375 339.84 
" style="fill: none; stroke: #000000; stroke-width: 0.8; stroke-linejoin: miter; stroke-linecap: square"/>
   </g>
   <g id="patch_6">
    <path d="M 52.079375 7.2 
L 498.479375 7.2 
" style="fill: none; stroke: #000000; stroke-width: 0.8; stroke-linejoin: miter; stroke-linecap: square"/>
   </g>
   <g id="legend_1">
    <g id="patch_7">
     <path d="M 417.648125 34.41375 
L 490.079375 34.41375 
Q 492.479375 34.41375 492.479375 32.01375 
L 492.479375 15.6 
Q 492.479375 13.2 490.079375 13.2 
L 417.648125 13.2 
Q 415.248125 13.2 415.248125 15.6 
L 415.248125 32.01375 
Q 415.248125 34.41375 417.648125 34.41375 
z
" style="fill: #ffffff; opacity: 0.8; stroke: #cccccc; stroke-linejoin: miter"/>
    </g>
    <g id="line2d_17">
     <path d="M 420.048125 22.918125 
L 432.048125 22.918125 
L 444.048125 22.918125 
" style="fill: none; stroke: #1f77b4; stroke-width: 2; stroke-linecap: square"/>
    </g>
    <g id="text_18">
     <!-- mean -->
     <g transform="translate(453.648125 27.118125) scale(0.12 -0.12)">
      <defs>
       <path id="DejaVuSans-6d" d="M 3328 2828 
Q 3544 3216 3844 3400 
Q 4144 3584 4550 3584 
Q 5097 3584 5394 3201 
Q 5691 2819 5691 2113 
L 5691 0 
L 5113 0 
L 5113 2094 
Q 5113 2597 4934 2840 
Q 4756 3084 4391 3084 
Q 3944 3084 3684 2787 
Q 3425 2491 3425 1978 
L 3425 0 
L 2847 0 
L 2847 2094 
Q 2847 2600 2669 2842 
Q 2491 3084 2119 3084 
Q 1678 3084 1418 2786 
Q 1159 2488 1159 1978 
L 1159 0 
L 581 0 
L 581 3500 
L 1159 3500 
L 1159 2956 
Q 1356 3278 1631 3431 
Q 1906 3584 2284 3584 
Q 2666 3584 2933 3390 
Q 3200 3197 3328 2828 
z
" transform="scale(0.015625)"/>
      </defs>
      <use xlink:href="#DejaVuSans-6d"/>
      <use xlink:href="#DejaVuSans-65" transform="translate(97.412109 0)"/>
      <use xlink:href="#DejaVuSans-61" transform="translate(158.935547 0)"/>
      <use xlink:href="#DejaVuSans-6e" transform="translate(220.214844 0)"/>
     </g>
    </g>
   </g>
  </g>
 </g>
 <defs>
  <clipPath id="p670c7dea4b">
   <rect x="52.079375" y="7.2" width="446.4" height="332.64"/>
  </clipPath>
 </defs>
</svg>
